<svg width="97" height="32" viewBox="0 0 97 32" fill="none" xmlns="http://www.w3.org/2000/svg">
<g clip-path="url(#clip0_1013_147)">
<path d="M61.3662 30.9068C61.3351 31.249 61.2062 31.5201 60.984 31.7112C60.7618 31.9023 60.4684 32.0001 60.0995 32.0001C59.8418 32.0001 59.6151 31.9379 59.424 31.8179C59.2284 31.6979 59.0729 31.5246 58.9706 31.2979C58.864 31.0712 58.8062 30.8135 58.8018 30.5157V30.2135C58.8018 29.9068 58.8551 29.6401 58.9662 29.409C59.0729 29.1735 59.2284 28.9957 59.4329 28.8712C59.6373 28.7468 59.8684 28.6846 60.1306 28.6846C60.4906 28.6846 60.7751 28.7823 60.9929 28.9735C61.2106 29.1646 61.3395 29.4401 61.3707 29.7912H60.8151C60.7884 29.5601 60.7218 29.3912 60.6151 29.289C60.504 29.1868 60.344 29.1335 60.1351 29.1335C59.8951 29.1335 59.704 29.2223 59.5751 29.4001C59.4418 29.5779 59.3751 29.8401 59.3751 30.1823V30.4712C59.3751 30.8179 59.4373 31.0846 59.5618 31.2668C59.6862 31.449 59.8684 31.5423 60.1084 31.5423C60.3306 31.5423 60.4951 31.4935 60.6062 31.3957C60.7173 31.2979 60.7884 31.1335 60.8151 30.9023H61.3707L61.3662 30.9068ZM64.2284 28.7335V30.889C64.2284 31.2312 64.1218 31.5023 63.8995 31.7023C63.6773 31.9023 63.3884 32.0001 63.024 32.0001C62.6595 32.0001 62.3618 31.9023 62.144 31.7068C61.9262 31.5112 61.8195 31.2357 61.8195 30.8846V28.729H62.3795V30.8846C62.3795 31.0979 62.4329 31.2623 62.544 31.3779C62.6551 31.489 62.8151 31.5468 63.0284 31.5468C63.4595 31.5468 63.6773 31.3201 63.6773 30.8668V28.729H64.2329L64.2284 28.7335ZM65.4195 31.9557H64.864V28.7335H65.4195V31.9557ZM66.104 31.9557V28.7335H67.0551C67.3395 28.7335 67.5929 28.8001 67.8151 28.9246C68.0329 29.0535 68.2062 29.2312 68.3306 29.4623C68.4506 29.6935 68.5129 29.9646 68.5129 30.2668V30.4268C68.5129 30.7335 68.4506 31.0001 68.3306 31.2312C68.2062 31.4623 68.0373 31.6446 67.8106 31.769C67.5884 31.8935 67.3262 31.9557 67.0373 31.9557H66.1084H66.104ZM66.664 29.1823V31.5068H67.0284C67.3218 31.5068 67.5484 31.4135 67.7084 31.2312C67.864 31.0446 67.944 30.7868 67.9484 30.4401V30.2623C67.9484 29.9157 67.8729 29.649 67.7173 29.4623C67.5662 29.2801 67.344 29.1868 67.0551 29.1868H66.664V29.1823ZM70.8284 31.209H69.5795L69.3173 31.9557H68.7351L69.9529 28.7335H70.4551L71.6773 31.9557H71.0906L70.8284 31.209ZM69.7351 30.7557H70.6684L70.2018 29.4179L69.7351 30.7557ZM75.3662 29.1823H74.3618V31.9557H73.8062V29.1823H72.8106V28.729H75.3662V29.1823ZM78.1484 28.7335V30.889C78.1484 31.2312 78.0373 31.5023 77.8195 31.7023C77.6018 31.9023 77.3084 32.0001 76.944 32.0001C76.5795 32.0001 76.2818 31.9023 76.0684 31.7068C75.8506 31.5112 75.7395 31.2357 75.7395 30.8846V28.729H76.2995V30.8846C76.2995 31.0979 76.3529 31.2623 76.464 31.3779C76.5706 31.489 76.7306 31.5468 76.944 31.5468C77.3751 31.5468 77.5929 31.3201 77.5929 30.8668V28.729H78.1529L78.1484 28.7335ZM81.6818 31.209H80.4329L80.1751 31.9557H79.5929L80.8106 28.7335H81.3129L82.5351 31.9557H81.9484L81.6862 31.209H81.6818ZM80.5884 30.7557H81.5262L81.0595 29.4179L80.5884 30.7557ZM85.3218 31.5379C85.2062 31.689 85.0417 31.8046 84.8373 31.8846C84.6329 31.9646 84.3973 32.0001 84.1306 32.0001C83.864 32.0001 83.6195 31.9379 83.4106 31.8179C83.2018 31.6935 83.0462 31.5201 82.9306 31.2935C82.8151 31.0668 82.7573 30.8001 82.7529 30.4935V30.2401C82.7529 29.7512 82.8684 29.3735 83.104 29.0979C83.3351 28.8223 83.664 28.6846 84.0818 28.6846C84.4418 28.6846 84.7262 28.7735 84.9351 28.9512C85.1484 29.1335 85.2729 29.3868 85.3173 29.7201H84.7706C84.7084 29.3335 84.4862 29.1379 84.0951 29.1379C83.8462 29.1379 83.6551 29.2268 83.5262 29.409C83.3929 29.5868 83.3262 29.8535 83.3262 30.2001V30.449C83.3262 30.8001 83.3973 31.0668 83.544 31.2623C83.6906 31.4535 83.8951 31.5512 84.1573 31.5512C84.4418 31.5512 84.6462 31.489 84.7662 31.3557V30.729H84.0995V30.3023H85.3218V31.5379ZM88.2951 28.7335V30.889C88.2951 31.2312 88.184 31.5023 87.9662 31.7023C87.7484 31.9023 87.4551 32.0001 87.0906 32.0001C86.7262 32.0001 86.4284 31.9023 86.2106 31.7068C85.9973 31.5112 85.8862 31.2357 85.8862 30.8846V28.729H86.4462V30.8846C86.4462 31.0979 86.4995 31.2623 86.6106 31.3779C86.7218 31.489 86.8818 31.5468 87.0951 31.5468C87.5262 31.5468 87.7395 31.3201 87.7395 30.8668V28.729H88.2995L88.2951 28.7335ZM90.6506 31.209H89.4018L89.1395 31.9557H88.5573L89.7751 28.7335H90.2773L91.4951 31.9557H90.9129L90.6506 31.209ZM89.5573 30.7557H90.4906L90.024 29.4179L89.5573 30.7557Z" fill="#005CB9"/>
<path d="M77.8733 8.09729L76.6466 9.43507C75.9622 10.1817 74.7711 10.2484 73.9889 9.58618L66.9622 3.60396C65.4555 2.31951 63.1889 2.41285 61.8111 3.77729C61.8111 3.77729 61.8111 3.77285 61.8066 3.7684L64.1489 1.2084C65.5133 -0.280487 67.8777 -0.41382 69.4289 0.910625L77.8733 8.09729ZM80.9711 9.13285C82.5266 10.4573 84.8866 10.324 86.2511 8.83507L89.9489 4.79507L88.7178 6.14174C87.3578 7.63063 84.9933 7.76396 83.4378 6.43952L76.4111 0.457292C75.6289 -0.209375 74.4422 -0.142709 73.7533 0.608403L72.5266 1.94618L80.9666 9.13285H80.9711Z" fill="#005CB9"/>
<path d="M87.0462 2.49805C87.7306 1.74694 88.9218 1.68027 89.704 2.34694L91.104 3.53805L88.7173 6.13805C87.3573 7.62694 84.9929 7.76027 83.4373 6.43583L87.0462 2.49361V2.49805ZM66.9662 3.60916C65.4551 2.32027 63.184 2.41361 61.8018 3.7825C61.8018 3.7825 61.8018 3.79138 61.8018 3.78694L63.2062 4.96916C63.9884 5.63583 65.184 5.56916 65.8684 4.81805L66.9751 3.60916" fill="#133C65"/>
<path d="M13.544 23.707C13.4818 23.8715 13.4062 24.0315 13.3173 24.187C13.2284 24.3426 13.1173 24.4981 12.9796 24.6448C12.7751 24.8715 12.5484 25.0493 12.2907 25.1826C12.0373 25.3115 11.7573 25.3781 11.4551 25.3781C11.3529 25.3781 11.2418 25.3693 11.1173 25.3604C10.9884 25.347 10.8773 25.3293 10.7751 25.3026C10.5529 25.2537 10.3484 25.1693 10.1751 25.0493C9.99734 24.9337 9.85512 24.7959 9.73956 24.6448C9.66401 24.547 9.58845 24.4315 9.51289 24.307C9.43734 24.1826 9.35289 24.0137 9.25067 23.8004C9.224 23.7337 9.184 23.6537 9.13956 23.5559C9.09067 23.4537 9.00623 23.2493 8.89511 22.9337L8.384 24.0804C8.33511 24.1915 8.28178 24.2981 8.21512 24.3915C8.15289 24.4848 8.09511 24.5604 8.04623 24.627C7.86845 24.8759 7.64623 25.067 7.37511 25.1915C7.104 25.3159 6.81511 25.3826 6.49956 25.3826C6.40178 25.3826 6.29067 25.3737 6.17067 25.3648C6.05067 25.3515 5.93956 25.3337 5.84178 25.307C5.61511 25.2581 5.41511 25.1737 5.25067 25.0537C5.08178 24.9381 4.92623 24.8004 4.79289 24.6493C4.69067 24.5248 4.60178 24.3826 4.53067 24.227C4.45511 24.0715 4.384 23.9248 4.32623 23.7826H4.344C4.29511 23.6937 4.24622 23.5959 4.20178 23.4893C4.15734 23.3826 4.09956 23.2448 4.03289 23.0759C3.96178 22.907 3.88178 22.6893 3.77511 22.427C3.67734 22.1648 3.544 21.827 3.38845 21.4181C3.23289 21.0093 3.04178 20.5204 2.81511 19.9426C2.59289 19.3648 2.32622 18.6715 2.02845 17.8537H1.29511C1.11734 17.8537 0.979557 17.7959 0.872891 17.6848C0.766224 17.5737 0.712891 17.4315 0.712891 17.2537V16.4448C0.712891 16.3826 0.730668 16.3026 0.770668 16.2004C0.806224 16.1026 0.850668 16.0359 0.904002 16.0137C1.04178 15.8893 1.20622 15.7693 1.41067 15.6537C1.584 15.5648 1.79734 15.4848 2.04178 15.4093C2.28622 15.3337 2.57511 15.2981 2.89511 15.2981C3.27289 15.2981 3.57511 15.3959 3.81511 15.5915C4.05511 15.7826 4.224 15.9826 4.32623 16.1826L6.48623 22.5026C6.57511 22.3159 6.664 22.0893 6.75289 21.827C6.84178 21.5648 6.92623 21.2937 7.01511 21.0181C7.104 20.7426 7.18845 20.4715 7.26845 20.2093C7.34845 19.947 7.43289 19.7204 7.52178 19.5337L6.59734 17.0137C6.54845 16.8759 6.49956 16.747 6.45511 16.627C6.41067 16.507 6.38845 16.4004 6.38845 16.2981C6.38845 16.0848 6.46845 15.9381 6.63289 15.8537C6.79289 15.7737 7.00178 15.6848 7.25067 15.5826C7.29956 15.5559 7.35734 15.5381 7.41956 15.5293C7.48178 15.5159 7.53067 15.4981 7.57067 15.4715C7.72178 15.4093 7.85067 15.3648 7.95734 15.3426C8.064 15.3159 8.16623 15.3026 8.264 15.3026C8.55289 15.3026 8.75734 15.3737 8.86845 15.5115C8.97956 15.6493 9.08623 15.8626 9.184 16.1515L11.3884 22.4359L13.5885 16.1693C13.6862 15.867 13.8018 15.6493 13.9262 15.5115C14.0507 15.3737 14.2462 15.3026 14.5085 15.3026C14.6062 15.3026 14.7084 15.3159 14.7973 15.3426C14.8907 15.3693 15.0018 15.4048 15.1262 15.4537H15.1084L15.3529 15.5115C15.6951 15.6226 15.9485 15.7248 16.1173 15.8226C16.2862 15.9159 16.3707 16.0715 16.3707 16.2848C16.3707 16.3737 16.3485 16.4848 16.3129 16.6226C16.2773 16.7604 16.2329 16.8937 16.1796 17.0181L13.5262 23.7159L13.544 23.707ZM20.2996 25.347C20.0462 25.3204 19.824 25.2804 19.6285 25.2226C19.4329 25.1693 19.2551 25.107 19.0907 25.0448C18.2996 24.6804 17.6907 24.1026 17.2685 23.2981C16.8418 22.4937 16.6285 21.547 16.6285 20.4581C16.6285 19.867 16.7129 19.3026 16.8729 18.7648C17.0329 18.2226 17.264 17.7381 17.5573 17.307C17.8507 16.8759 18.2107 16.5026 18.6285 16.1959C19.0507 15.8893 19.5173 15.667 20.0329 15.5293C20.4862 15.4137 20.9707 15.3604 21.4818 15.3604C21.8329 15.3604 22.1085 15.3648 22.3085 15.3781C22.5085 15.3915 22.7396 15.427 23.0062 15.4937C23.104 15.4181 23.224 15.3737 23.3529 15.3604C23.4818 15.347 23.6551 15.3426 23.8729 15.3426H24.1173C24.4418 15.3426 24.6996 15.3426 24.8907 15.3515C25.0773 15.3559 25.224 15.3959 25.3218 15.4626C25.424 15.5293 25.4862 15.6493 25.5129 15.8093C25.5396 15.9737 25.5485 16.2093 25.5485 16.5248V23.2226H25.944C26.1218 23.2226 26.2596 23.2759 26.3662 23.3915C26.4729 23.5026 26.5262 23.6404 26.5262 23.8048V24.5737C26.5262 24.7115 26.4996 24.8226 26.4507 24.9026C26.4018 24.987 26.2862 25.0581 26.1129 25.1204H26.1307C26.0951 25.1337 26.0196 25.1559 25.904 25.187C25.7929 25.2181 25.6507 25.2448 25.4907 25.2715C25.3262 25.2937 25.1396 25.3159 24.9351 25.3248C24.7262 25.3381 24.5173 25.3381 24.304 25.3248C23.7796 25.2893 23.3885 25.1248 23.1396 24.8359C22.9262 24.9381 22.7618 25.0048 22.6507 25.0448C22.1218 25.2581 21.5173 25.3648 20.824 25.3648H20.544C20.4551 25.3648 20.3796 25.3559 20.3173 25.347H20.2996ZM20.7662 22.8804C20.8951 22.907 21.0818 22.907 21.3218 22.8804C21.5662 22.8537 21.8596 22.7915 22.1973 22.6893C22.3751 22.627 22.4951 22.5781 22.5618 22.547C22.6329 22.5159 22.6996 22.4893 22.7618 22.4626V17.9115C22.5885 17.8848 22.3885 17.8626 22.1618 17.8448C21.9351 17.827 21.6996 17.8137 21.4462 17.8137C21.0329 17.8137 20.6951 17.9026 20.4373 18.0759C20.1796 18.2537 19.9796 18.4848 19.8329 18.7737C19.6907 19.0626 19.5929 19.3915 19.544 19.7515C19.4951 20.1159 19.4818 20.4848 19.504 20.8626C19.5173 21.1026 19.5396 21.3337 19.5707 21.5559C19.6018 21.7826 19.664 21.9826 19.7618 22.1648C19.8551 22.347 19.9796 22.5026 20.1351 22.627C20.2907 22.7515 20.4996 22.8359 20.7618 22.8715L20.7662 22.8804ZM30.0596 20.7737C30.0596 21.1026 30.064 21.4226 30.0773 21.7426C30.0907 22.0626 30.144 22.307 30.2462 22.467C30.3485 22.6448 30.5129 22.7381 30.744 22.7559C30.9751 22.7737 31.2107 22.7781 31.4507 22.7648L31.8462 22.7426C32.024 22.7293 32.1662 22.7426 32.2818 22.7737C32.3929 22.8048 32.4862 22.8581 32.5618 22.9337C32.6373 23.0093 32.704 23.1115 32.7573 23.2448C32.8151 23.3737 32.8818 23.5337 32.9529 23.7248L33.0462 23.987C33.0951 24.1248 33.1218 24.3026 33.1218 24.5159C33.1218 24.7159 33.0551 24.867 32.9262 24.9648C32.7929 25.067 32.5751 25.147 32.2596 25.2093C32.0685 25.2626 31.8773 25.2937 31.6773 25.307C31.4773 25.3204 31.2773 25.3248 31.0729 25.3248C30.4329 25.3248 29.8196 25.2093 29.2285 24.987C28.6373 24.7604 28.1885 24.3915 27.8729 23.8804C27.6329 23.4893 27.4818 23.0315 27.4151 22.4981C27.344 21.9648 27.3129 21.3915 27.3129 20.7781L27.2951 13.667C27.2951 13.3693 27.304 13.1381 27.3218 12.9826C27.3396 12.827 27.3973 12.7115 27.4818 12.6359C27.5707 12.5604 27.6907 12.5159 27.8507 12.507C28.0062 12.4937 28.2285 12.4893 28.5173 12.4893H28.7262C29.0285 12.4893 29.264 12.4937 29.4418 12.507C29.6196 12.5204 29.7485 12.5648 29.8373 12.6359C29.9218 12.7115 29.9796 12.827 30.0062 12.9826C30.0329 13.1381 30.0418 13.3693 30.0418 13.667V15.4181H31.9085C32.1707 15.4181 32.3751 15.4226 32.5307 15.4404C32.6773 15.4537 32.784 15.4893 32.8507 15.5515C32.9173 15.6137 32.9529 15.7159 32.9618 15.8626C32.9751 16.0093 32.9796 16.2137 32.9796 16.4759V16.5915C32.9796 16.8181 32.9796 17.0137 32.9618 17.1826C32.9485 17.3515 32.904 17.4937 32.8329 17.6048C32.7573 17.7159 32.6418 17.8004 32.4862 17.8581C32.3307 17.9115 32.0996 17.9426 31.8018 17.9426H30.0507L30.0729 20.7826L30.0596 20.7737ZM38.7529 22.827C38.9618 22.8137 39.2196 22.7915 39.5129 22.7604C39.8062 22.7293 40.1529 22.6715 40.5573 22.5826C40.7085 22.5604 40.8373 22.5337 40.944 22.5159C41.0507 22.4981 41.1529 22.4893 41.2551 22.4893C41.5173 22.4893 41.6996 22.5693 41.7973 22.7337C41.8996 22.8981 42.0329 23.1737 42.1973 23.5604C42.2818 23.7959 42.3262 23.987 42.3262 24.1248C42.3262 24.4893 42.1396 24.7337 41.7707 24.8581C41.4018 24.9826 40.9129 25.0937 40.3129 25.1959C39.6862 25.3115 38.9396 25.3648 38.0729 25.3648C37.2062 25.3648 36.504 25.2404 35.9662 24.987C35.7129 24.8626 35.4685 24.7115 35.2196 24.5381C34.9751 24.3648 34.7662 24.1648 34.5885 23.9381C33.8729 23.0715 33.5173 21.8804 33.5173 20.3648C33.5173 19.6537 33.6285 18.987 33.8462 18.3737C34.064 17.7604 34.3529 17.2404 34.704 16.827C34.9796 16.5159 35.2507 16.2537 35.5129 16.0448C35.7751 15.8404 36.0685 15.6804 36.384 15.5648C36.704 15.4537 37.064 15.3737 37.4596 15.3381C37.8551 15.2981 38.3129 15.2893 38.8418 15.2981C38.9929 15.2981 39.184 15.3159 39.4151 15.3559C39.6462 15.3915 39.8951 15.467 40.1707 15.5826C40.4373 15.6937 40.7129 15.8537 40.9796 16.0626C41.2507 16.2715 41.4951 16.5426 41.7129 16.8804C41.9351 17.2181 42.1129 17.6404 42.2507 18.1381C42.3885 18.6404 42.4596 19.2448 42.4596 19.947C42.4596 20.3115 42.4062 20.5915 42.2996 20.7959C42.1929 20.9959 42.064 21.1426 41.9129 21.2359C41.7618 21.3293 41.6151 21.387 41.4596 21.4048C41.3085 21.427 41.1973 21.4359 41.1218 21.4359H36.3796C36.3929 21.6493 36.4373 21.8359 36.5218 22.0004C36.6018 22.1604 36.6951 22.2937 36.7929 22.3959C36.9573 22.5737 37.1796 22.6937 37.4729 22.7648C37.7618 22.8315 38.184 22.8581 38.7529 22.8315V22.827ZM37.0773 17.8981C36.7662 18.1248 36.5573 18.5648 36.4596 19.2137H40.1085C40.0107 18.5648 39.8018 18.1204 39.4862 17.8981C39.1751 17.6715 38.7796 17.5604 38.2996 17.5604H38.264C37.7885 17.5604 37.3929 17.6715 37.0773 17.8981ZM47.2951 15.3959C47.4818 15.3737 47.7218 15.3515 48.0107 15.3293C48.2996 15.3115 48.5885 15.2981 48.8773 15.2981H49.0285C49.2196 15.2981 49.4018 15.2981 49.5751 15.307C49.7485 15.3159 49.8996 15.3426 50.0285 15.3915C50.1529 15.4448 50.2551 15.5159 50.3307 15.6093C50.4018 15.7026 50.4418 15.8448 50.4418 16.0315C50.4418 16.0937 50.4329 16.1826 50.4151 16.2937C50.3929 16.4048 50.3662 16.5115 50.3307 16.6137L50.2374 16.8937C50.1751 17.0804 50.1173 17.2404 50.0685 17.3737C50.0151 17.5026 49.9573 17.6093 49.8907 17.6848C49.8196 17.7604 49.7262 17.8093 49.6107 17.8359C49.4907 17.8581 49.3351 17.8581 49.1485 17.8359C48.9218 17.7959 48.7262 17.7781 48.5662 17.7781C48.2773 17.7781 47.9796 17.7959 47.6729 17.827C47.3662 17.8581 47.0818 17.907 46.8196 17.9693V24.027C46.8196 24.5026 46.7529 24.8181 46.6196 24.9781C46.4862 25.1337 46.2018 25.2137 45.7618 25.2137H45.0862C44.8596 25.2137 44.6729 25.2048 44.5307 25.1781C44.3885 25.1515 44.2773 25.0937 44.2018 25.0093C44.1262 24.9248 44.0773 24.8004 44.0507 24.6448C44.024 24.4893 44.0107 24.2848 44.0107 24.0315L44.0507 17.8448H43.6151C43.4507 17.8448 43.3129 17.787 43.2018 17.6715C43.0907 17.5604 43.0329 17.4137 43.0329 17.2404V16.4315C43.0329 16.2937 43.0551 16.1915 43.0996 16.1337C43.1396 16.0715 43.1751 16.0315 43.2018 16.0226C43.3529 15.8981 43.5262 15.7781 43.7262 15.6626C43.8996 15.5604 44.1129 15.4759 44.3573 15.4004C44.6018 15.3248 44.8862 15.2848 45.2107 15.2848C45.4729 15.2848 45.6996 15.3248 45.8907 15.4093C46.0818 15.4937 46.2418 15.5959 46.3796 15.7204C46.5173 15.6448 46.6685 15.5781 46.8285 15.5248C46.9929 15.467 47.1485 15.427 47.2996 15.4004L47.2951 15.3959ZM53.1218 30.2937C52.8329 30.2937 52.6107 30.2848 52.4551 30.2715C52.2951 30.2582 52.1796 30.2137 52.0951 30.1381C52.0151 30.0626 51.9662 29.947 51.944 29.7915C51.9262 29.6359 51.9173 29.4093 51.9173 29.1204V17.8715H51.4818C51.3085 17.8715 51.1618 17.8181 51.0596 17.7115C50.9529 17.6048 50.8996 17.467 50.8996 17.2893V16.4804C50.8996 16.4181 50.9173 16.3381 50.9573 16.2359C50.9929 16.1337 51.024 16.0715 51.0507 16.0448C51.2018 15.9204 51.3751 15.8004 51.5796 15.6893C51.7573 15.5915 51.9662 15.5026 52.2107 15.427C52.4551 15.3515 52.744 15.3159 53.0685 15.3159C53.3307 15.3159 53.5707 15.3648 53.784 15.467C53.9973 15.5693 54.1751 15.6893 54.3129 15.8226L54.8018 15.6181C55.3262 15.4048 55.944 15.2981 56.6462 15.2981H56.664C56.9885 15.2981 57.3085 15.3337 57.6151 15.4004C57.9174 15.4715 58.1618 15.5426 58.3396 15.6181C59.1396 15.9915 59.7529 16.5781 60.1751 17.3648C60.5974 18.1559 60.8062 19.1026 60.8062 20.2048C60.8062 20.907 60.6951 21.5648 60.4774 22.1826C60.2596 22.7959 59.9796 23.3248 59.6418 23.7604C59.2862 24.2093 58.9085 24.5337 58.4951 24.7293C58.0774 24.9248 57.7218 25.0626 57.424 25.1337C57.184 25.1959 56.9485 25.2359 56.7173 25.2537C56.4862 25.2715 56.2374 25.2804 55.9751 25.2804H55.3351C55.1485 25.2804 54.984 25.267 54.8462 25.2404C54.8196 25.2404 54.7973 25.2359 54.7707 25.2226C54.7485 25.2093 54.7218 25.1959 54.6996 25.187V29.1159C54.6996 29.4048 54.6818 29.627 54.6507 29.787C54.6196 29.9426 54.5529 30.0582 54.4596 30.1337C54.3662 30.2093 54.2285 30.2537 54.0462 30.267C53.864 30.2804 53.6329 30.2893 53.3396 30.2893H53.1307L53.1218 30.2937ZM56.6818 17.7648C56.544 17.7381 56.3485 17.7337 56.0996 17.7426C55.8462 17.7559 55.5707 17.8315 55.2729 17.9693C55.0329 18.0715 54.8373 18.1781 54.6907 18.2893V22.7648C54.8507 22.7915 55.0462 22.8093 55.2729 22.8226C55.4996 22.8359 55.7351 22.8448 55.9885 22.8448C56.4507 22.8448 56.7529 22.7915 56.8907 22.6937C57.1307 22.5826 57.3173 22.4181 57.4551 22.2048C57.5929 21.9915 57.6996 21.7559 57.7751 21.4893C57.8507 21.227 57.8996 20.9515 57.9262 20.6626C57.9529 20.3737 57.9574 20.0937 57.9485 19.8181C57.9351 19.5826 57.9129 19.347 57.8818 19.1115C57.8507 18.8804 57.7885 18.667 57.704 18.4804C57.6196 18.2937 57.4907 18.1337 57.3307 18.0093C57.1662 17.8848 56.9529 17.8048 56.6907 17.7648H56.6818ZM64.6196 23.2004H65.0151C65.1885 23.2004 65.3351 23.2581 65.4507 23.3693C65.5662 23.4804 65.6196 23.6181 65.6196 23.7826V24.5559C65.6196 24.6448 65.5574 24.7515 65.4285 24.8759C65.304 25.0004 65.1796 25.0937 65.0507 25.1604C64.9885 25.187 64.8062 25.227 64.504 25.2937C64.2018 25.3559 63.8107 25.3604 63.3174 25.3115C62.9662 25.2759 62.6907 25.1826 62.4907 25.0404C62.2907 24.8937 62.144 24.7337 62.0462 24.5515C61.9529 24.3693 61.8951 24.1959 61.8685 24.0359C61.8418 23.8715 61.8329 23.7515 61.8329 23.6759V13.6493C61.8329 13.3604 61.8507 13.1381 61.8818 12.9826C61.9129 12.827 61.9751 12.7115 62.0685 12.6359C62.1618 12.5604 62.2951 12.5159 62.4729 12.507C62.6507 12.4937 62.8818 12.4893 63.1662 12.4893H63.3751C63.664 12.4893 63.8907 12.4937 64.0551 12.507C64.2196 12.5204 64.344 12.5648 64.4285 12.6359C64.5174 12.7115 64.5707 12.827 64.5885 12.9826C64.6107 13.1381 64.6196 13.3604 64.6196 13.6493V23.2048V23.2004ZM69.624 25.347C69.3707 25.3204 69.1485 25.2804 68.9574 25.2226C68.7618 25.1693 68.584 25.107 68.4196 25.0448C67.6285 24.6804 67.0196 24.1026 66.5974 23.2981C66.1707 22.4937 65.9574 21.547 65.9574 20.4581C65.9574 19.867 66.0418 19.3026 66.2018 18.7648C66.3618 18.2226 66.5929 17.7381 66.8862 17.307C67.1796 16.8759 67.5396 16.5026 67.9574 16.1959C68.3751 15.8893 68.8418 15.667 69.3574 15.5293C69.8107 15.4137 70.2907 15.3604 70.8062 15.3604C71.1574 15.3604 71.4329 15.3648 71.6329 15.3781C71.8329 15.3915 72.0685 15.427 72.3307 15.4937C72.4285 15.4181 72.544 15.3737 72.6774 15.3604C72.8062 15.347 72.9796 15.3426 73.1929 15.3426H73.4374C73.7618 15.3426 74.0196 15.3426 74.2062 15.3515C74.3929 15.3559 74.5396 15.3959 74.6418 15.4626C74.7396 15.5293 74.8063 15.6493 74.8285 15.8093C74.8551 15.9737 74.864 16.2093 74.864 16.5248V23.2226H75.2596C75.4374 23.2226 75.5751 23.2759 75.6818 23.3915C75.7885 23.5026 75.8418 23.6404 75.8418 23.8048V24.5737C75.8418 24.7115 75.8151 24.8226 75.7707 24.9026C75.7218 24.987 75.6062 25.0581 75.4285 25.1204H75.4463C75.4107 25.1337 75.3351 25.1559 75.2196 25.187C75.104 25.2181 74.9707 25.2448 74.8062 25.2715C74.6418 25.2937 74.4551 25.3159 74.2507 25.3248C74.0418 25.3381 73.8329 25.3381 73.6196 25.3248C73.0951 25.2893 72.704 25.1248 72.4551 24.8359C72.2418 24.9381 72.0774 25.0048 71.9662 25.0448C71.4418 25.2581 70.8285 25.3648 70.144 25.3648H69.8596C69.7707 25.3648 69.6951 25.3559 69.6329 25.347H69.6151H69.624ZM70.0907 22.8804C70.2151 22.907 70.4018 22.907 70.6462 22.8804C70.8907 22.8537 71.184 22.7915 71.5218 22.6893C71.6951 22.627 71.8196 22.5781 71.8907 22.547C71.9574 22.5159 72.024 22.4893 72.0863 22.4626V17.9115C71.9129 17.8848 71.7085 17.8626 71.4862 17.8448C71.2596 17.827 71.024 17.8137 70.7707 17.8137C70.3574 17.8137 70.0196 17.9026 69.7618 18.0759C69.504 18.2537 69.304 18.4848 69.1574 18.7737C69.0151 19.0626 68.9174 19.3915 68.8685 19.7515C68.8196 20.1159 68.8018 20.4848 68.8285 20.8626C68.8418 21.1026 68.864 21.3337 68.8951 21.5559C68.9262 21.7826 68.9885 21.9826 69.0818 22.1648C69.1751 22.347 69.2996 22.5026 69.4551 22.627C69.6107 22.7515 69.8196 22.8359 70.0863 22.8715L70.0907 22.8804ZM80.4374 17.8048C79.9618 17.7693 79.624 17.8137 79.424 17.9381C79.2196 18.0626 79.1351 18.2315 79.1574 18.4448C79.184 18.5959 79.2951 18.6893 79.4951 18.7248C79.6729 18.7781 79.8507 18.8181 80.0374 18.8493C80.2285 18.8804 80.4285 18.9159 80.6418 18.9515C81.1174 19.027 81.5885 19.1248 82.0596 19.2448C82.5307 19.3648 82.9129 19.5115 83.2151 19.6893C83.6285 19.9293 83.944 20.2226 84.1663 20.5737C84.384 20.9248 84.4951 21.427 84.4951 22.0804C84.4951 22.6848 84.4418 23.1559 84.3262 23.5115C84.1885 23.9026 83.9574 24.2537 83.6329 24.5737C83.304 24.8937 82.8907 25.1337 82.3929 25.2981C82.0151 25.4137 81.504 25.467 80.8462 25.467C80.3574 25.467 79.8374 25.4315 79.2862 25.3648C78.7307 25.2937 78.1929 25.187 77.6685 25.0315C77.264 24.907 76.9662 24.7915 76.7751 24.6848C76.5796 24.5781 76.4818 24.4004 76.4818 24.1515C76.4818 23.987 76.5351 23.7693 76.6329 23.4937C76.7974 23.0937 76.9351 22.8181 77.0462 22.667C77.1574 22.5159 77.3262 22.4404 77.5529 22.4404C77.6507 22.4404 77.7663 22.4493 77.8907 22.4759C78.0151 22.4981 78.1529 22.5337 78.304 22.5693C78.7796 22.6715 79.2329 22.7515 79.664 22.8137C80.0996 22.8759 80.4774 22.907 80.8063 22.907C81.0329 22.907 81.2107 22.9026 81.344 22.8893C81.4729 22.8759 81.5751 22.8493 81.6418 22.8048C81.7129 22.7604 81.7574 22.6848 81.7751 22.5781C81.7974 22.4715 81.8063 22.3248 81.8063 22.1337C81.8063 22.0448 81.784 21.9737 81.7307 21.9204C81.6818 21.8626 81.5751 21.8048 81.4107 21.7515C81.2507 21.6937 81.0151 21.6404 80.7085 21.5826C80.4018 21.5248 79.9974 21.4493 79.4951 21.347C78.7396 21.2093 78.1174 20.9381 77.624 20.5293C77.1307 20.1204 76.8107 19.6359 76.6729 19.0715C76.6462 18.9826 76.6329 18.8804 76.6285 18.7604C76.624 18.6448 76.6196 18.5204 76.6196 18.3959C76.6196 17.5559 76.8774 16.8581 77.3885 16.307C78.0151 15.6181 78.9218 15.2848 80.0996 15.3115C81.1529 15.3115 82.1796 15.4315 83.184 15.6715L83.4285 15.7248C83.704 15.7915 83.8907 15.8981 83.984 16.0537C84.0774 16.2093 84.1263 16.3959 84.1263 16.6093C84.1263 16.7381 84.1129 16.8626 84.0863 16.987C84.0596 17.1115 84.024 17.2537 83.9751 17.4181C83.8907 17.6937 83.8107 17.8937 83.7485 18.0226C83.6862 18.147 83.5307 18.2093 83.2774 18.2093C83.104 18.2093 82.9129 18.187 82.7129 18.1337C82.3485 18.0581 81.9796 17.9915 81.6018 17.9381C81.2285 17.8804 80.8374 17.8404 80.4329 17.8181L80.4374 17.8048ZM88.1885 20.7737C88.1885 21.1026 88.1929 21.4226 88.2062 21.7426C88.2196 22.0626 88.2774 22.307 88.3751 22.467C88.4774 22.6448 88.6418 22.7381 88.8729 22.7559C89.104 22.7737 89.3396 22.7781 89.5796 22.7648L89.9751 22.7426C90.1485 22.7293 90.2951 22.7426 90.4062 22.7737C90.5174 22.8048 90.6151 22.8581 90.6862 22.9337C90.7618 23.0093 90.8285 23.1115 90.8818 23.2448C90.9396 23.3737 91.0062 23.5337 91.0818 23.7248L91.1751 23.987C91.224 24.1248 91.2507 24.3026 91.2507 24.5159C91.2507 24.7159 91.184 24.867 91.0507 24.9648C90.9174 25.067 90.6951 25.147 90.384 25.2093C90.1929 25.2626 90.0018 25.2937 89.8018 25.307C89.5974 25.3204 89.3974 25.3248 89.1974 25.3248C88.5574 25.3248 87.944 25.2093 87.3529 24.987C86.7618 24.7604 86.3129 24.3915 85.9974 23.8804C85.7618 23.4893 85.6062 23.0315 85.5396 22.4981C85.4685 21.9648 85.4374 21.3915 85.4374 20.7781L85.4196 13.667C85.4196 13.3693 85.4285 13.1381 85.4507 12.9826C85.4685 12.827 85.5218 12.7115 85.6107 12.6359C85.6996 12.5604 85.8196 12.5159 85.9796 12.507C86.1351 12.4937 86.3574 12.4893 86.6462 12.4893H86.8551C87.1529 12.4893 87.3929 12.4937 87.5662 12.507C87.744 12.5204 87.8729 12.5648 87.9618 12.6359C88.0507 12.7115 88.1085 12.827 88.1351 12.9826C88.1618 13.1381 88.1707 13.3693 88.1707 13.667V15.4181H90.0329C90.2951 15.4181 90.504 15.4226 90.6507 15.4404C90.8018 15.4537 90.9085 15.4893 90.9707 15.5515C91.0329 15.6137 91.0729 15.7159 91.0863 15.8626C91.0951 16.0093 91.104 16.2137 91.104 16.4759V16.5915C91.104 16.8181 91.0996 17.0137 91.0863 17.1826C91.0729 17.3515 91.0285 17.4937 90.9529 17.6048C90.8774 17.7159 90.7618 17.8004 90.6063 17.8581C90.4507 17.9115 90.2196 17.9426 89.9174 17.9426H88.1663L88.184 20.7826L88.1885 20.7737ZM94.1663 25.3337C92.9974 25.3337 92.0462 24.3826 92.0462 23.2137C92.0462 22.0448 92.9974 21.0937 94.1663 21.0937C95.3351 21.0937 96.2863 22.0448 96.2863 23.2137C96.2863 24.3826 95.3351 25.3337 94.1663 25.3337ZM94.1663 21.3381C93.1307 21.3381 92.2907 22.1781 92.2907 23.2137C92.2907 24.2493 93.1307 25.0893 94.1663 25.0893C95.2018 25.0893 96.0418 24.2493 96.0418 23.2137C96.0418 22.1781 95.2018 21.3381 94.1663 21.3381ZM94.9751 23.0715C94.8596 23.2137 94.7129 23.2981 94.5396 23.3337L95.1485 24.5426H94.8285L94.2418 23.3781H93.6151V24.5426H93.3351V21.8004H94.2151C94.5351 21.8004 94.7751 21.8759 94.9218 22.0226C95.0729 22.1693 95.1485 22.3604 95.1485 22.587C95.1485 22.7737 95.0907 22.9337 94.9707 23.0715H94.9751ZM94.2196 23.1293C94.6151 23.1293 94.8551 22.9293 94.8551 22.587C94.8551 22.2226 94.6418 22.0404 94.2196 22.0404H93.6196V23.1293H94.2196Z" fill="#005CB9"/>
</g>
<defs>
<clipPath id="clip0_1013_147">
<rect width="96" height="32" fill="white" transform="translate(0.5)"/>
</clipPath>
</defs>
</svg>
