<svg width="134" height="52" viewBox="0 0 134 52" fill="none" xmlns="http://www.w3.org/2000/svg">
<g clip-path="url(#clip0_1784_118)">
<path d="M104.89 13.14L102.9 15.31C101.79 16.52 99.86 16.63 98.59 15.55L87.19 5.84C84.74 3.76 81.07 3.91 78.83 6.12C78.83 6.12 78.83 6.12 78.83 6.11L82.63 1.96C84.84 -0.450001 88.68 -0.670001 91.2 1.48L104.9 13.14H104.89ZM109.91 14.82C112.43 16.97 116.27 16.75 118.48 14.33L124.48 7.77L122.48 9.96C120.27 12.38 116.44 12.59 113.91 10.45L102.51 0.739999C101.24 -0.340001 99.31 -0.230001 98.2 0.979999L96.21 3.15L109.91 14.81V14.82Z" fill="white"/>
<path d="M119.77 4.05C120.88 2.84 122.81 2.73 124.08 3.81L126.35 5.74L122.48 9.96C120.27 12.38 116.44 12.59 113.91 10.45L119.77 4.05ZM87.19 5.85C84.74 3.76 81.05 3.91 78.81 6.13L81.09 8.05C82.36 9.13 84.3 9.02 85.41 7.81L87.21 5.84" fill="#C6C6C5"/>
<path d="M7.37 25.15C7.67 25.11 8.06 25.07 8.53 25.04C8.99 25.01 9.46 25 9.93 25H10.17C10.47 25 10.77 25 11.05 25.01C11.33 25.02 11.58 25.07 11.78 25.14C11.98 25.22 12.15 25.34 12.27 25.49C12.39 25.64 12.45 25.87 12.45 26.18C12.45 26.28 12.44 26.42 12.41 26.6C12.38 26.78 12.33 26.95 12.27 27.12L12.12 27.57C12.02 27.88 11.93 28.13 11.85 28.35C11.77 28.56 11.67 28.73 11.56 28.85C11.45 28.97 11.3 29.05 11.11 29.09C10.92 29.13 10.67 29.13 10.36 29.09C9.99 29.03 9.68 29 9.42 29C8.95 29 8.47 29.03 7.98 29.08C7.48 29.13 7.02 29.21 6.59 29.31V39.11C6.59 39.88 6.48 40.39 6.27 40.65C6.06 40.9 5.59 41.03 4.88 41.03H3.79C3.43 41.03 3.12 41.01 2.89 40.97C2.66 40.93 2.48 40.84 2.36 40.7C2.24 40.56 2.16 40.36 2.11 40.11C2.07 39.86 2.05 39.53 2.05 39.12L2.11 29.11H1.41C1.15 29.11 0.920001 29.02 0.740001 28.84C0.560001 28.66 0.470001 28.42 0.470001 28.14V26.83C0.470001 26.61 0.500001 26.45 0.580001 26.35C0.650001 26.25 0.700001 26.19 0.750001 26.17C0.990001 25.97 1.28 25.77 1.6 25.59C1.88 25.43 2.22 25.29 2.62 25.16C3.01 25.04 3.48 24.98 4.01 24.98C4.43 24.98 4.8 25.05 5.1 25.18C5.41 25.31 5.67 25.48 5.89 25.68C6.11 25.55 6.35 25.45 6.62 25.36C6.88 25.27 7.14 25.2 7.38 25.16L7.37 25.15ZM19.26 41.21C18.67 41.17 18.1 41.08 17.54 40.92C16.98 40.77 16.49 40.59 16.07 40.39C14.92 39.87 14.01 39.01 13.35 37.82C12.69 36.63 12.36 35.23 12.36 33.61V33.14C12.36 32.96 12.36 32.81 12.39 32.67V32.7C12.47 31.54 12.69 30.48 13.04 29.49C13.39 28.51 13.91 27.67 14.59 26.98C15.27 26.29 16.11 25.77 17.13 25.41C18.15 25.06 19.34 24.92 20.72 25C21.96 25.08 23.02 25.36 23.91 25.83C24.8 26.31 25.54 26.95 26.12 27.75C26.7 28.55 27.11 29.48 27.37 30.53C27.62 31.58 27.73 32.73 27.69 33.97C27.6 36.22 26.94 38 25.68 39.3C24.42 40.6 22.58 41.25 20.14 41.25H19.68C19.54 41.25 19.4 41.24 19.26 41.21ZM20.05 37.11C21.08 37.11 21.87 36.79 22.41 36.17C22.94 35.54 23.23 34.68 23.27 33.58C23.31 32.4 23.09 31.41 22.61 30.61C22.13 29.81 21.36 29.37 20.28 29.29C19.69 29.25 19.18 29.32 18.76 29.48C18.33 29.66 17.97 29.91 17.68 30.24C17.39 30.58 17.16 30.97 16.99 31.44C16.83 31.91 16.74 32.42 16.71 32.99V32.96V33.42C16.71 34.19 16.86 34.86 17.14 35.43C17.42 36 17.81 36.41 18.3 36.68C18.48 36.78 18.69 36.87 18.91 36.94C19.14 37.01 19.39 37.07 19.67 37.11H20.04H20.05ZM30.38 40.97C30.15 40.93 29.97 40.84 29.85 40.7C29.73 40.56 29.65 40.36 29.6 40.11C29.56 39.86 29.54 39.53 29.54 39.12V19.1C29.54 18.63 29.57 18.27 29.61 18.02C29.66 17.77 29.77 17.58 29.93 17.46C30.09 17.34 30.32 17.27 30.61 17.25C30.91 17.23 31.28 17.22 31.75 17.22H32.05C32.5 17.22 32.85 17.23 33.11 17.25C33.37 17.27 33.58 17.34 33.72 17.46C33.86 17.58 33.95 17.77 33.98 18.02C34.01 18.28 34.03 18.64 34.03 19.1L34.06 25.27C34.16 25.23 34.25 25.21 34.32 25.21C34.39 25.21 34.48 25.21 34.58 25.18C34.86 25.12 35.22 25.07 35.66 25.03C36.1 24.99 36.6 24.97 37.17 24.97C39.4 24.93 41.02 25.28 42.02 26.04C43.02 26.79 43.53 28.03 43.53 29.75V37.78H44.2C44.46 37.78 44.69 37.87 44.87 38.06C45.05 38.24 45.14 38.46 45.14 38.73V39.98C45.14 40.14 45.08 40.31 44.97 40.48C44.86 40.65 44.68 40.78 44.44 40.86H44.47C44.37 40.9 44.04 40.99 43.48 41.12C42.92 41.25 42.25 41.28 41.46 41.2C40.87 41.14 40.41 40.99 40.09 40.76C39.76 40.52 39.53 40.26 39.38 39.97C39.23 39.67 39.13 39.39 39.09 39.13C39.05 38.87 39.03 38.67 39.03 38.55V30.55C38.99 30.04 38.83 29.69 38.56 29.48C38.29 29.28 37.87 29.16 37.3 29.11C36.75 29.07 36.2 29.08 35.65 29.14C35.09 29.2 34.56 29.27 34.05 29.36V39.12C34.05 39.89 33.95 40.4 33.75 40.66C33.54 40.91 33.08 41.04 32.35 41.04H31.28C30.91 41.04 30.61 41.02 30.38 40.98V40.97ZM54.3 37.17C54.64 37.15 55.06 37.11 55.53 37.06C56.01 37.01 56.57 36.91 57.22 36.77C57.46 36.73 57.67 36.69 57.84 36.66C58.01 36.63 58.18 36.62 58.34 36.62C58.77 36.62 59.06 36.75 59.22 37.01C59.38 37.27 59.59 37.72 59.86 38.35C60 38.74 60.07 39.04 60.07 39.26C60.07 39.85 59.77 40.25 59.17 40.45C58.57 40.65 57.79 40.83 56.81 41C55.79 41.18 54.59 41.27 53.19 41.27C51.79 41.27 50.65 41.07 49.78 40.67C49.38 40.47 48.98 40.22 48.58 39.94C48.19 39.66 47.85 39.33 47.56 38.97C46.41 37.57 45.83 35.65 45.83 33.19C45.83 32.04 46.01 30.96 46.36 29.96C46.71 28.97 47.17 28.14 47.74 27.47C48.19 26.96 48.62 26.54 49.05 26.21C49.48 25.87 49.95 25.62 50.46 25.43C50.98 25.25 51.56 25.13 52.19 25.06C52.83 25 53.57 24.98 54.43 25C54.67 25 54.98 25.03 55.36 25.09C55.74 25.15 56.14 25.27 56.57 25.45C57.01 25.63 57.45 25.89 57.88 26.22C58.32 26.56 58.71 27 59.07 27.55C59.42 28.1 59.71 28.78 59.93 29.59C60.16 30.4 60.26 31.38 60.26 32.51C60.26 33.1 60.18 33.56 60 33.88C59.83 34.21 59.62 34.44 59.38 34.6C59.14 34.75 58.89 34.84 58.65 34.87C58.41 34.9 58.22 34.91 58.1 34.91H50.43C50.45 35.26 50.53 35.56 50.66 35.82C50.79 36.08 50.94 36.3 51.1 36.46C51.36 36.75 51.73 36.94 52.2 37.05C52.66 37.16 53.36 37.2 54.27 37.16L54.3 37.17ZM51.6 29.2C51.09 29.57 50.76 30.28 50.6 31.33H56.5C56.34 30.28 56 29.57 55.49 29.2C54.98 28.83 54.35 28.65 53.58 28.65H53.52C52.75 28.65 52.11 28.83 51.6 29.2ZM68.11 25.15C68.41 25.11 68.8 25.07 69.27 25.04C69.74 25.01 70.2 25 70.67 25H70.92C71.22 25 71.52 25 71.8 25.01C72.09 25.02 72.33 25.07 72.53 25.14C72.73 25.22 72.9 25.34 73.02 25.49C73.14 25.64 73.2 25.87 73.2 26.18C73.2 26.28 73.19 26.42 73.16 26.6C73.13 26.78 73.08 26.95 73.02 27.12L72.87 27.57C72.77 27.88 72.68 28.13 72.6 28.35C72.52 28.56 72.42 28.73 72.31 28.85C72.2 28.97 72.05 29.05 71.86 29.09C71.67 29.13 71.42 29.13 71.11 29.09C70.74 29.03 70.43 29 70.17 29C69.7 29 69.22 29.03 68.73 29.08C68.23 29.13 67.77 29.21 67.34 29.31V39.11C67.34 39.88 67.24 40.39 67.03 40.65C66.81 40.9 66.35 41.03 65.64 41.03H64.54C64.18 41.03 63.87 41.01 63.64 40.97C63.41 40.93 63.23 40.84 63.11 40.7C62.99 40.56 62.91 40.36 62.87 40.11C62.83 39.86 62.81 39.53 62.81 39.12L62.87 29.11H62.17C61.91 29.11 61.68 29.02 61.5 28.84C61.32 28.66 61.23 28.42 61.23 28.14V26.83C61.23 26.61 61.27 26.45 61.33 26.35C61.41 26.25 61.46 26.19 61.5 26.17C61.75 25.97 62.03 25.77 62.35 25.59C62.63 25.43 62.97 25.29 63.37 25.16C63.76 25.04 64.23 24.98 64.76 24.98C65.18 24.98 65.55 25.05 65.85 25.18C66.16 25.31 66.42 25.48 66.65 25.68C66.87 25.55 67.11 25.45 67.38 25.36C67.65 25.27 67.9 25.2 68.14 25.16L68.11 25.15ZM89.16 39.12C89.16 39.89 89.05 40.4 88.84 40.66C88.63 40.91 88.16 41.04 87.43 41.04H86.37C85.98 41.04 85.68 41.02 85.46 40.98C85.24 40.94 85.06 40.85 84.94 40.71C84.82 40.57 84.74 40.37 84.71 40.12C84.68 39.87 84.66 39.54 84.66 39.13L84.69 30.55C84.65 30.02 84.49 29.66 84.22 29.47C83.95 29.28 83.52 29.16 82.93 29.12C82.4 29.08 81.88 29.09 81.38 29.15C80.87 29.21 80.38 29.28 79.89 29.37V39.13C79.89 39.9 79.79 40.41 79.57 40.67C79.36 40.92 78.9 41.05 78.19 41.05H77.09C76.72 41.05 76.42 41.03 76.19 40.99C75.96 40.95 75.78 40.86 75.66 40.72C75.54 40.58 75.46 40.38 75.42 40.13C75.38 39.88 75.36 39.55 75.36 39.14L75.39 29.13H74.75C74.46 29.13 74.23 29.04 74.05 28.86C73.87 28.68 73.78 28.44 73.78 28.16V26.85C73.78 26.67 73.81 26.52 73.87 26.41C73.93 26.3 74 26.22 74.08 26.18C74.32 25.98 74.61 25.78 74.93 25.6C75.21 25.44 75.55 25.3 75.93 25.17C76.32 25.05 76.77 24.99 77.3 24.99C78.07 24.99 78.69 25.2 79.16 25.63C79.32 25.55 79.52 25.46 79.77 25.37C80.01 25.28 80.23 25.22 80.41 25.2C80.72 25.14 81.07 25.09 81.48 25.05C81.88 25.01 82.34 24.99 82.85 24.99C83.78 24.97 84.62 25.05 85.36 25.22C86.1 25.39 86.74 25.63 87.26 25.93C87.71 25.56 88.25 25.32 88.9 25.2C89.19 25.16 89.6 25.12 90.15 25.08C90.7 25.04 91.35 25.01 92.13 24.99C94.38 24.97 96.01 25.33 97 26.07C97.99 26.81 98.49 28.04 98.49 29.77V37.8H99.16C99.45 37.8 99.67 37.89 99.85 38.08C100.02 38.26 100.11 38.48 100.11 38.75V40C100.11 40.28 100.05 40.48 99.93 40.59C99.81 40.7 99.69 40.78 99.56 40.82L99.41 40.88H99.47C99.35 40.92 99.01 41.01 98.45 41.14C97.89 41.27 97.22 41.3 96.43 41.22C95.84 41.16 95.39 41.01 95.06 40.78C94.73 40.54 94.5 40.28 94.34 39.99C94.19 39.69 94.09 39.41 94.05 39.15C94.01 38.89 93.99 38.69 93.99 38.57V30.54C93.91 29.67 93.33 29.2 92.25 29.14C91.84 29.12 91.36 29.13 90.79 29.17C90.22 29.21 89.67 29.26 89.15 29.32C89.15 29.36 89.15 29.43 89.16 29.53C89.17 29.63 89.18 29.71 89.18 29.77V39.14L89.16 39.12ZM109.3 37.17C109.64 37.15 110.05 37.11 110.53 37.06C111 37.01 111.57 36.91 112.22 36.77C112.47 36.73 112.67 36.69 112.85 36.66C113.02 36.63 113.19 36.62 113.35 36.62C113.77 36.62 114.07 36.75 114.23 37.01C114.39 37.27 114.6 37.72 114.87 38.35C115.01 38.74 115.08 39.04 115.08 39.26C115.08 39.85 114.78 40.25 114.19 40.45C113.59 40.65 112.8 40.83 111.83 41C110.82 41.18 109.61 41.27 108.21 41.27C106.81 41.27 105.68 41.07 104.8 40.67C104.39 40.47 103.99 40.22 103.6 39.94C103.21 39.66 102.86 39.33 102.58 38.97C101.42 37.57 100.85 35.65 100.85 33.19C100.85 32.04 101.03 30.96 101.38 29.96C101.73 28.97 102.19 28.14 102.76 27.47C103.21 26.96 103.64 26.54 104.07 26.21C104.5 25.87 104.97 25.62 105.49 25.43C106.01 25.25 106.58 25.13 107.22 25.06C107.86 25 108.61 24.98 109.46 25C109.7 25 110.01 25.03 110.39 25.09C110.77 25.15 111.17 25.27 111.61 25.45C112.04 25.63 112.48 25.89 112.91 26.22C113.35 26.56 113.74 27 114.1 27.55C114.46 28.1 114.75 28.78 114.97 29.59C115.19 30.4 115.31 31.38 115.31 32.51C115.31 33.1 115.22 33.56 115.05 33.88C114.88 34.21 114.67 34.44 114.43 34.6C114.18 34.75 113.94 34.84 113.7 34.87C113.46 34.9 113.28 34.91 113.15 34.91H105.49C105.51 35.26 105.58 35.56 105.72 35.82C105.85 36.08 106 36.3 106.16 36.46C106.42 36.75 106.79 36.94 107.26 37.05C107.73 37.16 108.42 37.2 109.33 37.16L109.3 37.17ZM106.59 29.2C106.08 29.57 105.75 30.28 105.59 31.33H111.49C111.33 30.28 110.99 29.57 110.49 29.2C109.98 28.83 109.35 28.65 108.57 28.65H108.51C107.74 28.65 107.1 28.83 106.59 29.2ZM121.65 33.85C121.65 34.37 121.65 34.9 121.68 35.41C121.7 35.93 121.79 36.32 121.96 36.58C122.12 36.86 122.39 37.02 122.76 37.05C123.14 37.08 123.52 37.09 123.9 37.07L124.54 37.04C124.83 37.02 125.06 37.04 125.24 37.09C125.42 37.14 125.57 37.23 125.7 37.35C125.82 37.47 125.93 37.64 126.02 37.85C126.11 38.07 126.22 38.32 126.34 38.63L126.49 39.06C126.57 39.28 126.61 39.56 126.61 39.91C126.61 40.23 126.51 40.48 126.29 40.64C126.08 40.8 125.72 40.94 125.21 41.04C124.91 41.12 124.59 41.17 124.27 41.19C123.95 41.21 123.62 41.22 123.3 41.22C122.26 41.22 121.27 41.04 120.32 40.68C119.37 40.31 118.64 39.71 118.13 38.88C117.74 38.25 117.49 37.51 117.38 36.64C117.27 35.78 117.21 34.85 117.21 33.86L117.18 22.36C117.18 21.88 117.2 21.51 117.22 21.25C117.25 21 117.34 20.81 117.48 20.69C117.62 20.57 117.82 20.5 118.07 20.48C118.32 20.46 118.68 20.45 119.15 20.45H119.49C119.98 20.45 120.36 20.46 120.65 20.48C120.93 20.5 121.15 20.57 121.29 20.69C121.43 20.81 121.52 21 121.56 21.25C121.6 21.51 121.62 21.88 121.62 22.36V25.19H124.63C125.05 25.19 125.39 25.2 125.63 25.22C125.87 25.24 126.04 25.3 126.15 25.4C126.25 25.5 126.31 25.67 126.33 25.9C126.35 26.13 126.36 26.46 126.36 26.89V27.08C126.36 27.44 126.35 27.77 126.33 28.04C126.31 28.31 126.24 28.54 126.12 28.73C126 28.91 125.81 29.05 125.56 29.14C125.3 29.23 124.93 29.28 124.45 29.28H121.62L121.65 33.88V33.85ZM34.02 50.21C33.97 50.77 33.76 51.22 33.4 51.53C33.04 51.85 32.55 52 31.95 52C31.53 52 31.16 51.9 30.84 51.7C30.52 51.5 30.27 51.22 30.1 50.85C29.93 50.48 29.84 50.05 29.83 49.57V49.08C29.83 48.58 29.92 48.14 30.09 47.76C30.27 47.38 30.52 47.09 30.85 46.88C31.18 46.67 31.56 46.57 31.99 46.57C32.58 46.57 33.04 46.73 33.4 47.04C33.75 47.35 33.96 47.8 34.02 48.38H33.1C33.06 48 32.95 47.73 32.77 47.56C32.59 47.39 32.33 47.31 31.99 47.31C31.59 47.31 31.28 47.46 31.07 47.75C30.86 48.04 30.74 48.47 30.74 49.04V49.51C30.74 50.08 30.84 50.52 31.05 50.82C31.25 51.12 31.55 51.27 31.95 51.27C32.31 51.27 32.58 51.19 32.76 51.03C32.94 50.87 33.05 50.6 33.1 50.22H34.02V50.21ZM39.06 49.42C39.06 49.94 38.97 50.39 38.79 50.78C38.61 51.17 38.36 51.47 38.02 51.68C37.69 51.89 37.31 51.99 36.87 51.99C36.43 51.99 36.06 51.89 35.72 51.68C35.39 51.47 35.13 51.17 34.94 50.79C34.75 50.41 34.66 49.96 34.66 49.45V49.15C34.66 48.64 34.75 48.18 34.93 47.78C35.11 47.39 35.37 47.08 35.7 46.87C36.03 46.66 36.41 46.56 36.84 46.56C37.27 46.56 37.65 46.66 37.99 46.87C38.32 47.08 38.58 47.37 38.76 47.76C38.94 48.15 39.03 48.6 39.03 49.11V49.41L39.06 49.42ZM38.14 49.15C38.14 48.57 38.03 48.12 37.81 47.81C37.59 47.5 37.27 47.34 36.87 47.34C36.47 47.34 36.17 47.5 35.94 47.81C35.71 48.12 35.6 48.56 35.59 49.13V49.43C35.59 50.01 35.7 50.46 35.93 50.78C36.16 51.1 36.47 51.26 36.87 51.26C37.27 51.26 37.59 51.1 37.81 50.8C38.03 50.49 38.14 50.04 38.14 49.44V49.16V49.15ZM41.17 46.64L42.69 50.69L44.21 46.64H45.4V51.93H44.48V50.19L44.57 47.86L43.01 51.93H42.36L40.8 47.86L40.89 50.19V51.93H39.98V46.64H41.17ZM47.4 49.97V51.93H46.48V46.64H48.5C49.09 46.64 49.56 46.8 49.91 47.1C50.26 47.41 50.43 47.82 50.43 48.32C50.43 48.82 50.26 49.24 49.92 49.53C49.58 49.82 49.1 49.96 48.49 49.96H47.4V49.97ZM47.4 49.23H48.5C48.82 49.23 49.07 49.15 49.25 49C49.42 48.85 49.51 48.62 49.51 48.33C49.51 48.04 49.42 47.82 49.25 47.65C49.08 47.48 48.83 47.39 48.53 47.39H47.4V49.23ZM55.45 49.42C55.45 49.94 55.36 50.39 55.18 50.78C55 51.17 54.74 51.47 54.41 51.68C54.08 51.89 53.69 51.99 53.26 51.99C52.83 51.99 52.45 51.89 52.11 51.68C51.78 51.47 51.52 51.17 51.33 50.79C51.15 50.4 51.06 49.96 51.05 49.45V49.15C51.05 48.64 51.14 48.18 51.32 47.78C51.51 47.39 51.76 47.08 52.09 46.87C52.42 46.66 52.8 46.56 53.24 46.56C53.68 46.56 54.05 46.66 54.38 46.87C54.71 47.08 54.97 47.37 55.15 47.76C55.33 48.15 55.42 48.6 55.43 49.11V49.41L55.45 49.42ZM54.54 49.15C54.54 48.57 54.43 48.12 54.21 47.81C53.99 47.5 53.67 47.34 53.27 47.34C52.87 47.34 52.56 47.5 52.34 47.81C52.12 48.12 52 48.56 52 49.13V49.43C52 50.01 52.11 50.46 52.34 50.78C52.57 51.1 52.88 51.26 53.28 51.26C53.68 51.26 54 51.1 54.22 50.8C54.44 50.49 54.55 50.04 54.55 49.44V49.16L54.54 49.15ZM60.56 51.93H59.64L57.28 48.18V51.93H56.36V46.64H57.28L59.64 50.41V46.64H60.55V51.93H60.56ZM64.74 49.57H62.57V51.19H65.11V51.93H61.65V46.64H65.08V47.38H62.57V48.84H64.74V49.56V49.57ZM70.05 51.93H69.13L66.78 48.18V51.93H65.86V46.64H66.78L69.14 50.41V46.64H70.05V51.93ZM74.84 47.38H73.19V51.93H72.28V47.38H70.65V46.64H74.84V47.38ZM78.63 49.57H76.46V51.19H79V51.93H75.54V46.64H78.97V47.38H76.46V48.84H78.63V49.56V49.57ZM82.5 50.57C82.5 50.34 82.42 50.16 82.26 50.03C82.1 49.9 81.8 49.77 81.38 49.65C80.96 49.52 80.61 49.38 80.36 49.22C79.88 48.92 79.64 48.52 79.64 48.04C79.64 47.61 79.81 47.26 80.16 46.99C80.51 46.71 80.96 46.58 81.51 46.58C81.88 46.58 82.2 46.65 82.49 46.78C82.78 46.91 83 47.11 83.17 47.36C83.34 47.61 83.42 47.89 83.42 48.19H82.51C82.51 47.92 82.42 47.7 82.25 47.55C82.08 47.4 81.83 47.32 81.51 47.32C81.21 47.32 80.98 47.38 80.81 47.51C80.65 47.63 80.56 47.81 80.56 48.04C80.56 48.23 80.65 48.39 80.83 48.52C81.01 48.65 81.31 48.78 81.72 48.89C82.13 49.01 82.46 49.15 82.71 49.31C82.96 49.47 83.14 49.65 83.26 49.85C83.38 50.05 83.43 50.29 83.43 50.56C83.43 51 83.26 51.35 82.92 51.61C82.58 51.87 82.13 52 81.54 52C81.16 52 80.81 51.93 80.49 51.79C80.17 51.65 79.92 51.45 79.74 51.21C79.56 50.96 79.48 50.67 79.48 50.34H80.4C80.4 50.64 80.5 50.87 80.69 51.04C80.89 51.2 81.18 51.29 81.54 51.29C81.86 51.29 82.1 51.22 82.26 51.09C82.42 50.96 82.5 50.79 82.5 50.58V50.57ZM88.84 50.57C88.84 50.34 88.76 50.16 88.6 50.03C88.44 49.9 88.14 49.77 87.72 49.65C87.29 49.52 86.95 49.38 86.7 49.22C86.22 48.92 85.98 48.52 85.98 48.04C85.98 47.61 86.15 47.26 86.5 46.99C86.85 46.71 87.3 46.58 87.85 46.58C88.22 46.58 88.55 46.65 88.84 46.78C89.13 46.91 89.35 47.11 89.52 47.36C89.69 47.61 89.77 47.89 89.77 48.19H88.85C88.85 47.92 88.76 47.7 88.59 47.55C88.42 47.4 88.17 47.32 87.85 47.32C87.55 47.32 87.32 47.38 87.15 47.51C86.98 47.63 86.9 47.81 86.9 48.04C86.9 48.23 86.99 48.39 87.17 48.52C87.35 48.65 87.65 48.78 88.06 48.89C88.47 49.01 88.8 49.15 89.05 49.31C89.3 49.47 89.48 49.65 89.6 49.85C89.72 50.05 89.77 50.29 89.77 50.56C89.77 51 89.6 51.35 89.27 51.61C88.93 51.87 88.48 52 87.9 52C87.52 52 87.16 51.93 86.84 51.79C86.52 51.65 86.27 51.45 86.09 51.21C85.91 50.96 85.82 50.67 85.82 50.34H86.74C86.74 50.64 86.84 50.87 87.04 51.04C87.24 51.2 87.52 51.29 87.89 51.29C88.21 51.29 88.45 51.22 88.61 51.09C88.77 50.96 88.85 50.79 88.85 50.58L88.84 50.57ZM93.53 50.7H91.48L91.05 51.93H90.1L92.1 46.64H92.92L94.92 51.93H93.96L93.53 50.7ZM91.74 49.96H93.27L92.5 47.77L91.74 49.96ZM99.71 51.93H98.79L96.43 48.18V51.93H95.52V46.64H96.43L98.79 50.41V46.64H99.7V51.93H99.71ZM101.77 51.93H100.85V46.64H101.77V51.93ZM106.61 47.38H104.97V51.93H104.06V47.38H102.43V46.64H106.62V47.38H106.61ZM109.82 50.7H107.78L107.35 51.93H106.4L108.4 46.64H109.22L111.22 51.93H110.26L109.83 50.7H109.82ZM108.04 49.96H109.57L108.8 47.77L108.03 49.96H108.04ZM113.76 49.89H112.74V51.92H111.82V46.63H113.68C114.29 46.63 114.76 46.77 115.09 47.04C115.42 47.31 115.59 47.71 115.59 48.23C115.59 48.58 115.5 48.88 115.33 49.12C115.16 49.36 114.92 49.54 114.62 49.67L115.81 51.87V51.92H114.82L113.76 49.89ZM112.73 49.15H113.67C113.98 49.15 114.22 49.07 114.4 48.92C114.57 48.76 114.66 48.55 114.66 48.28C114.66 47.99 114.58 47.78 114.42 47.62C114.26 47.47 114.02 47.38 113.7 47.38H112.73V49.15ZM117.42 51.93H116.51V46.64H117.42V51.93ZM122.77 49.42C122.77 49.94 122.68 50.39 122.51 50.78C122.33 51.17 122.07 51.47 121.74 51.68C121.41 51.89 121.02 51.99 120.59 51.99C120.16 51.99 119.78 51.89 119.45 51.68C119.11 51.47 118.86 51.17 118.67 50.79C118.48 50.4 118.39 49.96 118.39 49.45V49.15C118.39 48.64 118.48 48.18 118.66 47.78C118.84 47.39 119.1 47.08 119.44 46.87C119.77 46.66 120.15 46.56 120.59 46.56C121.03 46.56 121.4 46.66 121.73 46.87C122.06 47.08 122.32 47.37 122.5 47.76C122.68 48.15 122.77 48.6 122.77 49.11V49.41V49.42ZM121.85 49.15C121.85 48.57 121.74 48.12 121.51 47.81C121.29 47.5 120.98 47.34 120.57 47.34C120.16 47.34 119.86 47.5 119.64 47.81C119.41 48.12 119.3 48.56 119.3 49.13V49.43C119.3 50.01 119.41 50.46 119.64 50.78C119.87 51.1 120.18 51.26 120.58 51.26C120.98 51.26 121.3 51.1 121.52 50.8C121.74 50.49 121.85 50.04 121.85 49.44V49.16V49.15ZM126.45 50.57C126.45 50.34 126.37 50.16 126.21 50.03C126.05 49.9 125.75 49.77 125.33 49.65C124.91 49.52 124.56 49.38 124.31 49.22C123.83 48.92 123.59 48.52 123.59 48.04C123.59 47.61 123.76 47.26 124.11 46.99C124.46 46.71 124.91 46.58 125.46 46.58C125.83 46.58 126.15 46.65 126.44 46.78C126.73 46.91 126.95 47.11 127.12 47.36C127.28 47.61 127.36 47.89 127.36 48.19H126.45C126.45 47.92 126.36 47.7 126.19 47.55C126.02 47.4 125.77 47.32 125.45 47.32C125.15 47.32 124.92 47.38 124.75 47.51C124.58 47.63 124.5 47.81 124.5 48.04C124.5 48.23 124.59 48.39 124.77 48.52C124.95 48.65 125.25 48.78 125.66 48.89C126.07 49.01 126.4 49.15 126.65 49.31C126.9 49.47 127.08 49.65 127.2 49.85C127.32 50.05 127.38 50.29 127.38 50.56C127.38 51 127.21 51.35 126.87 51.61C126.53 51.87 126.07 52 125.5 52C125.11 52 124.77 51.93 124.45 51.79C124.13 51.65 123.88 51.45 123.7 51.21C123.52 50.96 123.43 50.67 123.43 50.34H124.35C124.35 50.64 124.45 50.87 124.64 51.04C124.84 51.2 125.12 51.29 125.5 51.29C125.82 51.29 126.06 51.22 126.22 51.09C126.38 50.96 126.46 50.79 126.46 50.58L126.45 50.57ZM131.75 38.23C131.59 38.43 131.39 38.54 131.15 38.59L132 40.27H131.55L130.73 38.65H129.86V40.27H129.47V36.46H130.7C131.15 36.46 131.48 36.57 131.68 36.77C131.89 36.98 132 37.24 132 37.56C132 37.82 131.92 38.04 131.75 38.23ZM130.69 38.31C131.24 38.31 131.57 38.03 131.57 37.56C131.57 37.05 131.27 36.8 130.69 36.8H129.85V38.32H130.69V38.31ZM130.59 41.29C128.96 41.29 127.64 39.97 127.64 38.34C127.64 36.71 128.96 35.39 130.59 35.39C132.22 35.39 133.54 36.71 133.54 38.34C133.54 39.97 132.22 41.29 130.59 41.29ZM130.59 35.73C129.15 35.73 127.98 36.9 127.98 38.34C127.98 39.78 129.15 40.95 130.59 40.95C132.03 40.95 133.2 39.78 133.2 38.34C133.2 36.9 132.03 35.73 130.59 35.73Z" fill="white"/>
</g>
<defs>
<clipPath id="clip0_1784_118">
<rect width="134" height="52" fill="white"/>
</clipPath>
</defs>
</svg>
