<svg width="106" height="72" viewBox="0 0 106 72" fill="none" xmlns="http://www.w3.org/2000/svg">
<g clip-path="url(#clip0_858_313)">
<path d="M69.035 18.1001L66.3375 21.1001C64.839 22.7001 62.2414 22.9001 60.5431 21.4001L45.0578 8.20007C41.7609 5.40007 36.7657 5.60007 33.7686 8.60007L38.9636 2.90007C41.9608 -0.399931 47.1558 -0.699931 50.5526 2.20007L69.1349 18.0001L69.035 18.1001ZM75.8285 20.4001C79.2253 23.3001 84.4203 23.0001 87.4175 19.7001L95.5098 10.8001L92.8123 13.8001C89.8152 17.1001 84.6201 17.4001 81.2234 14.5001L65.7381 1.30007C64.0397 -0.199931 61.4422 6.87838e-05 59.9436 1.60007L57.2462 4.60007L75.8285 20.4001Z" fill="white"/>
<path d="M89.2151 5.8C90.7136 4.1 93.3112 4 95.0095 5.5L98.1066 8.1L92.9115 13.8C89.9144 17.1 84.7193 17.4 81.3226 14.5L89.2151 5.8ZM45.0571 8.2C41.7603 5.4 36.765 5.6 33.668 8.6L36.765 11.2C38.4634 12.7 41.0609 12.5 42.6594 10.9L45.0571 8.2Z" fill="#C6C6C6"/>
<path d="M60.1434 70.2996C59.7438 70.7996 59.2442 71.0996 58.6448 71.3996C57.9455 71.5996 57.2461 71.7996 56.4469 71.7996C55.6477 71.7996 54.8484 71.5996 54.1491 71.1996C53.4498 70.7996 52.9502 70.2996 52.6505 69.4996C52.2509 68.7996 52.151 67.8996 52.0511 66.9996V66.1996C52.0511 64.6996 52.4507 63.3996 53.15 62.5996C53.8494 61.7996 54.9483 61.2996 56.2471 61.2996C57.5459 61.2996 58.2452 61.5996 58.9445 62.0996C59.6439 62.6996 60.0435 63.4996 60.1434 64.4996H58.3451C58.1453 63.2996 57.446 62.6996 56.1472 62.6996C54.8484 62.6996 54.7485 62.9996 54.3489 63.4996C53.9493 63.9996 53.7495 64.8996 53.7495 65.9996V66.7996C53.7495 67.8996 53.9493 68.7996 54.4488 69.3996C54.9483 69.9996 55.5478 70.2996 56.347 70.2996C57.1462 70.2996 57.9455 70.0996 58.2452 69.6996V67.6996H56.1472V66.3996H60.0435V70.2996H60.1434ZM65.838 67.6996H63.8399V71.5996H62.0416V61.3996H65.6381C66.837 61.3996 67.7362 61.6996 68.3356 62.1996C68.935 62.6996 69.3346 63.4996 69.3346 64.4996C69.3346 65.4996 69.1348 65.7996 68.8351 66.1996C68.5354 66.5996 68.0359 66.9996 67.4364 67.2996L69.7342 71.5996H67.8361L65.7381 67.6996H65.838ZM63.8399 66.1996H65.6381C66.2376 66.1996 66.7371 65.9996 67.0368 65.7996C67.3365 65.4996 67.5363 65.0996 67.5363 64.5996C67.5363 64.0996 67.3365 63.5996 67.0368 63.2996C66.7371 62.9996 66.2376 62.7996 65.6381 62.7996H63.74V66.1996H63.8399ZM79.2252 66.7996C79.2252 67.7996 79.0254 68.6996 78.7257 69.3996C78.426 70.0996 77.9264 70.6996 77.2271 71.0996C76.5278 71.4996 75.8284 71.6996 75.0292 71.6996C74.23 71.6996 73.4307 71.4996 72.8313 71.0996C72.132 70.6996 71.6324 70.0996 71.3327 69.3996C71.033 68.6996 70.8332 67.7996 70.8332 66.7996V66.1996C70.8332 65.1996 71.033 64.2996 71.3327 63.5996C71.6324 62.7996 72.132 62.2996 72.8313 61.7996C73.4307 61.3996 74.23 61.1996 75.0292 61.1996C75.8284 61.1996 76.6277 61.3996 77.2271 61.7996C77.8265 62.1996 78.3261 62.7996 78.7257 63.4996C79.0254 64.2996 79.2252 65.0996 79.2252 66.0996V66.6996V66.7996ZM77.4269 66.1996C77.4269 65.0996 77.2271 64.1996 76.8275 63.5996C76.4279 62.9996 75.8284 62.6996 75.0292 62.6996C74.23 62.6996 73.6305 62.9996 73.2309 63.5996C72.8313 64.1996 72.5316 64.9996 72.5316 66.1996V66.7996C72.5316 67.8996 72.7314 68.7996 73.2309 69.3996C73.6305 69.9996 74.3299 70.2996 75.0292 70.2996C75.7285 70.2996 76.4279 69.9996 76.8275 69.3996C77.2271 68.7996 77.4269 67.8996 77.4269 66.7996V66.2996V66.1996ZM88.4165 61.3996V68.1996C88.4165 69.2996 88.1167 70.0996 87.4174 70.7996C86.7181 71.3996 85.8189 71.7996 84.6201 71.7996C83.4212 71.7996 82.5221 71.4996 81.8227 70.8996C81.1234 70.2996 80.8237 69.3996 80.8237 68.2996V61.4996H82.622V68.2996C82.622 68.9996 82.8218 69.4996 83.1215 69.8996C83.4212 70.2996 84.0206 70.3996 84.6201 70.3996C86.0187 70.3996 86.7181 69.6996 86.7181 68.1996V61.3996H88.5164H88.4165ZM92.1129 67.7996V71.5996H90.3147V61.3996H94.2109C95.3099 61.3996 96.3089 61.6996 96.9084 62.2996C97.5078 62.8996 97.9074 63.6996 97.9074 64.6996C97.9074 65.6996 97.6077 66.4996 96.9084 66.9996C96.209 67.5996 95.3099 67.7996 94.111 67.7996H92.013H92.1129ZM92.1129 66.3996H94.2109C94.8104 66.3996 95.3099 66.1996 95.6096 65.9996C95.9093 65.6996 96.1091 65.2996 96.1091 64.6996C96.1091 64.0996 95.9093 63.6996 95.6096 63.3996C95.3099 63.0996 94.8104 62.8996 94.2109 62.8996H92.013V66.4996L92.1129 66.3996ZM103.302 52.8996C103.102 53.0996 102.903 53.1996 102.703 53.2996L103.602 55.0996H103.102L102.203 53.3996H101.304V55.0996H100.905V51.0996H102.203C102.703 51.0996 103.003 51.1996 103.202 51.3996C103.402 51.5996 103.502 51.8996 103.502 52.1996C103.502 52.4996 103.502 52.6996 103.202 52.8996H103.302ZM102.203 52.9996C102.803 52.9996 103.102 52.6996 103.102 52.1996C103.102 51.6996 102.803 51.3996 102.203 51.3996H101.304V52.9996H102.203ZM21.9797 51.4996C22.3793 51.4996 22.6791 51.5996 22.8789 51.7996C23.0787 51.9996 23.2785 52.2996 23.2785 52.6996V54.3996C23.2785 54.7996 23.1786 54.9996 22.8789 55.1996C22.6791 55.3996 22.3793 55.4996 22.0796 55.6996C21.9797 55.6996 21.5801 55.7996 20.8808 55.8996C20.1814 55.9996 19.3822 55.9996 18.3831 55.8996C17.484 55.8996 16.6848 55.5996 16.1852 55.1996C15.5858 55.5996 14.9864 55.7996 14.387 55.9996C13.7875 56.1996 12.9883 56.1996 12.0891 56.1996H11.7894C8.79228 56.1996 6.59438 55.6996 5.19571 54.6996C3.89695 53.6996 3.19761 51.9996 3.19761 49.6996V39.5996H2.29847C1.89885 39.5996 1.59913 39.4996 1.39932 39.1996C1.19951 38.9996 1.09961 38.5996 1.09961 38.1996V36.3996C1.09961 36.0996 1.09961 35.8996 1.19951 35.6996C1.29942 35.4996 1.39932 35.4996 1.39932 35.4996C1.69904 35.1996 2.09866 34.9996 2.59818 34.6996C2.9978 34.4996 3.49733 34.2996 3.99685 34.0996C4.49637 33.8996 5.19571 33.8996 5.89504 33.8996C6.59438 33.8996 6.89409 33.8996 7.29371 34.0996C7.69333 34.2996 8.09295 34.4996 8.39266 34.6996C8.69238 34.9996 8.89219 35.2996 9.092 35.5996C9.1919 35.8996 9.39171 36.1996 9.39171 36.4996V48.4996C9.39171 49.1996 9.59152 49.6996 9.99114 49.8996C10.3908 50.0996 10.9902 50.2996 11.7894 50.3996C12.4888 50.3996 13.0882 50.3996 13.5877 50.3996C14.0872 50.3996 14.5868 50.2996 15.1862 50.0996V36.6996C15.1862 35.6996 15.2861 34.9996 15.5858 34.5996C15.8855 34.2996 16.485 34.0996 17.484 34.0996H18.9826C19.4821 34.0996 19.8817 34.0996 20.1814 34.0996C20.4812 34.0996 20.681 34.2996 20.8808 34.4996C21.0806 34.6996 21.1805 34.8996 21.1805 35.2996C21.1805 35.5996 21.1805 36.0996 21.1805 36.5996V43.0996V51.1996H22.0796L21.9797 51.4996ZM25.0768 39.6996C24.6772 39.6996 24.3774 39.5996 24.1776 39.2996C23.9778 38.9996 23.778 38.6996 23.778 38.2996V36.4996C23.778 36.3996 23.778 36.1996 23.778 36.0996C23.778 35.8996 23.8779 35.7996 24.0777 35.5996C24.3774 35.2996 24.7771 35.0996 25.2766 34.7996C25.6762 34.5996 26.1757 34.3996 26.6753 34.1996C27.1748 33.9996 27.8741 33.9996 28.5734 33.9996C29.5725 33.9996 30.4716 34.2996 31.0711 34.8996C31.2709 34.7996 31.5706 34.5996 31.9702 34.5996C32.2699 34.5996 32.5696 34.3996 32.8694 34.3996C33.269 34.3996 33.7685 34.1996 34.3679 34.1996C34.9674 34.1996 35.5668 34.1996 36.2661 34.1996C39.3632 34.1996 41.5611 34.5996 42.9597 35.6996C44.3584 36.6996 44.9578 38.3996 44.9578 40.6996V51.5996H45.857C46.2566 51.5996 46.5563 51.6996 46.856 51.9996C47.0558 52.1996 47.2557 52.4996 47.2557 52.8996V54.5996C47.2557 54.9996 47.1558 55.1996 46.856 55.3996C46.6562 55.5996 46.3565 55.6996 45.9569 55.8996C45.857 55.8996 45.4574 56.0996 44.758 56.1996C44.0587 56.2996 43.2595 56.3996 42.1605 56.1996C41.3613 56.1996 40.7618 55.8996 40.3622 55.5996C39.9626 55.2996 39.563 54.8996 39.3632 54.4996C39.1634 54.0996 38.9636 53.6996 38.9636 53.3996C38.9636 52.9996 38.9636 52.7996 38.9636 52.5996V41.6996C38.9636 40.9996 38.7637 40.4996 38.3641 40.1996C37.9645 39.8996 37.3651 39.7996 36.5658 39.6996C35.8665 39.6996 35.0673 39.6996 34.3679 39.6996C33.6686 39.6996 32.9693 39.8996 32.2699 39.9996V53.2996C32.2699 54.2996 32.17 55.0996 31.8703 55.3996C31.5706 55.6996 30.9712 55.8996 29.9721 55.8996H28.4735C27.974 55.8996 27.5744 55.8996 27.2747 55.8996C26.975 55.8996 26.7752 55.6996 26.5753 55.4996C26.3755 55.2996 26.2756 54.9996 26.2756 54.6996C26.2756 54.3996 26.2756 53.8996 26.2756 53.3996V43.3996V39.7996H25.3765L25.0768 39.6996ZM55.5478 54.4996C55.5478 54.7996 55.3479 55.0996 55.1481 55.2996C54.9483 55.4996 54.6486 55.5996 54.249 55.5996C53.8494 55.5996 53.3498 55.5996 52.7504 55.5996H52.2509C51.6515 55.5996 51.1519 55.5996 50.7523 55.5996C50.4526 55.5996 50.1529 55.4996 49.9531 55.2996C49.7533 55.0996 49.6534 54.8996 49.6534 54.4996C49.6534 54.1996 49.6534 53.6996 49.6534 52.9996V39.3996H48.6543C48.2547 39.3996 47.955 39.2996 47.7552 38.9996C47.5554 38.7996 47.3556 38.3996 47.3556 37.9996V36.1996C47.3556 35.7996 47.4555 35.3996 47.7552 35.1996C48.0549 34.8996 48.4545 34.6996 48.954 34.3996C49.3537 34.1996 49.7533 33.9996 50.3527 33.8996C50.8522 33.6996 51.5516 33.6996 52.2509 33.6996C52.9502 33.6996 53.2499 33.6996 53.7495 33.9996C54.249 34.2996 54.5487 34.3996 54.8484 34.6996C55.1481 34.9996 55.3479 35.2996 55.5478 35.5996C55.7476 35.8996 55.7476 36.2996 55.7476 36.5996V52.9996C55.7476 53.6996 55.7476 54.1996 55.7476 54.4996H55.5478ZM49.5535 26.6996C49.5535 26.2996 49.7533 26.0996 49.9531 25.8996C50.1529 25.6996 50.4526 25.5996 50.8522 25.5996C51.2519 25.5996 51.7514 25.5996 52.3508 25.5996C52.9502 25.5996 53.6496 25.5996 54.0492 25.5996C54.4488 25.5996 54.7485 25.6996 55.0482 25.8996C55.248 26.0996 55.3479 26.2996 55.4479 26.6996C55.4479 27.0996 55.4479 27.5996 55.4479 28.2996V28.8996C55.4479 29.5996 55.4479 30.0996 55.4479 30.3996C55.4479 30.7996 55.248 30.9996 55.0482 31.1996C54.8484 31.3996 54.5487 31.4996 54.1491 31.4996C53.7495 31.4996 53.2499 31.4996 52.5506 31.4996C51.8513 31.4996 51.2519 31.4996 50.8522 31.4996C50.4526 31.4996 50.1529 31.3996 49.9531 31.1996C49.7533 30.9996 49.6534 30.7996 49.5535 30.3996C49.5535 29.9996 49.5535 29.4996 49.5535 28.7996V28.1996C49.5535 27.4996 49.5535 26.9996 49.5535 26.6996ZM65.1386 39.9996L70.7333 34.2996C71.033 33.9996 71.3327 33.6996 71.6324 33.4996C71.9322 33.2996 72.3318 33.1996 72.6315 33.1996C72.9312 33.1996 73.3308 33.1996 73.5306 33.3996C73.7304 33.5996 74.0302 33.6996 74.3299 33.9996L74.6296 34.1996L75.0292 34.5996C75.4288 34.8996 75.7285 35.1996 75.9283 35.3996C76.1282 35.5996 76.2281 35.9996 76.2281 36.3996C76.2281 36.7996 76.2281 37.0996 76.0282 37.3996C75.8284 37.6996 75.6286 37.9996 75.229 38.2996L70.4336 43.1996L75.6286 51.6996H76.8275C77.2271 51.6996 77.5268 51.7996 77.7266 52.0996C77.9264 52.3996 78.0263 52.5996 78.0263 52.9996V54.6996C78.0263 54.8996 78.0264 55.1996 77.7266 55.3996C77.5268 55.5996 77.2271 55.7996 76.9274 55.8996C76.7276 55.8996 76.328 55.9996 75.6286 56.1996C74.9293 56.3996 74.23 56.3996 73.4307 56.3996C72.6315 56.3996 72.2319 56.1996 71.6324 55.8996C71.033 55.5996 70.6334 55.1996 70.3337 54.6996L66.0378 47.5996L65.2385 48.3996V53.4996C65.2385 54.4996 65.1386 55.2996 64.8389 55.5996C64.5392 55.8996 63.9398 56.0996 62.9407 56.0996H61.4421C60.9426 56.0996 60.543 56.0996 60.2433 56.0996C59.9436 56.0996 59.7438 55.8996 59.5439 55.6996C59.3441 55.4996 59.2442 55.1996 59.2442 54.8996C59.2442 54.5996 59.2442 54.0996 59.2442 53.5996V28.4996C59.2442 27.8996 59.2442 27.3996 59.2442 26.9996C59.2442 26.6996 59.444 26.3996 59.6439 26.1996C59.8437 25.9996 60.1434 25.8996 60.543 25.8996C60.9426 25.8996 61.4421 25.8996 62.0416 25.8996H62.4412C63.0406 25.8996 63.5401 25.8996 63.9398 25.8996C64.3394 25.8996 64.6391 25.9996 64.739 26.1996C64.9388 26.3996 65.0387 26.5996 65.0387 26.9996C65.0387 27.3996 65.0387 27.7996 65.0387 28.4996V40.2996L65.1386 39.9996ZM90.0149 50.6996C90.5145 50.6996 91.014 50.6996 91.7133 50.4996C92.4127 50.4996 93.112 50.2996 94.0111 50.0996C94.3108 50.0996 94.6106 50.0996 94.8104 49.9996C95.0102 49.9996 95.3099 49.9996 95.5097 49.9996C96.1091 49.9996 96.5088 50.1996 96.7086 50.4996C96.9084 50.8996 97.2081 51.4996 97.6077 52.2996C97.8075 52.7996 97.9074 53.1996 97.9074 53.4996C97.9074 54.2996 97.5078 54.7996 96.7086 55.0996C95.9093 55.3996 94.8104 55.5996 93.5116 55.7996C92.1129 55.9996 90.5145 56.1996 88.6163 56.1996C86.7181 56.1996 85.2195 55.8996 84.0206 55.3996C83.4212 55.0996 82.9217 54.7996 82.4222 54.3996C81.9226 53.9996 81.4231 53.5996 81.0235 53.0996C79.425 51.1996 78.6258 48.5996 78.6258 45.1996C78.6258 41.7996 78.8256 42.1996 79.3251 40.7996C79.8246 39.3996 80.4241 38.2996 81.2233 37.3996C81.8227 36.6996 82.4222 36.0996 83.0216 35.6996C83.621 35.1996 84.2205 34.8996 84.9198 34.5996C85.6191 34.3996 86.4184 34.1996 87.3175 34.0996C88.2166 34.0996 89.2157 33.9996 90.3147 34.0996C90.6144 34.0996 91.1139 34.0996 91.6134 34.1996C92.1129 34.1996 92.7124 34.3996 93.3118 34.6996C93.9112 34.8996 94.5106 35.2996 95.1101 35.7996C95.7095 36.2996 96.209 36.7996 96.7086 37.5996C97.2081 38.2996 97.6077 39.2996 97.9074 40.3996C98.2071 41.4996 98.4069 42.7996 98.4069 44.3996C98.4069 45.9996 98.307 45.7996 98.1072 46.2996C97.9074 46.6996 97.6077 47.0996 97.308 47.2996C97.0083 47.4996 96.6087 47.5996 96.3089 47.6996C96.0092 47.6996 95.7095 47.6996 95.5097 47.6996H85.1196C85.1196 48.1996 85.2195 48.5996 85.4193 48.8996C85.6191 49.1996 85.8189 49.5996 86.0187 49.7996C86.4184 50.1996 86.9179 50.4996 87.5173 50.5996C88.1167 50.7996 89.1158 50.7996 90.3147 50.7996L90.0149 50.6996ZM86.3185 39.7996C85.6191 40.2996 85.2195 41.2996 84.9198 42.6996H92.9122C92.7124 41.2996 92.2128 40.2996 91.5135 39.7996C90.8142 39.2996 89.915 38.9996 88.916 38.9996C87.817 38.9996 87.0178 39.1996 86.3185 39.7996ZM102.103 56.2996C100.405 56.2996 99.0064 54.8996 99.0064 53.1996C99.0064 51.4996 100.405 50.0996 102.103 50.0996C103.802 50.0996 105.2 51.4996 105.2 53.1996C105.2 54.8996 103.802 56.2996 102.103 56.2996ZM102.103 50.4996C100.605 50.4996 99.3061 51.6996 99.3061 53.2996C99.3061 54.8996 100.505 56.0996 102.103 56.0996C103.702 56.0996 104.901 54.8996 104.901 53.2996C104.901 51.6996 103.702 50.4996 102.103 50.4996Z" fill="white"/>
</g>
<defs>
<clipPath id="clip0_858_313">
<rect width="105" height="72" fill="white" transform="translate(0.5)"/>
</clipPath>
</defs>
</svg>
