<svg width="113" height="44" viewBox="0 0 113 44" fill="none" xmlns="http://www.w3.org/2000/svg">
<g clip-path="url(#clip0_1785_123)">
<path d="M88.6644 11.1185L86.9747 12.9546C86.0321 13.9785 84.3934 14.0715 83.315 13.1577L73.6351 4.94155C71.5548 3.18155 68.4385 3.30847 66.5365 5.17847C66.5365 5.17847 66.5365 5.17847 66.5365 5.17001L69.7631 1.65847C71.6397 -0.380762 74.9003 -0.566915 77.04 1.25232L88.6729 11.1185H88.6644ZM92.9354 12.54C95.0752 14.3592 98.3358 14.1731 100.212 12.1254L105.307 6.57462L103.609 8.4277C101.732 10.4754 98.4801 10.6531 96.3319 8.84232L86.652 0.626162C85.5736 -0.287685 83.9348 -0.194608 82.9923 0.829239L81.3026 2.66539L92.9354 12.5315V12.54Z" fill="#005CB9"/>
<path d="M96.3319 8.84228C98.4717 10.6615 101.732 10.4754 103.609 8.42766L106.895 4.85689L104.967 3.22382C103.889 2.30997 102.25 2.40305 101.308 3.42689L96.3319 8.84228Z" fill="#005CB9"/>
<path d="M73.6436 4.95005C71.5633 3.18158 68.43 3.30851 66.528 5.18697L68.464 6.81158C69.5424 7.72543 71.1896 7.63235 72.1322 6.60851L73.6606 4.94158" fill="#005CB9"/>
<g style="mix-blend-mode:multiply">
<path d="M101.308 3.42689C102.25 2.40305 103.889 2.30997 104.967 3.22382L106.895 4.85689L103.609 8.42766C101.732 10.4754 98.4801 10.653 96.3319 8.84228L101.308 3.42689ZM73.6436 4.94997C71.5633 3.18151 68.43 3.30843 66.528 5.18689L68.464 6.81151C69.5424 7.72536 71.1896 7.63228 72.1322 6.60843L73.6606 4.94151" fill="#9C9B9B"/>
</g>
<path d="M5.86737 21.2808C6.1221 21.247 6.45325 21.2131 6.85234 21.1877C7.24293 21.1623 7.64201 21.1539 8.0411 21.1539H8.24488C8.49962 21.1539 8.75435 21.1539 8.9921 21.1623C9.22985 21.1708 9.44213 21.2131 9.61196 21.2723C9.78178 21.34 9.92613 21.4416 10.028 21.5685C10.1299 21.6954 10.1809 21.89 10.1809 22.1523C10.1809 22.237 10.1724 22.3554 10.1469 22.5077C10.1214 22.66 10.079 22.8039 10.028 22.9477L9.90065 23.3285C9.81574 23.5908 9.73932 23.8023 9.67139 23.9885C9.60347 24.1662 9.51855 24.31 9.42515 24.4116C9.33175 24.5131 9.20438 24.5808 9.04305 24.6146C8.88172 24.6485 8.66944 24.6485 8.40621 24.6146C8.09204 24.5639 7.82882 24.5385 7.60805 24.5385C7.20896 24.5385 6.80139 24.5639 6.38532 24.6062C5.96077 24.6485 5.57018 24.7162 5.20506 24.8008V33.0931C5.20506 33.7446 5.11165 34.1762 4.93334 34.3962C4.75503 34.6077 4.35594 34.7177 3.75307 34.7177H2.82754C2.52186 34.7177 2.25863 34.7008 2.06334 34.667C1.86804 34.6331 1.7152 34.557 1.61331 34.4385C1.51141 34.32 1.44349 34.1508 1.40103 33.9393C1.36707 33.7277 1.35008 33.4485 1.35008 33.1016L1.40103 24.6316H0.80665C0.585881 24.6316 0.390585 24.5554 0.237744 24.4031C0.0849041 24.2508 0.00848389 24.0477 0.00848389 23.8108V22.7023C0.00848389 22.5162 0.0339573 22.3808 0.101886 22.2962C0.161324 22.2116 0.20378 22.1608 0.246236 22.1439C0.450023 21.9746 0.696266 21.8054 0.967982 21.6531C1.20573 21.5177 1.49443 21.3993 1.83408 21.2893C2.16523 21.1877 2.56432 21.137 3.01435 21.137C3.37097 21.137 3.68514 21.1962 3.93988 21.3062C4.2031 21.4162 4.42387 21.56 4.61068 21.7293C4.79748 21.6193 5.00127 21.5346 5.23053 21.4585C5.4513 21.3823 5.67207 21.3231 5.87586 21.2893L5.86737 21.2808ZM15.9633 34.87C15.4623 34.8362 14.9784 34.76 14.5028 34.6246C14.0273 34.4977 13.6113 34.3454 13.2547 34.1762C12.2782 33.7362 11.5055 33.0085 10.9451 32.0016C10.3846 30.9946 10.1044 29.81 10.1044 28.4393V28.0416C10.1044 27.8893 10.1044 27.7623 10.1299 27.6439V27.6693C10.1978 26.6877 10.3846 25.7908 10.6818 24.9531C10.979 24.1239 11.4206 23.4131 11.998 22.8293C12.5754 22.2454 13.2886 21.8054 14.1547 21.5008C15.0208 21.2046 16.0313 21.0862 17.203 21.1539C18.2559 21.2216 19.156 21.4585 19.9117 21.8562C20.6674 22.2623 21.2958 22.8039 21.7882 23.4808C22.2807 24.1577 22.6289 24.9446 22.8496 25.8331C23.0619 26.7216 23.1553 27.6946 23.1213 28.7439C23.0449 30.6477 22.4845 32.1539 21.4146 33.2539C20.3447 34.3539 18.7824 34.9039 16.7105 34.9039H16.32C16.2011 34.9039 16.0822 34.8954 15.9633 34.87ZM16.6341 31.4008C17.5087 31.4008 18.1795 31.13 18.638 30.6054C19.0881 30.0723 19.3343 29.3446 19.3683 28.4139C19.4022 27.4154 19.2154 26.5777 18.8079 25.9008C18.4003 25.2239 17.7465 24.8516 16.8294 24.7839C16.3284 24.75 15.8954 24.8093 15.5388 24.9446C15.1736 25.097 14.868 25.3085 14.6217 25.5877C14.3755 25.8754 14.1802 26.2054 14.0358 26.6031C13.9 27.0008 13.8236 27.4323 13.7981 27.9146V27.8893V28.2785C13.7981 28.93 13.9255 29.497 14.1632 29.9793C14.401 30.4616 14.7321 30.8085 15.1482 31.037C15.301 31.1216 15.4793 31.1977 15.6661 31.257C15.8614 31.3162 16.0737 31.367 16.3115 31.4008H16.6256H16.6341ZM25.4055 34.667C25.2102 34.6331 25.0573 34.557 24.9554 34.4385C24.8535 34.32 24.7856 34.1508 24.7432 33.9393C24.7092 33.7277 24.6922 33.4485 24.6922 33.1016V16.1616C24.6922 15.7639 24.7177 15.4593 24.7516 15.2477C24.7941 15.0362 24.8875 14.8754 25.0234 14.7739C25.1592 14.6723 25.3545 14.6131 25.6008 14.5962C25.8555 14.5793 26.1697 14.5708 26.5688 14.5708H26.8235C27.2056 14.5708 27.5028 14.5793 27.7235 14.5962C27.9443 14.6131 28.1226 14.6723 28.2415 14.7739C28.3604 14.8754 28.4368 15.0362 28.4623 15.2477C28.4877 15.4677 28.5047 15.7723 28.5047 16.1616L28.5302 21.3823C28.6151 21.3485 28.6915 21.3316 28.751 21.3316C28.8104 21.3316 28.8868 21.3316 28.9717 21.3062C29.2095 21.2554 29.5152 21.2131 29.8888 21.1793C30.2624 21.1454 30.6869 21.1285 31.1709 21.1285C33.0645 21.0946 34.44 21.3908 35.2891 22.0339C36.1383 22.6685 36.5713 23.7177 36.5713 25.1731V31.9677H37.1402C37.361 31.9677 37.5563 32.0439 37.7091 32.2046C37.862 32.357 37.9384 32.5431 37.9384 32.7716V33.8293C37.9384 33.9646 37.8874 34.1085 37.794 34.2523C37.7006 34.3962 37.5478 34.5062 37.344 34.5739H37.3695C37.2846 34.6077 37.0044 34.6839 36.5289 34.7939C36.0533 34.9039 35.4844 34.9293 34.8136 34.8616C34.3127 34.8108 33.9221 34.6839 33.6504 34.4893C33.3701 34.2862 33.1749 34.0662 33.0475 33.8208C32.9201 33.567 32.8352 33.33 32.8012 33.11C32.7673 32.89 32.7503 32.7208 32.7503 32.6193V25.85C32.7163 25.4185 32.5805 25.1223 32.3512 24.9446C32.122 24.7754 31.7653 24.6739 31.2813 24.6316C30.8143 24.5977 30.3473 24.6062 29.8803 24.657C29.4048 24.7077 28.9548 24.767 28.5217 24.8431V33.1016C28.5217 33.7531 28.4368 34.1846 28.267 34.4046C28.0887 34.6162 27.6981 34.7262 27.0782 34.7262H26.1697C25.8555 34.7262 25.6008 34.7093 25.4055 34.6754V34.667ZM45.7163 31.4516C46.005 31.4346 46.3616 31.4008 46.7607 31.3585C47.1682 31.3162 47.6437 31.2316 48.1957 31.1131C48.3995 31.0793 48.5778 31.0454 48.7221 31.02C48.8665 30.9946 49.0108 30.9862 49.1467 30.9862C49.5118 30.9862 49.758 31.0962 49.8939 31.3162C50.0298 31.5362 50.2081 31.917 50.4373 32.45C50.5562 32.78 50.6156 33.0339 50.6156 33.22C50.6156 33.7193 50.3609 34.0577 49.8514 34.227C49.342 34.3962 48.6797 34.5485 47.8475 34.6923C46.9814 34.8446 45.9625 34.9208 44.7737 34.9208C43.585 34.9208 42.617 34.7516 41.8783 34.4131C41.5386 34.2439 41.199 34.0323 40.8593 33.7954C40.5282 33.5585 40.2395 33.2793 39.9932 32.9746C39.0168 31.79 38.5243 30.1654 38.5243 28.0839C38.5243 27.1108 38.6771 26.197 38.9743 25.3508C39.2715 24.5131 39.6621 23.8108 40.1461 23.2439C40.5282 22.8123 40.8933 22.457 41.2584 22.1777C41.6235 21.89 42.0226 21.6785 42.4557 21.5177C42.8972 21.3654 43.3897 21.2639 43.9246 21.2046C44.4681 21.1539 45.0964 21.137 45.8266 21.1539C46.0304 21.1539 46.2937 21.1793 46.6163 21.23C46.939 21.2808 47.2786 21.3823 47.6437 21.5346C48.0174 21.687 48.391 21.907 48.7561 22.1862C49.1297 22.4739 49.4608 22.8462 49.7665 23.3116C50.0637 23.777 50.31 24.3523 50.4968 25.0377C50.6921 25.7231 50.777 26.5523 50.777 27.5085C50.777 28.0077 50.709 28.397 50.5562 28.6677C50.4119 28.947 50.2335 29.1416 50.0298 29.277C49.826 29.4039 49.6137 29.48 49.4099 29.5054C49.2061 29.5308 49.0448 29.5393 48.9429 29.5393H42.4302C42.4472 29.8354 42.5151 30.0893 42.6255 30.3093C42.7359 30.5293 42.8632 30.7154 42.9991 30.8508C43.2199 31.0962 43.534 31.257 43.9331 31.35C44.3237 31.4431 44.9181 31.477 45.6908 31.4431L45.7163 31.4516ZM43.4152 24.7077C42.9821 25.0208 42.7019 25.6216 42.566 26.51H47.5758C47.44 25.6216 47.1513 25.0208 46.7182 24.7077C46.2852 24.3946 45.7502 24.2423 45.0964 24.2423H45.0455C44.3916 24.2423 43.8482 24.3946 43.4152 24.7077ZM57.4425 21.2808C57.6972 21.247 58.0284 21.2131 58.4275 21.1877C58.8266 21.1623 59.2172 21.1539 59.6162 21.1539H59.8285C60.0833 21.1539 60.338 21.1539 60.5757 21.1623C60.822 21.1708 61.0258 21.2131 61.1956 21.2723C61.3654 21.34 61.5098 21.4416 61.6117 21.5685C61.7135 21.6954 61.7645 21.89 61.7645 22.1523C61.7645 22.237 61.756 22.3554 61.7305 22.5077C61.7051 22.66 61.6626 22.8039 61.6117 22.9477L61.4843 23.3285C61.3994 23.5908 61.323 23.8023 61.255 23.9885C61.1871 24.1662 61.1022 24.31 61.0088 24.4116C60.9154 24.5131 60.788 24.5808 60.6267 24.6146C60.4654 24.6485 60.2531 24.6485 59.9898 24.6146C59.6757 24.5639 59.4125 24.5385 59.1917 24.5385C58.7926 24.5385 58.385 24.5639 57.969 24.6062C57.5444 24.6485 57.1538 24.7162 56.7887 24.8008V33.0931C56.7887 33.7446 56.7038 34.1762 56.5255 34.3962C56.3387 34.6077 55.9481 34.7177 55.3452 34.7177H54.4112C54.1055 34.7177 53.8423 34.7008 53.647 34.667C53.4517 34.6331 53.2988 34.557 53.1969 34.4385C53.0951 34.32 53.0271 34.1508 52.9932 33.9393C52.9592 33.7277 52.9422 33.4485 52.9422 33.1016L52.9932 24.6316H52.3988C52.178 24.6316 51.9827 24.5554 51.8299 24.4031C51.677 24.2508 51.6006 24.0477 51.6006 23.8108V22.7023C51.6006 22.5162 51.6346 22.3808 51.6855 22.2962C51.7535 22.2116 51.7959 22.1608 51.8299 22.1439C52.0422 21.9746 52.2799 21.8054 52.5516 21.6531C52.7894 21.5177 53.0781 21.3993 53.4177 21.2893C53.7489 21.1877 54.148 21.137 54.598 21.137C54.9546 21.137 55.2688 21.1962 55.5235 21.3062C55.7867 21.4162 56.0075 21.56 56.2028 21.7293C56.3896 21.6193 56.5934 21.5346 56.8227 21.4585C57.0519 21.3823 57.2642 21.3231 57.468 21.2893L57.4425 21.2808ZM75.3163 33.1016C75.3163 33.7531 75.2229 34.1846 75.0446 34.4046C74.8663 34.6162 74.4672 34.7262 73.8474 34.7262H72.9473C72.6162 34.7262 72.3614 34.7093 72.1746 34.6754C71.9878 34.6416 71.835 34.5654 71.7331 34.447C71.6312 34.3285 71.5633 34.1593 71.5378 33.9477C71.5123 33.7362 71.4953 33.457 71.4953 33.11L71.5208 25.85C71.4868 25.4016 71.351 25.097 71.1217 24.9362C70.8925 24.7754 70.5273 24.6739 70.0264 24.64C69.5763 24.6062 69.1348 24.6146 68.7102 24.6654C68.2772 24.7162 67.8611 24.7754 67.4451 24.8516V33.11C67.4451 33.7616 67.3602 34.1931 67.1733 34.4131C66.995 34.6246 66.6044 34.7346 66.0016 34.7346H65.0675C64.7534 34.7346 64.4986 34.7177 64.3033 34.6839C64.1081 34.65 63.9552 34.5739 63.8533 34.4554C63.7514 34.337 63.6835 34.1677 63.6495 33.9562C63.6156 33.7446 63.5986 33.4654 63.5986 33.1185L63.6241 24.6485H63.0806C62.8344 24.6485 62.6391 24.5723 62.4862 24.42C62.3334 24.2677 62.257 24.0646 62.257 23.8277V22.7193C62.257 22.567 62.2825 22.44 62.3334 22.347C62.3843 22.2539 62.4438 22.1862 62.5117 22.1523C62.7155 21.9831 62.9617 21.8139 63.2335 21.6616C63.4712 21.5262 63.7599 21.4077 64.0826 21.2977C64.4137 21.1962 64.7958 21.1454 65.2459 21.1454C65.8997 21.1454 66.4261 21.3231 66.8252 21.687C66.9611 21.6193 67.1309 21.5431 67.3432 21.467C67.547 21.3908 67.7338 21.34 67.8866 21.3231C68.1498 21.2723 68.447 21.23 68.7952 21.1962C69.1348 21.1623 69.5254 21.1454 69.9584 21.1454C70.7481 21.1285 71.4614 21.1962 72.0897 21.34C72.7181 21.4839 73.2615 21.687 73.703 21.9408C74.0851 21.6277 74.5437 21.4246 75.0956 21.3231C75.3418 21.2893 75.69 21.2554 76.157 21.2216C76.624 21.1877 77.1759 21.1623 77.8382 21.1454C79.7487 21.1285 81.1328 21.4331 81.9734 22.0593C82.814 22.6854 83.2386 23.7262 83.2386 25.19V31.9846H83.8075C84.0537 31.9846 84.2405 32.0608 84.3934 32.2216C84.5377 32.3739 84.6141 32.56 84.6141 32.7885V33.8462C84.6141 34.0831 84.5632 34.2523 84.4613 34.3454C84.3594 34.4385 84.2575 34.5062 84.1471 34.54L84.0198 34.5908H84.0707C83.9688 34.6246 83.6801 34.7008 83.2046 34.8108C82.7291 34.9208 82.1602 34.9462 81.4894 34.8785C80.9884 34.8277 80.6063 34.7008 80.3261 34.5062C80.0459 34.3031 79.8506 34.0831 79.7148 33.8377C79.5874 33.5839 79.5025 33.347 79.4685 33.127C79.4345 32.907 79.4176 32.7377 79.4176 32.6362V25.8416C79.3496 25.1054 78.8571 24.7077 77.9401 24.657C77.592 24.64 77.1844 24.6485 76.7004 24.6823C76.2164 24.7162 75.7494 24.7585 75.3079 24.8093C75.3079 24.8431 75.3079 24.9023 75.3163 24.987C75.3248 25.0716 75.3333 25.1393 75.3333 25.19V33.1185L75.3163 33.1016ZM92.4175 31.4516C92.7062 31.4346 93.0543 31.4008 93.4619 31.3585C93.861 31.3162 94.345 31.2316 94.8969 31.1131C95.1092 31.0793 95.279 31.0454 95.4318 31.02C95.5762 30.9946 95.7205 30.9862 95.8564 30.9862C96.213 30.9862 96.4678 31.0962 96.6036 31.3162C96.7395 31.5362 96.9178 31.917 97.147 32.45C97.2659 32.78 97.3254 33.0339 97.3254 33.22C97.3254 33.7193 97.0706 34.0577 96.5697 34.227C96.0602 34.3962 95.3894 34.5485 94.5658 34.6923C93.7081 34.8446 92.6807 34.9208 91.492 34.9208C90.3032 34.9208 89.3437 34.7516 88.5965 34.4131C88.2483 34.2439 87.9087 34.0323 87.5775 33.7954C87.2464 33.5585 86.9492 33.2793 86.7114 32.9746C85.7265 31.79 85.2425 30.1654 85.2425 28.0839C85.2425 27.1108 85.3953 26.197 85.6925 25.3508C85.9897 24.5131 86.3803 23.8108 86.8643 23.2439C87.2464 22.8123 87.6115 22.457 87.9766 22.1777C88.3417 21.89 88.7408 21.6785 89.1824 21.5177C89.6239 21.3654 90.1079 21.2639 90.6513 21.2046C91.1948 21.1539 91.8316 21.137 92.5533 21.1539C92.7571 21.1539 93.0204 21.1793 93.343 21.23C93.6657 21.2808 94.0053 21.3823 94.3789 21.5346C94.7441 21.687 95.1177 21.907 95.4828 22.1862C95.8564 22.4739 96.1876 22.8462 96.4932 23.3116C96.7989 23.777 97.0452 24.3523 97.232 25.0377C97.4188 25.7231 97.5207 26.5523 97.5207 27.5085C97.5207 28.0077 97.4442 28.397 97.2999 28.6677C97.1555 28.947 96.9772 29.1416 96.7734 29.277C96.5612 29.4039 96.3574 29.48 96.1536 29.5054C95.9498 29.5308 95.797 29.5393 95.6866 29.5393H89.1824C89.1993 29.8354 89.2588 30.0893 89.3777 30.3093C89.488 30.5293 89.6154 30.7154 89.7513 30.8508C89.972 31.0962 90.2862 31.257 90.6853 31.35C91.0844 31.4431 91.6703 31.477 92.443 31.4431L92.4175 31.4516ZM90.1164 24.7077C89.6833 25.0208 89.4031 25.6216 89.2673 26.51H94.277C94.1412 25.6216 93.8525 25.0208 93.4279 24.7077C92.9949 24.3946 92.4599 24.2423 91.7976 24.2423H91.7467C91.0929 24.2423 90.5494 24.3946 90.1164 24.7077ZM102.904 28.6423C102.904 29.0823 102.904 29.5308 102.93 29.9623C102.946 30.4023 103.023 30.7323 103.167 30.9523C103.303 31.1893 103.532 31.3246 103.847 31.35C104.169 31.3754 104.492 31.3839 104.815 31.367L105.358 31.3416C105.604 31.3246 105.8 31.3416 105.952 31.3839C106.105 31.4262 106.233 31.5023 106.343 31.6039C106.445 31.7054 106.538 31.8493 106.615 32.027C106.691 32.2131 106.784 32.4246 106.886 32.687L107.014 33.0508C107.082 33.237 107.116 33.4739 107.116 33.77C107.116 34.0408 107.031 34.2523 106.844 34.3877C106.666 34.5231 106.36 34.6416 105.927 34.7262C105.672 34.7939 105.4 34.8362 105.129 34.8531C104.857 34.87 104.577 34.8785 104.305 34.8785C103.422 34.8785 102.581 34.7262 101.775 34.4216C100.968 34.1085 100.348 33.6008 99.9152 32.8985C99.584 32.3654 99.3717 31.7393 99.2783 31.0031C99.1849 30.2754 99.134 29.4885 99.134 28.6508L99.1085 18.92C99.1085 18.5139 99.1255 18.2008 99.1425 17.9808C99.1679 17.7693 99.2444 17.6085 99.3632 17.507C99.4821 17.4054 99.6519 17.3462 99.8642 17.3293C100.076 17.3123 100.382 17.3039 100.781 17.3039H101.07C101.486 17.3039 101.809 17.3123 102.055 17.3293C102.293 17.3462 102.479 17.4054 102.598 17.507C102.717 17.6085 102.794 17.7693 102.828 17.9808C102.862 18.2008 102.879 18.5139 102.879 18.92V21.3146H105.434C105.791 21.3146 106.08 21.3231 106.284 21.34C106.487 21.357 106.632 21.4077 106.725 21.4923C106.81 21.577 106.861 21.7208 106.878 21.9154C106.895 22.11 106.903 22.3893 106.903 22.7531V22.9139C106.903 23.2185 106.895 23.4977 106.878 23.7262C106.861 23.9546 106.801 24.1493 106.7 24.31C106.598 24.4623 106.436 24.5808 106.224 24.657C106.003 24.7331 105.689 24.7754 105.282 24.7754H102.879L102.904 28.6677V28.6423ZM28.4962 42.4854C28.4538 42.9593 28.2755 43.34 27.9698 43.6023C27.6641 43.8731 27.248 44 26.7386 44C26.3819 44 26.0678 43.9154 25.7961 43.7462C25.5243 43.577 25.3121 43.34 25.1677 43.027C25.0234 42.7139 24.9469 42.35 24.9385 41.9439V41.5293C24.9385 41.1062 25.0149 40.7339 25.1592 40.4123C25.3121 40.0908 25.5243 39.8454 25.8045 39.6677C26.0848 39.49 26.4074 39.4054 26.7725 39.4054C27.2735 39.4054 27.6641 39.5408 27.9698 39.8031C28.267 40.0654 28.4453 40.4462 28.4962 40.937H27.7151C27.6811 40.6154 27.5877 40.387 27.4348 40.2431C27.282 40.0993 27.0612 40.0316 26.7725 40.0316C26.4329 40.0316 26.1697 40.1585 25.9914 40.4039C25.813 40.6493 25.7111 41.0131 25.7111 41.4954V41.8931C25.7111 42.3754 25.7961 42.7477 25.9744 43.0016C26.1442 43.2554 26.3989 43.3823 26.7386 43.3823C27.0443 43.3823 27.2735 43.3146 27.4264 43.1793C27.5792 43.0439 27.6726 42.8154 27.7151 42.4939H28.4962V42.4854ZM32.7758 41.817C32.7758 42.257 32.6994 42.6377 32.5465 42.9677C32.3937 43.2977 32.1814 43.5516 31.8927 43.7293C31.6125 43.907 31.2898 43.9916 30.9162 43.9916C30.5426 43.9916 30.2284 43.907 29.9397 43.7293C29.6595 43.5516 29.4388 43.2977 29.2774 42.9762C29.1161 42.6546 29.0397 42.2739 29.0397 41.8423V41.5885C29.0397 41.157 29.1161 40.7677 29.2689 40.4293C29.4218 40.0993 29.6425 39.837 29.9228 39.6593C30.203 39.4816 30.5256 39.397 30.8907 39.397C31.2559 39.397 31.5785 39.4816 31.8672 39.6593C32.1474 39.837 32.3682 40.0823 32.521 40.4123C32.6739 40.7423 32.7503 41.1231 32.7503 41.5546V41.8085L32.7758 41.817ZM31.9946 41.5885C31.9946 41.0977 31.9012 40.717 31.7144 40.4546C31.5276 40.1923 31.2559 40.057 30.9162 40.057C30.5766 40.057 30.3218 40.1923 30.1265 40.4546C29.9312 40.717 29.8378 41.0893 29.8293 41.5716V41.8254C29.8293 42.3162 29.9227 42.697 30.118 42.9677C30.3133 43.2385 30.5766 43.3739 30.9162 43.3739C31.2559 43.3739 31.5276 43.2385 31.7144 42.9846C31.9012 42.7223 31.9946 42.3416 31.9946 41.8339V41.597V41.5885ZM34.5589 39.4646L35.8496 42.8916L37.1402 39.4646H38.1507V43.9408H37.3695V42.4685L37.4459 40.497L36.1213 43.9408H35.5694L34.2447 40.497L34.3212 42.4685V43.9408H33.5485V39.4646H34.5589ZM39.8574 42.2823V43.9408H39.0762V39.4646H40.7914C41.2924 39.4646 41.6915 39.6 41.9887 39.8539C42.2858 40.1162 42.4302 40.4631 42.4302 40.8862C42.4302 41.3093 42.2858 41.6646 41.9971 41.91C41.7084 42.1554 41.3009 42.2739 40.7829 42.2739H39.8574V42.2823ZM39.8574 41.6562H40.7914C41.0631 41.6562 41.2754 41.5885 41.4282 41.4616C41.5726 41.3346 41.649 41.14 41.649 40.8946C41.649 40.6493 41.5726 40.4631 41.4282 40.3193C41.2839 40.1754 41.0716 40.0993 40.8169 40.0993H39.8574V41.6562ZM46.6927 41.817C46.6927 42.257 46.6163 42.6377 46.4635 42.9677C46.3106 43.2977 46.0899 43.5516 45.8097 43.7293C45.5295 43.907 45.1983 43.9916 44.8332 43.9916C44.4681 43.9916 44.1454 43.907 43.8567 43.7293C43.5765 43.5516 43.3557 43.2977 43.1944 42.9762C43.0415 42.6462 42.9651 42.2739 42.9566 41.8423V41.5885C42.9566 41.157 43.0331 40.7677 43.1859 40.4293C43.3472 40.0993 43.5595 39.837 43.8397 39.6593C44.1199 39.4816 44.4426 39.397 44.8162 39.397C45.1898 39.397 45.504 39.4816 45.7842 39.6593C46.0644 39.837 46.2852 40.0823 46.438 40.4123C46.5908 40.7423 46.6673 41.1231 46.6758 41.5546V41.8085L46.6927 41.817ZM45.92 41.5885C45.92 41.0977 45.8266 40.717 45.6398 40.4546C45.453 40.1923 45.1813 40.057 44.8417 40.057C44.502 40.057 44.2388 40.1923 44.052 40.4546C43.8652 40.717 43.7633 41.0893 43.7633 41.5716V41.8254C43.7633 42.3162 43.8567 42.697 44.052 42.9677C44.2473 43.2385 44.5105 43.3739 44.8502 43.3739C45.1898 43.3739 45.4615 43.2385 45.6483 42.9846C45.8351 42.7223 45.9285 42.3416 45.9285 41.8339V41.597L45.92 41.5885ZM51.0317 43.9408H50.2505L48.2466 40.7677V43.9408H47.4654V39.4646H48.2466L50.2505 42.6546V39.4646H51.0232V43.9408H51.0317ZM54.581 41.9439H52.7384V43.3146H54.8952V43.9408H51.9572V39.4646H54.8697V40.0908H52.7384V41.3262H54.581V41.9354V41.9439ZM59.0813 43.9408H58.3001L56.3047 40.7677V43.9408H55.5235V39.4646H56.3047L58.3086 42.6546V39.4646H59.0813V43.9408ZM63.157 40.0908H61.756V43.9408H60.9833V40.0908H59.5993V39.4646H63.157V40.0908ZM66.3752 41.9439H64.5326V43.3146H66.6894V43.9408H63.7514V39.4646H66.6639V40.0908H64.5326V41.3262H66.3752V41.9354V41.9439ZM69.6612 42.79C69.6612 42.5954 69.5933 42.4431 69.4575 42.3331C69.3216 42.2231 69.0669 42.1131 68.7102 42.0116C68.3536 41.9016 68.0564 41.7831 67.8441 41.6477C67.4366 41.3939 67.2328 41.0554 67.2328 40.6493C67.2328 40.2854 67.3771 39.9893 67.6743 39.7608C67.9715 39.5239 68.3536 39.4139 68.8206 39.4139C69.1348 39.4139 69.4065 39.4731 69.6528 39.5831C69.899 39.6931 70.0858 39.8623 70.2302 40.0739C70.3745 40.2854 70.4424 40.5223 70.4424 40.7762H69.6697C69.6697 40.5477 69.5933 40.3616 69.449 40.2346C69.3046 40.1077 69.0923 40.04 68.8206 40.04C68.5659 40.04 68.3706 40.0908 68.2262 40.2008C68.0904 40.3023 68.014 40.4546 68.014 40.6493C68.014 40.81 68.0904 40.9454 68.2432 41.0554C68.3961 41.1654 68.6508 41.2754 68.9989 41.3685C69.3471 41.47 69.6273 41.5885 69.8396 41.7239C70.0518 41.8593 70.2047 42.0116 70.3066 42.1808C70.4085 42.35 70.4509 42.5531 70.4509 42.7816C70.4509 43.1539 70.3066 43.45 70.0179 43.67C69.7292 43.89 69.3471 44 68.8461 44C68.5234 44 68.2262 43.9408 67.9545 43.8223C67.6828 43.7039 67.4705 43.5346 67.3177 43.3316C67.1649 43.12 67.0969 42.8746 67.0969 42.5954H67.8781C67.8781 42.8493 67.963 43.0439 68.1244 43.1877C68.2942 43.3231 68.5404 43.3993 68.8461 43.3993C69.1178 43.3993 69.3216 43.34 69.4575 43.23C69.5933 43.12 69.6612 42.9762 69.6612 42.7985V42.79ZM75.0446 42.79C75.0446 42.5954 74.9767 42.4431 74.8408 42.3331C74.705 42.2231 74.4502 42.1131 74.0936 42.0116C73.7285 41.9016 73.4398 41.7831 73.2275 41.6477C72.8199 41.3939 72.6162 41.0554 72.6162 40.6493C72.6162 40.2854 72.7605 39.9893 73.0577 39.7608C73.3549 39.5239 73.737 39.4139 74.204 39.4139C74.5182 39.4139 74.7984 39.4731 75.0446 39.5831C75.2909 39.6931 75.4777 39.8623 75.622 40.0739C75.7664 40.2854 75.8343 40.5223 75.8343 40.7762H75.0531C75.0531 40.5477 74.9767 40.3616 74.8323 40.2346C74.688 40.1077 74.4757 40.04 74.204 40.04C73.9493 40.04 73.754 40.0908 73.6096 40.2008C73.4653 40.3023 73.3974 40.4546 73.3974 40.6493C73.3974 40.81 73.4738 40.9454 73.6266 41.0554C73.7794 41.1654 74.0342 41.2754 74.3823 41.3685C74.7305 41.47 75.0107 41.5885 75.2229 41.7239C75.4352 41.8593 75.5881 42.0116 75.69 42.1808C75.7918 42.35 75.8343 42.5531 75.8343 42.7816C75.8343 43.1539 75.6899 43.45 75.4097 43.67C75.121 43.89 74.739 44 74.2465 44C73.9238 44 73.6181 43.9408 73.3464 43.8223C73.0747 43.7039 72.8624 43.5346 72.7096 43.3316C72.5567 43.12 72.4803 42.8746 72.4803 42.5954H73.2615C73.2615 42.8493 73.3464 43.0439 73.5162 43.1877C73.6861 43.3231 73.9238 43.3993 74.238 43.3993C74.5097 43.3993 74.7135 43.34 74.8493 43.23C74.9852 43.12 75.0531 42.9762 75.0531 42.7985L75.0446 42.79ZM79.027 42.9H77.2863L76.9212 43.9408H76.1145L77.8127 39.4646H78.509L80.2072 43.9408H79.3921L79.027 42.9ZM77.5071 42.2739H78.8062L78.1524 40.4208L77.5071 42.2739ZM84.2745 43.9408H83.4933L81.4894 40.7677V43.9408H80.7167V39.4646H81.4894L83.4933 42.6546V39.4646H84.266V43.9408H84.2745ZM86.0152 43.9408H85.234V39.4646H86.0152V43.9408ZM90.1249 40.0908H88.7323V43.9408H87.9596V40.0908H86.5756V39.4646H90.1334V40.0908H90.1249ZM92.859 42.9H91.1268L90.7617 43.9408H89.9551L91.6533 39.4646H92.3496L94.0478 43.9408H93.2326L92.8675 42.9H92.859ZM91.3391 42.2739H92.6383L91.9844 40.4208L91.3306 42.2739H91.3391ZM96.196 42.2146H95.3299V43.9323H94.5488V39.4562H96.1281C96.6461 39.4562 97.0452 39.5746 97.3254 39.8031C97.6056 40.0316 97.7499 40.37 97.7499 40.81C97.7499 41.1062 97.6735 41.36 97.5292 41.5631C97.3848 41.7662 97.181 41.9185 96.9263 42.0285L97.9367 43.89V43.9323H97.0961L96.196 42.2146ZM95.3299 41.5885H96.1281C96.3913 41.5885 96.5951 41.5208 96.748 41.3939C96.8923 41.2585 96.9687 41.0808 96.9687 40.8523C96.9687 40.607 96.9008 40.4293 96.7649 40.2939C96.6291 40.167 96.4253 40.0908 96.1536 40.0908H95.3299V41.5885ZM99.3123 43.9408H98.5396V39.4646H99.3123V43.9408ZM103.855 41.817C103.855 42.257 103.779 42.6377 103.634 42.9677C103.481 43.2977 103.261 43.5516 102.98 43.7293C102.7 43.907 102.369 43.9916 102.004 43.9916C101.639 43.9916 101.316 43.907 101.036 43.7293C100.747 43.5516 100.535 43.2977 100.374 42.9762C100.212 42.6462 100.136 42.2739 100.136 41.8423V41.5885C100.136 41.157 100.212 40.7677 100.365 40.4293C100.518 40.0993 100.739 39.837 101.027 39.6593C101.308 39.4816 101.63 39.397 102.004 39.397C102.378 39.397 102.692 39.4816 102.972 39.6593C103.252 39.837 103.473 40.0823 103.626 40.4123C103.779 40.7423 103.855 41.1231 103.855 41.5546V41.8085V41.817ZM103.074 41.5885C103.074 41.0977 102.98 40.717 102.785 40.4546C102.598 40.1923 102.335 40.057 101.987 40.057C101.639 40.057 101.384 40.1923 101.197 40.4546C101.002 40.717 100.909 41.0893 100.909 41.5716V41.8254C100.909 42.3162 101.002 42.697 101.197 42.9677C101.393 43.2385 101.656 43.3739 101.995 43.3739C102.335 43.3739 102.607 43.2385 102.794 42.9846C102.98 42.7223 103.074 42.3416 103.074 41.8339V41.597V41.5885ZM106.98 42.79C106.98 42.5954 106.912 42.4431 106.776 42.3331C106.64 42.2231 106.385 42.1131 106.029 42.0116C105.672 41.9016 105.375 41.7831 105.163 41.6477C104.755 41.3939 104.551 41.0554 104.551 40.6493C104.551 40.2854 104.696 39.9893 104.993 39.7608C105.29 39.5239 105.672 39.4139 106.139 39.4139C106.453 39.4139 106.725 39.4731 106.971 39.5831C107.218 39.6931 107.404 39.8623 107.549 40.0739C107.685 40.2854 107.752 40.5223 107.752 40.7762H106.98C106.98 40.5477 106.903 40.3616 106.759 40.2346C106.615 40.1077 106.402 40.04 106.131 40.04C105.876 40.04 105.681 40.0908 105.536 40.2008C105.392 40.3023 105.324 40.4546 105.324 40.6493C105.324 40.81 105.4 40.9454 105.553 41.0554C105.706 41.1654 105.961 41.2754 106.309 41.3685C106.657 41.47 106.937 41.5885 107.15 41.7239C107.362 41.8593 107.515 42.0116 107.617 42.1808C107.719 42.35 107.769 42.5531 107.769 42.7816C107.769 43.1539 107.625 43.45 107.336 43.67C107.048 43.89 106.657 44 106.173 44C105.842 44 105.553 43.9408 105.282 43.8223C105.01 43.7039 104.798 43.5346 104.645 43.3316C104.492 43.12 104.415 42.8746 104.415 42.5954H105.197C105.197 42.8493 105.282 43.0439 105.443 43.1877C105.613 43.3231 105.85 43.3993 106.173 43.3993C106.445 43.3993 106.649 43.34 106.784 43.23C106.92 43.12 106.988 42.9762 106.988 42.7985L106.98 42.79ZM111.472 32.3485C111.336 32.5177 111.166 32.6108 110.962 32.6531L111.684 34.0746H111.302L110.605 32.7039H109.867V34.0746H109.536V30.8508H110.58C110.962 30.8508 111.242 30.9439 111.412 31.1131C111.59 31.2908 111.684 31.5108 111.684 31.7816C111.684 32.0016 111.616 32.1877 111.472 32.3485ZM110.58 32.4162C111.047 32.4162 111.327 32.1793 111.327 31.7816C111.327 31.35 111.073 31.1385 110.58 31.1385H109.867V32.4246H110.58V32.4162ZM110.495 34.9377C109.111 34.9377 107.99 33.8208 107.99 32.4416C107.99 31.0623 109.111 29.9454 110.495 29.9454C111.879 29.9454 113 31.0623 113 32.4416C113 33.8208 111.879 34.9377 110.495 34.9377ZM110.495 30.2331C109.272 30.2331 108.279 31.2231 108.279 32.4416C108.279 33.66 109.272 34.65 110.495 34.65C111.718 34.65 112.711 33.66 112.711 32.4416C112.711 31.2231 111.718 30.2331 110.495 30.2331Z" fill="#005CB9"/>
</g>
<defs>
<clipPath id="clip0_1785_123">
<rect width="113" height="44" fill="white"/>
</clipPath>
</defs>
</svg>
