<svg width="48" height="48" viewBox="0 0 48 48" fill="none" xmlns="http://www.w3.org/2000/svg">
<g clip-path="url(#clip0_1790_2970)">
<path d="M38.7605 11.54L24.3805 5.60002C24.1405 5.50002 23.8805 5.50002 23.6405 5.60002L9.26048 11.54C8.94048 11.68 8.70048 11.98 8.68048 12.34C8.32048 16.14 7.84048 29.2 16.9205 37.82C18.8605 39.66 21.1205 41.2 23.6205 42.36C23.7405 42.42 23.8805 42.44 24.0205 42.44C24.1605 42.44 24.3005 42.42 24.4205 42.36C26.9205 41.18 29.1805 39.66 31.1205 37.82C34.5405 34.56 36.9605 30.36 38.3205 25.34C38.4605 24.82 38.1605 24.3 37.6405 24.16C37.1205 24.02 36.6005 24.32 36.4605 24.84C35.2005 29.52 32.9605 33.42 29.8005 36.42C28.1205 38.02 26.1805 39.36 24.0205 40.42C21.8605 39.36 19.9205 38.02 18.2405 36.42C10.2005 28.78 10.2205 17.26 10.5405 13.08L24.0205 7.52002L37.5005 13.08C37.6605 15.02 37.6405 17 37.4805 18.98C37.4405 19.5 37.8205 19.98 38.3605 20.02C38.9005 20.08 39.3605 19.68 39.4005 19.14C39.6005 16.84 39.5805 14.54 39.3805 12.32C39.3405 11.96 39.1205 11.66 38.7805 11.52L38.7605 11.54Z" fill="#1E2E46"/>
<path d="M43.8803 8.7C43.8403 8.34 43.6203 8.04 43.3003 7.9L24.3603 0.0800049C24.1203 -0.0199951 23.8603 -0.0199951 23.6203 0.0800049L4.70033 7.9C4.38033 8.04 4.14033 8.34 4.12033 8.7C3.64033 13.66 3.02033 30.74 14.8603 42C17.3803 44.4 20.3203 46.4 23.6003 47.92C23.7203 47.98 23.8603 48.02 24.0003 48.02C24.1403 48.02 24.2803 47.98 24.4003 47.92C27.6803 46.38 30.6003 44.4 33.1403 42C44.9803 30.74 44.3603 13.68 43.8803 8.7ZM31.8203 40.6C29.5603 42.76 26.9203 44.56 24.0003 45.98C21.0803 44.56 18.4603 42.76 16.1803 40.6C5.38033 30.32 5.54033 14.82 5.98033 9.44L24.0003 2L42.0203 9.44C42.4403 14.82 42.6003 30.32 31.8203 40.58V40.6Z" fill="#1E2E46"/>
<path d="M31.0601 18.42L21.96 27.58L16.9401 22.78C16.5601 22.42 15.9401 22.42 15.5801 22.82C15.2201 23.2 15.2201 23.82 15.6001 24.18L21.3 29.62C21.48 29.8 21.72 29.88 21.96 29.88C22.2 29.88 22.4601 29.78 22.64 29.6L32.4001 19.78C32.7801 19.4 32.7801 18.8 32.4001 18.42C32.0201 18.04 31.4201 18.04 31.0401 18.42H31.0601Z" fill="#1E2E46"/>
</g>
<defs>
<clipPath id="clip0_1790_2970">
<rect width="48" height="48" fill="white"/>
</clipPath>
</defs>
</svg>
