<svg width="48" height="48" viewBox="0 0 48 48" fill="none" xmlns="http://www.w3.org/2000/svg">
<path d="M46.52 25.8799C47.42 25.0599 48 23.8999 48 22.5799C48 20.1399 46.02 18.1599 43.58 18.1599H32.48C34.82 9.79995 34.32 3.37995 31.08 1.67995C29.94 1.07995 28.5 1.05995 26.82 1.63995C26.38 1.79995 26.08 2.19995 26.06 2.67995C26.04 4.11995 25.82 5.53995 25.4 6.87995C23.62 12.7199 18.64 16.0199 15.52 17.5999C15.14 16.1799 13.84 15.1199 12.3 15.1199H3.36C1.52 15.1199 0 16.6199 0 18.4799V30.9799C0 31.5999 0.5 32.0999 1.12 32.0999C1.74 32.0999 2.24 31.5999 2.24 30.9799V18.4799C2.24 17.8599 2.74 17.3599 3.36 17.3599H12.3C12.92 17.3599 13.42 17.8599 13.42 18.4799V19.3199V43.4799C13.42 44.0999 12.92 44.5999 12.3 44.5999H3.36C2.74 44.5999 2.24 44.0999 2.24 43.4799V39.1199C2.24 38.5 1.74 38 1.12 38C0.5 38 0 38.5 0 39.1199V43.4799C0 45.32 1.5 46.84 3.36 46.84H12.3C14.12 46.84 15.62 45.36 15.64 43.54C16.86 44.08 18.12 44.6 19.38 45.02C21.98 45.88 24.68 46.5 27.42 46.82C27.46 46.82 27.5 46.82 27.56 46.82H40.4C42.84 46.82 44.82 44.84 44.82 42.4C44.82 41.58 44.6 40.82 44.22 40.18C46.36 39.88 48 38.02 48 35.7999C48 34.5 47.42 33.32 46.52 32.4999C47.42 31.6999 48 30.5199 48 29.1999C48 27.8799 47.42 26.7199 46.52 25.8999V25.8799ZM43.58 24.7599H39.9C39.28 24.7599 38.78 25.2599 38.78 25.8799C38.78 26.4999 39.28 26.9999 39.9 26.9999H43.58C44.78 26.9999 45.76 27.9799 45.76 29.1799C45.76 30.3799 44.78 31.3599 43.58 31.3599H39.9C39.28 31.3599 38.78 31.8599 38.78 32.4799C38.78 33.0999 39.28 33.5999 39.9 33.5999H43.58C44.78 33.5999 45.76 34.5799 45.76 35.7799C45.76 36.9799 44.78 37.9599 43.58 37.9599H39.9C39.28 37.9599 38.78 38.46 38.78 39.08C38.78 39.7 39.28 40.2 39.9 40.2H40.4C41.6 40.2 42.58 41.18 42.58 42.38C42.58 43.58 41.6 44.56 40.4 44.56H27.64C25.08 44.24 22.54 43.68 20.1 42.86C18.6 42.36 17.1 41.74 15.66 41.06V20.0199C18.94 18.5199 25.34 14.7799 27.54 7.53995C27.92 6.25995 28.16 4.91995 28.26 3.55995C29 3.39995 29.6 3.43995 30.04 3.65995C31.98 4.67995 32.62 10.3999 29.96 18.9599C29.96 19.0199 29.96 19.0799 29.96 19.1399C29.96 19.1999 29.92 19.2399 29.92 19.2999C29.92 19.2999 29.92 19.3399 29.92 19.3599C29.92 19.4399 29.94 19.5199 29.96 19.5799C29.96 19.6399 29.98 19.7199 30.02 19.7799C30.04 19.8399 30.1 19.8999 30.14 19.9399C30.18 19.9999 30.22 20.0599 30.28 20.1199C30.32 20.16 30.38 20.1999 30.44 20.2199C30.5 20.2599 30.58 20.2999 30.64 20.3399L30.68 20.3599C30.78 20.4 30.9 20.4199 31.02 20.4199H43.6C44.8 20.4199 45.78 21.3999 45.78 22.5999C45.78 23.7999 44.8 24.7799 43.6 24.7799L43.58 24.7599Z" fill="#1E2E46"/>
<path d="M10.7004 39.08C10.7004 37.5 9.40043 36.2 7.82043 36.2C6.24043 36.2 4.94043 37.5 4.94043 39.08C4.94043 40.66 6.24043 41.9599 7.82043 41.9599C9.40043 41.9599 10.7004 40.66 10.7004 39.08ZM7.18043 39.08C7.18043 38.72 7.48043 38.4399 7.82043 38.4399C8.16043 38.4399 8.46043 38.72 8.46043 39.08C8.46043 39.44 8.16043 39.72 7.82043 39.72C7.48043 39.72 7.18043 39.42 7.18043 39.08Z" fill="#1E2E46"/>
</svg>
