<svg width="48" height="48" viewBox="0 0 48 48" fill="none" xmlns="http://www.w3.org/2000/svg">
<g clip-path="url(#clip0_1790_2978)">
<path d="M47.3202 13.7C47.4202 13.64 47.5202 13.54 47.6002 13.44C47.6202 13.4 47.6402 13.38 47.6602 13.34C47.7402 13.2 47.7802 13.06 47.7802 12.9C47.7802 12.74 47.7202 12.6 47.6602 12.46C47.6402 12.42 47.6202 12.4 47.6002 12.36C47.5202 12.26 47.4402 12.18 47.3202 12.1C47.3002 12.1 47.3002 12.06 47.2602 12.06L39.6402 8.08C39.1802 7.84 38.6002 8.02 38.3402 8.48C38.1002 8.94 38.2802 9.52 38.7402 9.78L42.9002 11.96H24.9802V2.54L31.7002 6.06C32.1602 6.3 32.7402 6.12 33.0002 5.66C33.2402 5.2 33.0602 4.62 32.6002 4.36L24.4402 0.1C24.4402 0.1 24.4202 0.1 24.4002 0.1C24.2802 0.04 24.1402 0 23.9802 0C23.8402 0 23.7002 0.04 23.5602 0.1C23.5602 0.1 23.5402 0.1 23.5202 0.1L0.740195 12.06C0.740195 12.06 0.720195 12.1 0.680195 12.1C0.580195 12.16 0.480195 12.26 0.400195 12.36C0.380195 12.4 0.360195 12.42 0.340195 12.46C0.260195 12.6 0.220195 12.74 0.220195 12.9C0.220195 13.06 0.280195 13.22 0.340195 13.34C0.340195 13.38 0.380195 13.4 0.400195 13.44C0.480195 13.54 0.560195 13.62 0.660195 13.7C0.680195 13.7 0.700195 13.74 0.720195 13.76L9.6402 18.44L7.5802 19.52C7.4202 19.56 7.2602 19.64 7.1402 19.76L0.720195 23.12C0.400195 23.28 0.200195 23.62 0.200195 23.96C0.200195 24.3 0.400195 24.64 0.720195 24.82L9.6402 29.5L0.740195 34.18C0.420195 34.34 0.220195 34.68 0.220195 35.02C0.220195 35.36 0.420195 35.7 0.740195 35.88L23.6402 47.9C23.7802 47.98 23.9402 48 24.0802 48C24.2202 48 24.3802 47.96 24.5202 47.88L47.2602 35.86C47.5802 35.7 47.7802 35.36 47.7802 35C47.7802 34.64 47.5802 34.32 47.2602 34.16L38.3602 29.5L47.2602 24.8C47.5802 24.64 47.7802 24.3 47.7802 23.94C47.7802 23.58 47.5802 23.26 47.2602 23.1L38.3602 18.44L47.2602 13.74C47.2602 13.74 47.3002 13.7 47.3202 13.7ZM42.9402 13.86L25.0202 23.32V13.86H42.9402ZM30.7202 31.38L27.2202 29.54L34.5602 25.62L38.1002 27.48L30.7202 31.38ZM9.1002 27.04L13.6602 24.6L23.1202 29.56L18.5602 32L9.1002 27.04ZM25.1802 30.64L28.6602 32.48L24.0602 34.9L20.6002 33.08L25.1602 30.64H25.1802ZM25.1802 28.46L15.7202 23.5L17.5002 22.56L23.6202 25.78C23.6202 25.78 23.6402 25.78 23.6602 25.78C23.7802 25.84 23.9202 25.88 24.0802 25.88C24.2202 25.88 24.3602 25.84 24.5002 25.78C24.5002 25.78 24.5202 25.78 24.5402 25.78L29.6802 23.06L32.5202 24.56L25.1802 28.48V28.46ZM5.0802 13.86H23.0802V23.32L5.0802 13.86ZM5.0802 11.94L23.0402 2.54V11.94H5.0802ZM15.4402 21.48L13.6602 22.42L9.9202 20.46L11.7202 19.52L15.4402 21.48ZM7.8602 21.54L11.6202 23.52L7.0602 25.96L3.2602 23.96L7.8802 21.54H7.8602ZM44.7602 35.02L24.0802 45.94L3.2402 35.02L11.7202 30.58L23.6202 36.82C23.7602 36.9 23.9202 36.92 24.0602 36.92C24.2002 36.92 24.3602 36.88 24.5002 36.8L36.2802 30.58L44.7202 35L44.7602 35.02ZM40.1602 26.4L36.6202 24.54L41.1802 22.1L44.7602 23.98L40.1602 26.4ZM39.1202 21.02L34.5602 23.46L31.7202 21.98L36.3002 19.56L39.1202 21.04V21.02Z" fill="#1E2E46"/>
</g>
<defs>
<clipPath id="clip0_1790_2978">
<rect width="48" height="48" fill="white"/>
</clipPath>
</defs>
</svg>
