<svg width="100" height="54" viewBox="0 0 100 54" fill="none" xmlns="http://www.w3.org/2000/svg">
<g clip-path="url(#clip0_2188_25)">
<path d="M80 1H20C9.50659 1 1 9.50659 1 20C1 30.4934 9.50659 39 20 39H80C90.4934 39 99 30.4934 99 20C99 9.50659 90.4934 1 80 1Z" fill="white"/>
<path d="M80 1H20C9.50659 1 1 9.50659 1 20C1 30.4934 9.50659 39 20 39H80C90.4934 39 99 30.4934 99 20C99 9.50659 90.4934 1 80 1Z" stroke="#385976" stroke-width="2"/>
<path d="M50.5 54L41.4067 39H59.5933L50.5 54Z" fill="#385976"/>
<path d="M69.9238 14.9848L68.877 16.138C68.2931 16.781 67.2778 16.8395 66.6097 16.2655L60.6129 11.1055C59.3241 10.0001 57.3935 10.0798 56.2152 11.2543C56.2152 11.2543 56.2152 11.2543 56.2152 11.249L58.2142 9.04357C59.3767 7.76286 61.3967 7.64595 62.7223 8.78849L69.929 14.9848H69.9238ZM72.5698 15.8776C73.8954 17.0201 75.9154 16.9032 77.0779 15.6172L80.2341 12.1311L79.1821 13.2949C78.0195 14.5809 76.0048 14.6925 74.6739 13.5553L68.6771 8.39525C68.009 7.82132 66.9937 7.87977 66.4098 8.52279L65.363 9.67596L72.5698 15.8723V15.8776Z" fill="#005CB9"/>
<path d="M74.6738 13.5554C75.9994 14.698 78.0194 14.5811 79.182 13.295L81.2178 11.0525L80.0236 10.0268C79.3556 9.45291 78.3403 9.51136 77.7564 10.1544L74.6738 13.5554Z" fill="#005CB9"/>
<path d="M60.618 11.1109C59.3293 10.0002 57.3882 10.0799 56.2098 11.2597L57.4092 12.28C58.0773 12.8539 59.0978 12.7954 59.6817 12.1524L60.6286 11.1055" fill="#005CB9"/>
<path d="M77.7564 10.1544C78.3403 9.51136 79.3556 9.45291 80.0236 10.0268L81.2177 11.0525L79.182 13.295C78.0194 14.5811 76.0047 14.6927 74.6738 13.5554L77.7564 10.1544ZM60.618 11.1109C59.3293 10.0003 57.3882 10.08 56.2098 11.2597L57.4092 12.28C58.0773 12.854 59.0978 12.7955 59.6817 12.1525L60.6286 11.1056" fill="#9C9B9B"/>
<path d="M18.6297 21.3672C18.7875 21.346 18.9926 21.3247 19.2399 21.3088C19.4819 21.2928 19.7291 21.2875 19.9763 21.2875H20.1026C20.2604 21.2875 20.4182 21.2875 20.5655 21.2928C20.7128 21.2981 20.8443 21.3247 20.9495 21.3619C21.0547 21.4044 21.1441 21.4682 21.2073 21.5479C21.2704 21.6276 21.3019 21.7498 21.3019 21.9146C21.3019 21.9677 21.2967 22.0421 21.2809 22.1378C21.2651 22.2334 21.2388 22.3238 21.2073 22.4141L21.1284 22.6532C21.0757 22.818 21.0284 22.9508 20.9863 23.0677C20.9442 23.1793 20.8916 23.2697 20.8338 23.3334C20.7759 23.3972 20.697 23.4397 20.5971 23.461C20.4971 23.4822 20.3656 23.4822 20.2025 23.461C20.0079 23.4291 19.8448 23.4132 19.708 23.4132C19.4608 23.4132 19.2083 23.4291 18.9506 23.4557C18.6875 23.4822 18.4456 23.5248 18.2194 23.5779V28.7858C18.2194 29.195 18.1615 29.466 18.051 29.6042C17.9406 29.737 17.6933 29.8061 17.3198 29.8061H16.7464C16.5571 29.8061 16.394 29.7955 16.273 29.7742C16.152 29.753 16.0573 29.7051 15.9942 29.6307C15.9311 29.5563 15.889 29.4501 15.8627 29.3172C15.8417 29.1843 15.8311 29.009 15.8311 28.7911L15.8627 23.4716H15.4945C15.3577 23.4716 15.2367 23.4238 15.142 23.3281C15.0473 23.2325 15 23.1049 15 22.9561V22.26C15 22.1431 15.0158 22.0581 15.0579 22.0049C15.0947 21.9518 15.121 21.9199 15.1473 21.9093C15.2735 21.803 15.4261 21.6967 15.5944 21.601C15.7417 21.516 15.9206 21.4416 16.131 21.3725C16.3361 21.3088 16.5834 21.2769 16.8622 21.2769C17.0831 21.2769 17.2777 21.3141 17.4356 21.3832C17.5986 21.4522 17.7354 21.5426 17.8511 21.6489C17.9669 21.5798 18.0931 21.5266 18.2351 21.4788C18.3719 21.431 18.5087 21.3938 18.6349 21.3725L18.6297 21.3672ZM24.8843 29.9018C24.5739 29.8805 24.2741 29.8327 23.9795 29.7476C23.6849 29.6679 23.4271 29.5723 23.2062 29.466C22.6013 29.1897 22.1226 28.7326 21.7754 28.1003C21.4282 27.4679 21.2546 26.7239 21.2546 25.863V25.6132C21.2546 25.5176 21.2546 25.4379 21.2704 25.3635V25.3794C21.3125 24.763 21.4282 24.1997 21.6123 23.6736C21.7964 23.1528 22.07 22.7064 22.4277 22.3397C22.7854 21.973 23.2272 21.6967 23.7638 21.5054C24.3004 21.3194 24.9264 21.245 25.6523 21.2875C26.3046 21.33 26.8622 21.4788 27.3304 21.7286C27.7985 21.9837 28.1878 22.3238 28.4929 22.7489C28.798 23.174 29.0137 23.6682 29.1504 24.2262C29.282 24.7842 29.3398 25.3953 29.3188 26.0543C29.2714 27.25 28.9242 28.1959 28.2614 28.8868C27.5986 29.5776 26.6307 29.923 25.3472 29.923H25.1052C25.0316 29.923 24.9579 29.9177 24.8843 29.9018ZM25.2998 27.7229C25.8417 27.7229 26.2572 27.5529 26.5413 27.2234C26.8201 26.8886 26.9726 26.4316 26.9937 25.8471C27.0147 25.22 26.899 24.6939 26.6465 24.2687C26.394 23.8436 25.989 23.6098 25.4208 23.5673C25.1105 23.546 24.8422 23.5832 24.6213 23.6682C24.3951 23.7639 24.2057 23.8968 24.0531 24.0721C23.9006 24.2528 23.7796 24.4601 23.6902 24.7098C23.606 24.9596 23.5587 25.2306 23.5429 25.5335V25.5176V25.762C23.5429 26.1712 23.6218 26.5273 23.7691 26.8302C23.9164 27.1331 24.1215 27.351 24.3793 27.4944C24.474 27.5476 24.5844 27.5954 24.7002 27.6326C24.8211 27.6698 24.9527 27.7017 25.0999 27.7229H25.2946H25.2998ZM30.7338 29.7742C30.6128 29.753 30.5181 29.7051 30.455 29.6307C30.3919 29.5563 30.3498 29.4501 30.3235 29.3172C30.3025 29.1843 30.292 29.009 30.292 28.7911V18.1521C30.292 17.9024 30.3077 17.7111 30.3288 17.5782C30.3551 17.4454 30.4129 17.3444 30.4971 17.2806C30.5813 17.2168 30.7023 17.1796 30.8548 17.169C31.0126 17.1584 31.2073 17.1531 31.4545 17.1531H31.6123C31.849 17.1531 32.0331 17.1584 32.1699 17.169C32.3067 17.1796 32.4171 17.2168 32.4908 17.2806C32.5644 17.3444 32.6118 17.4454 32.6276 17.5782C32.6433 17.7164 32.6539 17.9077 32.6539 18.1521L32.6696 21.431C32.7222 21.4097 32.7696 21.3991 32.8064 21.3991C32.8432 21.3991 32.8906 21.3991 32.9432 21.3832C33.0905 21.3513 33.2799 21.3247 33.5113 21.3034C33.7428 21.2822 34.0058 21.2716 34.3056 21.2716C35.4787 21.2503 36.3309 21.4363 36.8569 21.8402C37.383 22.2387 37.6512 22.8977 37.6512 23.8117V28.079H38.0037C38.1405 28.079 38.2614 28.1268 38.3561 28.2278C38.4508 28.3235 38.4982 28.4404 38.4982 28.5838V29.2481C38.4982 29.3331 38.4666 29.4235 38.4087 29.5138C38.3509 29.6042 38.2562 29.6732 38.1299 29.7158H38.1457C38.0931 29.737 37.9195 29.7848 37.6249 29.8539C37.3304 29.923 36.9779 29.939 36.5623 29.8964C36.252 29.8646 36.01 29.7848 35.8417 29.6626C35.6681 29.5351 35.5471 29.3969 35.4682 29.2428C35.3893 29.0834 35.3367 28.9346 35.3156 28.7964C35.2946 28.6582 35.2841 28.552 35.2841 28.4882V24.2369C35.263 23.9658 35.1789 23.7798 35.0368 23.6682C34.8948 23.562 34.6739 23.4982 34.374 23.4716C34.0847 23.4504 33.7954 23.4557 33.506 23.4876C33.2115 23.5194 32.9327 23.5566 32.6644 23.6045V28.7911C32.6644 29.2003 32.6118 29.4713 32.5066 29.6095C32.3961 29.7423 32.1541 29.8114 31.7701 29.8114H31.2073C31.0126 29.8114 30.8548 29.8008 30.7338 29.7795V29.7742ZM43.3167 27.7548C43.4955 27.7442 43.7165 27.7229 43.9637 27.6964C44.2162 27.6698 44.5108 27.6167 44.8527 27.5423C44.979 27.521 45.0894 27.4998 45.1789 27.4838C45.2683 27.4679 45.3577 27.4626 45.4419 27.4626C45.6681 27.4626 45.8206 27.5316 45.9048 27.6698C45.989 27.808 46.0994 28.0471 46.2414 28.3819C46.3151 28.5892 46.3519 28.7486 46.3519 28.8655C46.3519 29.179 46.1941 29.3916 45.8785 29.4979C45.5629 29.6042 45.1525 29.6998 44.637 29.7902C44.1005 29.8858 43.4692 29.9336 42.7328 29.9336C41.9963 29.9336 41.3966 29.8274 40.939 29.6148C40.7286 29.5085 40.5181 29.3757 40.3077 29.2269C40.1026 29.0781 39.9237 28.9027 39.7712 28.7114C39.1662 27.9674 38.8611 26.9471 38.8611 25.6398C38.8611 25.0287 38.9558 24.4547 39.1399 23.9233C39.324 23.3972 39.566 22.9561 39.8659 22.6001C40.1026 22.3291 40.3288 22.1059 40.555 21.9305C40.7812 21.7498 41.0284 21.617 41.2967 21.516C41.5702 21.4204 41.8753 21.3566 42.2067 21.3194C42.5434 21.2875 42.9327 21.2769 43.3851 21.2875C43.5113 21.2875 43.6744 21.3034 43.8743 21.3353C44.0742 21.3672 44.2846 21.431 44.5108 21.5266C44.7422 21.6223 44.9737 21.7605 45.1999 21.9358C45.4313 22.1165 45.6365 22.3503 45.8259 22.6426C46.01 22.9349 46.1625 23.2963 46.2783 23.7267C46.3993 24.1571 46.4519 24.6779 46.4519 25.2784C46.4519 25.592 46.4098 25.8364 46.3151 26.0065C46.2257 26.1818 46.1152 26.3041 45.9889 26.3891C45.8627 26.4688 45.7312 26.5166 45.6049 26.5326C45.4787 26.5485 45.3787 26.5538 45.3156 26.5538H41.2809C41.2914 26.7398 41.3335 26.8993 41.4019 27.0374C41.4703 27.1756 41.5492 27.2925 41.6333 27.3775C41.7701 27.5316 41.9648 27.6326 42.212 27.6911C42.454 27.7495 42.8222 27.7708 43.3009 27.7495L43.3167 27.7548ZM41.8911 23.5194C41.6228 23.7161 41.4492 24.0934 41.3651 24.6514H44.4687C44.3845 24.0934 44.2057 23.7161 43.9374 23.5194C43.6691 23.3228 43.3377 23.2272 42.9327 23.2272H42.9011C42.4961 23.2272 42.1594 23.3228 41.8911 23.5194ZM50.5813 21.3672C50.7391 21.346 50.9442 21.3247 51.1915 21.3088C51.4387 21.2928 51.6807 21.2875 51.9279 21.2875H52.0594C52.2172 21.2875 52.3751 21.2875 52.5223 21.2928C52.6749 21.2981 52.8012 21.3247 52.9064 21.3619C53.0116 21.4044 53.101 21.4682 53.1641 21.5479C53.2272 21.6276 53.2588 21.7498 53.2588 21.9146C53.2588 21.9677 53.2535 22.0421 53.2378 22.1378C53.222 22.2334 53.1957 22.3238 53.1641 22.4141L53.0852 22.6532C53.0326 22.818 52.9853 22.9508 52.9432 23.0677C52.9011 23.1793 52.8485 23.2697 52.7906 23.3334C52.7328 23.3972 52.6539 23.4397 52.5539 23.461C52.454 23.4822 52.3225 23.4822 52.1594 23.461C51.9647 23.4291 51.8017 23.4132 51.6649 23.4132C51.4177 23.4132 51.1652 23.4291 50.9074 23.4557C50.6444 23.4822 50.4024 23.5248 50.1762 23.5779V28.7858C50.1762 29.195 50.1236 29.466 50.0131 29.6042C49.8974 29.737 49.6554 29.8061 49.282 29.8061H48.7033C48.5139 29.8061 48.3509 29.7955 48.2299 29.7742C48.1089 29.753 48.0142 29.7051 47.9511 29.6307C47.888 29.5563 47.8459 29.4501 47.8248 29.3172C47.8038 29.1843 47.7933 29.009 47.7933 28.7911L47.8248 23.4716H47.4566C47.3198 23.4716 47.1988 23.4238 47.1042 23.3281C47.0095 23.2325 46.9621 23.1049 46.9621 22.9561V22.26C46.9621 22.1431 46.9832 22.0581 47.0147 22.0049C47.0568 21.9518 47.0831 21.9199 47.1042 21.9093C47.2357 21.803 47.383 21.6967 47.5513 21.601C47.6986 21.516 47.8774 21.4416 48.0878 21.3725C48.293 21.3088 48.5402 21.2769 48.819 21.2769C49.04 21.2769 49.2346 21.3141 49.3924 21.3832C49.5555 21.4522 49.6923 21.5426 49.8133 21.6489C49.929 21.5798 50.0552 21.5266 50.1973 21.4788C50.3393 21.431 50.4708 21.3938 50.5971 21.3725L50.5813 21.3672ZM61.6544 28.7911C61.6544 29.2003 61.5965 29.4713 61.4861 29.6095C61.3756 29.7423 61.1283 29.8114 60.7443 29.8114H60.1867C59.9816 29.8114 59.8238 29.8008 59.708 29.7795C59.5923 29.7583 59.4976 29.7104 59.4345 29.636C59.3714 29.5616 59.3293 29.4554 59.3135 29.3225C59.2977 29.1897 59.2872 29.0143 59.2872 28.7964L59.303 24.2369C59.282 23.9552 59.1978 23.7639 59.0558 23.6629C58.9137 23.562 58.6875 23.4982 58.3772 23.4769C58.0984 23.4557 57.8248 23.461 57.5618 23.4929C57.2935 23.5248 57.0358 23.562 56.778 23.6098V28.7964C56.778 29.2056 56.7254 29.4766 56.6097 29.6148C56.4992 29.7476 56.2572 29.8167 55.8837 29.8167H55.3051C55.1105 29.8167 54.9527 29.8061 54.8317 29.7848C54.7107 29.7636 54.616 29.7158 54.5529 29.6414C54.4897 29.567 54.4477 29.4607 54.4266 29.3278C54.4056 29.195 54.3951 29.0196 54.3951 28.8017L54.4108 23.4822H54.0742C53.9216 23.4822 53.8006 23.4344 53.7059 23.3388C53.6113 23.2431 53.5639 23.1156 53.5639 22.9668V22.2706C53.5639 22.175 53.5797 22.0952 53.6113 22.0368C53.6428 21.9783 53.6796 21.9358 53.7217 21.9146C53.848 21.8083 54.0005 21.702 54.1689 21.6063C54.3161 21.5213 54.495 21.4469 54.6949 21.3778C54.9 21.3141 55.1368 21.2822 55.4156 21.2822C55.8206 21.2822 56.1468 21.3938 56.394 21.6223C56.4782 21.5798 56.5834 21.5319 56.7149 21.4841C56.8411 21.4363 56.9569 21.4044 57.0515 21.3938C57.2146 21.3619 57.3987 21.3353 57.6144 21.3141C57.8248 21.2928 58.0668 21.2822 58.3351 21.2822C58.8243 21.2716 59.2662 21.3141 59.6554 21.4044C60.0447 21.4947 60.3814 21.6223 60.6549 21.7817C60.8916 21.5851 61.1757 21.4575 61.5176 21.3938C61.6702 21.3725 61.8858 21.3513 62.1752 21.33C62.4645 21.3088 62.8064 21.2928 63.2167 21.2822C64.4003 21.2716 65.2578 21.4629 65.7785 21.8561C66.2993 22.2494 66.5623 22.903 66.5623 23.8224V28.0896H66.9148C67.0673 28.0896 67.1831 28.1375 67.2777 28.2384C67.3672 28.3341 67.4145 28.451 67.4145 28.5945V29.2587C67.4145 29.4075 67.3829 29.5138 67.3198 29.5723C67.2567 29.6307 67.1936 29.6732 67.1252 29.6945L67.0463 29.7264H67.0778C67.0147 29.7476 66.8359 29.7955 66.5413 29.8646C66.2467 29.9336 65.8943 29.9496 65.4787 29.9071C65.1683 29.8752 64.9316 29.7955 64.758 29.6732C64.5844 29.5457 64.4634 29.4075 64.3793 29.2534C64.3004 29.094 64.2478 28.9452 64.2267 28.807C64.2057 28.6689 64.1952 28.5626 64.1952 28.4988V24.2315C64.1531 23.7692 63.848 23.5194 63.2798 23.4876C63.0642 23.4769 62.8117 23.4822 62.5118 23.5035C62.212 23.5248 61.9227 23.5513 61.6491 23.5832C61.6491 23.6045 61.6491 23.6417 61.6544 23.6948C61.6596 23.748 61.6649 23.7905 61.6649 23.8224V28.8017L61.6544 28.7911ZM72.2488 27.7548C72.4277 27.7442 72.6433 27.7229 72.8958 27.6964C73.1431 27.6698 73.4429 27.6167 73.7848 27.5423C73.9164 27.521 74.0216 27.4998 74.1162 27.4838C74.2057 27.4679 74.2951 27.4626 74.3793 27.4626C74.6002 27.4626 74.758 27.5316 74.8422 27.6698C74.9263 27.808 75.0368 28.0471 75.1788 28.3819C75.2525 28.5892 75.2893 28.7486 75.2893 28.8655C75.2893 29.179 75.1315 29.3916 74.8211 29.4979C74.5055 29.6042 74.0899 29.6998 73.5797 29.7902C73.0484 29.8858 72.4119 29.9336 71.6754 29.9336C70.939 29.9336 70.3445 29.8274 69.8816 29.6148C69.666 29.5085 69.4555 29.3757 69.2504 29.2269C69.0452 29.0781 68.8611 28.9027 68.7138 28.7114C68.1036 27.9674 67.8038 26.9471 67.8038 25.6398C67.8038 25.0287 67.8985 24.4547 68.0826 23.9233C68.2667 23.3972 68.5087 22.9561 68.8085 22.6001C69.0452 22.3291 69.2714 22.1059 69.4976 21.9305C69.7238 21.7498 69.9711 21.617 70.2446 21.516C70.5181 21.4204 70.818 21.3566 71.1547 21.3194C71.4913 21.2875 71.8858 21.2769 72.333 21.2875C72.4592 21.2875 72.6223 21.3034 72.8222 21.3353C73.0221 21.3672 73.2325 21.431 73.464 21.5266C73.6902 21.6223 73.9216 21.7605 74.1478 21.9358C74.3793 22.1165 74.5844 22.3503 74.7738 22.6426C74.9632 22.9349 75.1157 23.2963 75.2314 23.7267C75.3472 24.1571 75.4103 24.6779 75.4103 25.2784C75.4103 25.592 75.363 25.8364 75.2735 26.0065C75.1841 26.1818 75.0736 26.3041 74.9474 26.3891C74.8159 26.4688 74.6896 26.5166 74.5634 26.5326C74.4371 26.5485 74.3424 26.5538 74.2741 26.5538H70.2446C70.2551 26.7398 70.2919 26.8993 70.3656 27.0374C70.434 27.1756 70.5129 27.2925 70.597 27.3775C70.7338 27.5316 70.9285 27.6326 71.1757 27.6911C71.4229 27.7495 71.7859 27.7708 72.2646 27.7495L72.2488 27.7548ZM70.8232 23.5194C70.555 23.7161 70.3814 24.0934 70.2972 24.6514H73.4008C73.3167 24.0934 73.1378 23.7161 72.8748 23.5194C72.6065 23.3228 72.2751 23.2272 71.8648 23.2272H71.8332C71.4282 23.2272 71.0915 23.3228 70.8232 23.5194ZM78.7454 25.9905C78.7454 26.2669 78.7454 26.5485 78.7612 26.8195C78.7717 27.0959 78.819 27.3031 78.9085 27.4413C78.9926 27.5901 79.1347 27.6751 79.3293 27.6911C79.5292 27.707 79.7291 27.7123 79.929 27.7017L80.2656 27.6858C80.4182 27.6751 80.5392 27.6857 80.6339 27.7123C80.7286 27.7389 80.8075 27.7867 80.8758 27.8505C80.939 27.9143 80.9968 28.0046 81.0442 28.1162C81.0915 28.2331 81.1494 28.366 81.2125 28.5307L81.2914 28.7592C81.3335 28.8761 81.3545 29.0249 81.3545 29.2109C81.3545 29.381 81.3019 29.5138 81.1862 29.5988C81.0757 29.6839 80.8864 29.7583 80.6181 29.8114C80.4603 29.8539 80.2919 29.8805 80.1236 29.8911C79.9553 29.9018 79.7817 29.9071 79.6133 29.9071C79.0663 29.9071 78.5455 29.8114 78.0458 29.6201C77.546 29.4235 77.162 29.1046 76.8937 28.6636C76.6886 28.3288 76.5571 27.9355 76.4992 27.4732C76.4413 27.0162 76.4098 26.5219 76.4098 25.9958L76.394 19.8846C76.394 19.6295 76.4045 19.4329 76.415 19.2947C76.4308 19.1618 76.4782 19.0609 76.5518 18.9971C76.6254 18.9333 76.7307 18.8961 76.8622 18.8855C76.9937 18.8749 77.1831 18.8696 77.4303 18.8696H77.6091C77.8669 18.8696 78.0668 18.8749 78.2194 18.8855C78.3666 18.8961 78.4824 18.9333 78.556 18.9971C78.6297 19.0609 78.677 19.1618 78.698 19.2947C78.7191 19.4329 78.7296 19.6295 78.7296 19.8846V21.3885H80.313C80.5339 21.3885 80.7128 21.3938 80.839 21.4044C80.9653 21.415 81.0547 21.4469 81.1126 21.5001C81.1652 21.5532 81.1967 21.6435 81.2073 21.7658C81.2178 21.888 81.223 22.0634 81.223 22.2919V22.3928C81.223 22.5842 81.2178 22.7595 81.2073 22.903C81.1967 23.0465 81.1599 23.1687 81.0968 23.2697C81.0337 23.3653 80.9337 23.4397 80.8022 23.4876C80.6654 23.5354 80.4708 23.562 80.2183 23.562H78.7296L78.7454 26.0065V25.9905ZM84.0531 28.3181C83.969 28.4244 83.8637 28.4829 83.7375 28.5094L84.1846 29.4022H83.9479L83.5166 28.5413H83.0589V29.4022H82.8538V27.3775H83.5008C83.7375 27.3775 83.9111 27.436 84.0163 27.5423C84.1268 27.6539 84.1846 27.792 84.1846 27.9621C84.1846 28.1003 84.1425 28.2172 84.0531 28.3181ZM83.5008 28.3606C83.7901 28.3606 83.9637 28.2119 83.9637 27.9621C83.9637 27.6911 83.8059 27.5582 83.5008 27.5582H83.0589V28.366H83.5008V28.3606ZM83.4482 29.9443C82.5907 29.9443 81.8964 29.2428 81.8964 28.3766C81.8964 27.5104 82.5907 26.8089 83.4482 26.8089C84.3056 26.8089 85 27.5104 85 28.3766C85 29.2428 84.3056 29.9443 83.4482 29.9443ZM83.4482 26.9896C82.6907 26.9896 82.0752 27.6114 82.0752 28.3766C82.0752 29.1418 82.6907 29.7636 83.4482 29.7636C84.2057 29.7636 84.8211 29.1418 84.8211 28.3766C84.8211 27.6114 84.2057 26.9896 83.4482 26.9896Z" fill="#005CB9"/>
</g>
<defs>
<clipPath id="clip0_2188_25">
<rect width="100" height="54" fill="white"/>
</clipPath>
</defs>
</svg>
