<svg width="100" height="54" viewBox="0 0 100 54" fill="none" xmlns="http://www.w3.org/2000/svg">
<rect x="1" y="1" width="98" height="38" rx="19" fill="white"/>
<rect x="1" y="1" width="98" height="38" rx="19" stroke="#005CB9" stroke-width="2"/>
<g clip-path="url(#clip0_1383_24)">
<path d="M73.2539 13.7444L72.2828 14.8035C71.7409 15.3946 70.7979 15.4474 70.1787 14.9231L64.6159 10.1872C63.4231 9.17035 61.6287 9.24424 60.5379 10.3244C60.5379 10.3244 60.5379 10.3209 60.5344 10.3174L62.3887 8.29072C63.4689 7.11201 65.3407 7.00646 66.5687 8.05498L73.2539 13.7444ZM75.7063 14.5642C76.9378 15.6128 78.8061 15.5072 79.8863 14.3285L82.8137 11.1302L81.8391 12.1963C80.7624 13.375 78.8905 13.4805 77.6591 12.432L72.0963 7.69609C71.477 7.16831 70.5376 7.22109 69.9922 7.81572L69.0211 8.87479L75.7028 14.5642H75.7063Z" fill="#005CB9"/>
<path d="M80.5162 9.31083C81.058 8.71621 82.001 8.66343 82.6203 9.19121L83.7286 10.1342L81.8392 12.1925C80.7625 13.3712 78.8906 13.4768 77.6592 12.4282L80.5162 9.30732V9.31083ZM64.6195 10.1905C63.4232 9.17009 61.6253 9.24398 60.531 10.3277C60.531 10.3277 60.531 10.3347 60.531 10.3312L61.6429 11.2671C62.2621 11.7949 63.2086 11.7421 63.7505 11.1475L64.6266 10.1905" fill="#133C65"/>
<path d="M22.3269 26.1014C22.2776 26.2316 22.2178 26.3583 22.1475 26.4814C22.0771 26.6046 21.9891 26.7277 21.8801 26.8439C21.7182 27.0233 21.5388 27.164 21.3347 27.2696C21.1341 27.3716 20.9125 27.4244 20.6732 27.4244C20.5923 27.4244 20.5043 27.4174 20.4058 27.4103C20.3038 27.3998 20.2158 27.3857 20.1349 27.3646C19.9589 27.3259 19.7971 27.259 19.6599 27.164C19.5191 27.0726 19.4065 26.9635 19.3151 26.8439C19.2552 26.7664 19.1954 26.675 19.1356 26.5764C19.0758 26.4779 19.0089 26.3442 18.928 26.1753C18.9069 26.1226 18.8752 26.0592 18.8401 25.9818C18.8014 25.9009 18.7345 25.739 18.6465 25.4892L18.2419 26.397C18.2032 26.485 18.161 26.5694 18.1082 26.6433C18.0589 26.7172 18.0132 26.777 17.9745 26.8298C17.8338 27.0268 17.6578 27.1781 17.4432 27.2766C17.2286 27.3751 16.9999 27.4279 16.7501 27.4279C16.6726 27.4279 16.5847 27.4209 16.4897 27.4139C16.3947 27.4033 16.3067 27.3892 16.2293 27.3681C16.0499 27.3294 15.8915 27.2626 15.7614 27.1676C15.6276 27.0761 15.5045 26.967 15.3989 26.8474C15.318 26.7489 15.2476 26.6363 15.1914 26.5131C15.1315 26.39 15.0752 26.2739 15.0295 26.1613H15.0436C15.0049 26.0909 14.9662 26.0135 14.931 25.929C14.8958 25.8446 14.8501 25.7355 14.7973 25.6018C14.741 25.4681 14.6776 25.2957 14.5932 25.0881C14.5158 24.8805 14.4102 24.6131 14.2871 24.2894C14.1639 23.9657 14.0126 23.5787 13.8332 23.1213C13.6573 22.6639 13.4462 22.115 13.2104 21.4676H12.6299C12.4891 21.4676 12.3801 21.4218 12.2956 21.3339C12.2112 21.2459 12.1689 21.1333 12.1689 20.9926V20.3522C12.1689 20.3029 12.183 20.2396 12.2147 20.1587C12.2428 20.0813 12.278 20.0285 12.3202 20.0109C12.4293 19.9124 12.5595 19.8174 12.7214 19.7259C12.8586 19.6555 13.0275 19.5922 13.221 19.5324C13.4145 19.4726 13.6432 19.4444 13.8965 19.4444C14.1956 19.4444 14.4349 19.5218 14.6249 19.6766C14.8149 19.8279 14.9486 19.9863 15.0295 20.1446L16.7395 25.1479C16.8099 25.0001 16.8802 24.8207 16.9506 24.6131C17.021 24.4055 17.0878 24.1909 17.1582 23.9727C17.2286 23.7546 17.2954 23.54 17.3588 23.3324C17.4221 23.1248 17.4889 22.9453 17.5593 22.7976L16.8275 20.8026C16.7888 20.6935 16.7501 20.5914 16.7149 20.4964C16.6797 20.4014 16.6621 20.317 16.6621 20.2361C16.6621 20.0672 16.7254 19.9511 16.8556 19.8842C16.9823 19.8209 17.1476 19.7505 17.3447 19.6696C17.3834 19.6485 17.4291 19.6344 17.4784 19.6274C17.5276 19.6168 17.5664 19.6027 17.598 19.5816C17.7176 19.5324 17.8197 19.4972 17.9041 19.4796C17.9886 19.4585 18.0695 19.4479 18.1469 19.4479C18.3756 19.4479 18.5375 19.5042 18.6254 19.6133C18.7134 19.7224 18.7978 19.8913 18.8752 20.12L20.6204 25.0951L22.3621 20.134C22.4395 19.8948 22.531 19.7224 22.6295 19.6133C22.728 19.5042 22.8828 19.4479 23.0904 19.4479C23.1678 19.4479 23.2488 19.4585 23.3191 19.4796C23.393 19.5007 23.481 19.5289 23.5795 19.5676H23.5654L23.7589 19.6133C24.0299 19.7013 24.2304 19.7822 24.3641 19.8596C24.4978 19.9335 24.5647 20.0566 24.5647 20.2255C24.5647 20.2959 24.5471 20.3839 24.5189 20.4929C24.4908 20.602 24.4556 20.7076 24.4134 20.8061L22.3128 26.1085L22.3269 26.1014ZM27.6751 27.3998C27.4745 27.3787 27.2986 27.347 27.1438 27.3013C26.9889 27.259 26.8482 27.2098 26.718 27.1605C26.0917 26.872 25.6097 26.4146 25.2754 25.7777C24.9376 25.1409 24.7688 24.3914 24.7688 23.5294C24.7688 23.0614 24.8356 22.6146 24.9623 22.1889C25.0889 21.7596 25.2719 21.3761 25.5041 21.0348C25.7364 20.6935 26.0214 20.3979 26.3521 20.1551C26.6864 19.9124 27.0558 19.7364 27.4639 19.6274C27.8228 19.5359 28.2064 19.4937 28.611 19.4937C28.8889 19.4937 29.1071 19.4972 29.2654 19.5077C29.4238 19.5183 29.6067 19.5464 29.8178 19.5992C29.8952 19.5394 29.9902 19.5042 30.0923 19.4937C30.1943 19.4831 30.3315 19.4796 30.5039 19.4796H30.6975C30.9543 19.4796 31.1584 19.4796 31.3097 19.4866C31.4575 19.4901 31.5736 19.5218 31.651 19.5746C31.7319 19.6274 31.7812 19.7224 31.8023 19.849C31.8234 19.9792 31.8304 20.1657 31.8304 20.4155V25.7179H32.1436C32.2843 25.7179 32.3934 25.7601 32.4778 25.8516C32.5623 25.9396 32.6045 26.0487 32.6045 26.1789V26.7876C32.6045 26.8966 32.5834 26.9846 32.5447 27.0479C32.506 27.1148 32.4145 27.1711 32.2773 27.2203H32.2914C32.2632 27.2309 32.2034 27.2485 32.1119 27.2731C32.0239 27.2977 31.9114 27.3189 31.7847 27.34C31.6545 27.3576 31.5067 27.3751 31.3449 27.3822C31.1795 27.3927 31.0141 27.3927 30.8452 27.3822C30.4301 27.354 30.1204 27.2239 29.9234 26.9951C29.7545 27.0761 29.6243 27.1289 29.5364 27.1605C29.1176 27.3294 28.6391 27.4139 28.0902 27.4139H27.8686C27.7982 27.4139 27.7384 27.4068 27.6891 27.3998H27.6751ZM28.0445 25.447C28.1465 25.4681 28.2943 25.4681 28.4843 25.447C28.6778 25.4259 28.9101 25.3766 29.1775 25.2957C29.3182 25.2464 29.4132 25.2077 29.466 25.1831C29.5223 25.1585 29.5751 25.1374 29.6243 25.1163V21.5133C29.4871 21.4922 29.3288 21.4746 29.1493 21.4605C28.9699 21.4464 28.7834 21.4359 28.5828 21.4359C28.2556 21.4359 27.9882 21.5063 27.7841 21.6435C27.5801 21.7842 27.4217 21.9672 27.3056 22.1959C27.193 22.4246 27.1156 22.685 27.0769 22.97C27.0382 23.2585 27.0276 23.5505 27.0452 23.8496C27.0558 24.0396 27.0734 24.2226 27.098 24.3985C27.1226 24.5779 27.1719 24.7363 27.2493 24.8805C27.3232 25.0248 27.4217 25.1479 27.5449 25.2464C27.668 25.345 27.8334 25.4118 28.041 25.44L28.0445 25.447ZM35.4017 23.7792C35.4017 24.0396 35.4052 24.2929 35.4158 24.5463C35.4264 24.7996 35.4686 24.9931 35.5495 25.1198C35.6304 25.2605 35.7606 25.3344 35.9436 25.3485C36.1265 25.3626 36.313 25.3661 36.503 25.3555L36.8162 25.3379C36.9569 25.3274 37.0695 25.3379 37.161 25.3626C37.2489 25.3872 37.3228 25.4294 37.3826 25.4892C37.4425 25.549 37.4952 25.63 37.5375 25.7355C37.5832 25.8376 37.636 25.9642 37.6923 26.1155L37.7662 26.3231C37.8049 26.4322 37.826 26.5729 37.826 26.7418C37.826 26.9001 37.7732 27.0198 37.6712 27.0972C37.5656 27.1781 37.3932 27.2414 37.1434 27.2907C36.9921 27.3329 36.8408 27.3576 36.6825 27.3681C36.5241 27.3787 36.3658 27.3822 36.2039 27.3822C35.6973 27.3822 35.2117 27.2907 34.7438 27.1148C34.2758 26.9353 33.9204 26.6433 33.6706 26.2387C33.4806 25.929 33.361 25.5666 33.3082 25.1444C33.2519 24.7222 33.2273 24.2683 33.2273 23.7827L33.2132 18.1531C33.2132 17.9174 33.2202 17.7344 33.2343 17.6113C33.2484 17.4881 33.2941 17.3966 33.361 17.3368C33.4314 17.277 33.5264 17.2418 33.653 17.2348C33.7762 17.2242 33.9521 17.2207 34.1808 17.2207H34.3462C34.5854 17.2207 34.7719 17.2242 34.9126 17.2348C35.0534 17.2453 35.1554 17.2805 35.2258 17.3368C35.2926 17.3966 35.3384 17.4881 35.3595 17.6113C35.3806 17.7344 35.3876 17.9174 35.3876 18.1531V19.5394H36.8654C37.073 19.5394 37.2349 19.5429 37.358 19.557C37.4741 19.5676 37.5586 19.5957 37.6114 19.645C37.6641 19.6942 37.6923 19.7751 37.6993 19.8913C37.7099 20.0074 37.7134 20.1692 37.7134 20.3768V20.4683C37.7134 20.6477 37.7134 20.8026 37.6993 20.9363C37.6888 21.07 37.6536 21.1826 37.5973 21.2705C37.5375 21.3585 37.446 21.4253 37.3228 21.4711C37.1997 21.5133 37.0167 21.5379 36.781 21.5379H35.3947L35.4123 23.7863L35.4017 23.7792ZM42.2839 25.4048C42.4493 25.3942 42.6534 25.3766 42.8856 25.352C43.1178 25.3274 43.3923 25.2816 43.7125 25.2113C43.8321 25.1937 43.9341 25.1726 44.0186 25.1585C44.103 25.1444 44.1839 25.1374 44.2649 25.1374C44.4725 25.1374 44.6167 25.2007 44.6941 25.3309C44.7751 25.4611 44.8806 25.6792 45.0108 25.9853C45.0776 26.1718 45.1128 26.3231 45.1128 26.4322C45.1128 26.7207 44.9651 26.9142 44.673 27.0127C44.381 27.1113 43.9939 27.1992 43.5189 27.2801C43.0228 27.3716 42.4317 27.4139 41.7456 27.4139C41.0595 27.4139 40.5036 27.3153 40.0778 27.1148C39.8773 27.0163 39.6838 26.8966 39.4867 26.7594C39.2932 26.6222 39.1278 26.4639 38.9871 26.2844C38.4206 25.5983 38.1391 24.6553 38.1391 23.4555C38.1391 22.8926 38.2271 22.3648 38.3995 21.8792C38.5719 21.3937 38.8006 20.982 39.0786 20.6548C39.2967 20.4085 39.5114 20.2009 39.7189 20.0355C39.9265 19.8737 40.1588 19.747 40.4086 19.6555C40.6619 19.5676 40.9469 19.5042 41.2601 19.4761C41.5732 19.4444 41.9356 19.4374 42.3543 19.4444C42.4739 19.4444 42.6252 19.4585 42.8082 19.4901C42.9912 19.5183 43.1882 19.5781 43.4064 19.6696C43.6175 19.7576 43.8356 19.8842 44.0467 20.0496C44.2614 20.215 44.4549 20.4296 44.6273 20.697C44.8032 20.9644 44.9439 21.2987 45.053 21.6927C45.1621 22.0903 45.2184 22.5689 45.2184 23.1248C45.2184 23.4133 45.1762 23.635 45.0917 23.7968C45.0073 23.9551 44.9052 24.0713 44.7856 24.1451C44.666 24.219 44.5499 24.2648 44.4267 24.2789C44.3071 24.2964 44.2191 24.3035 44.1593 24.3035H40.4051C40.4156 24.4724 40.4508 24.6201 40.5176 24.7503C40.581 24.877 40.6549 24.9826 40.7323 25.0635C40.8625 25.2042 41.0384 25.2992 41.2706 25.3555C41.4993 25.4083 41.8336 25.4294 42.2839 25.4083V25.4048ZM40.9575 21.5027C40.7112 21.6822 40.5458 22.0305 40.4684 22.5442H43.3571C43.2797 22.0305 43.1143 21.6787 42.8645 21.5027C42.6182 21.3233 42.3051 21.2353 41.9251 21.2353H41.8969C41.5204 21.2353 41.2073 21.3233 40.9575 21.5027ZM49.0465 19.5218C49.1943 19.5042 49.3843 19.4866 49.613 19.469C49.8417 19.455 50.0704 19.4444 50.2991 19.4444H50.4188C50.5701 19.4444 50.7143 19.4444 50.8515 19.4514C50.9888 19.4585 51.1084 19.4796 51.2104 19.5183C51.3089 19.5605 51.3899 19.6168 51.4497 19.6907C51.506 19.7646 51.5376 19.8772 51.5376 20.025C51.5376 20.0742 51.5306 20.1446 51.5165 20.2326C51.4989 20.3205 51.4778 20.405 51.4497 20.4859L51.3758 20.7076C51.3265 20.8553 51.2808 20.982 51.2421 21.0876C51.1999 21.1896 51.1541 21.274 51.1014 21.3339C51.0451 21.3937 50.9712 21.4324 50.8797 21.4535C50.7847 21.4711 50.6615 21.4711 50.5138 21.4535C50.3343 21.4218 50.1795 21.4077 50.0528 21.4077C49.8241 21.4077 49.5884 21.4218 49.3456 21.4464C49.1028 21.4711 48.8776 21.5098 48.6701 21.559V26.3548C48.6701 26.7313 48.6173 26.9811 48.5117 27.1077C48.4062 27.2309 48.181 27.2942 47.8326 27.2942H47.2978C47.1184 27.2942 46.9706 27.2872 46.858 27.2661C46.7454 27.245 46.6575 27.1992 46.5976 27.1324C46.5378 27.0655 46.4991 26.967 46.478 26.8439C46.4569 26.7207 46.4464 26.5589 46.4464 26.3583L46.478 21.4605H46.1332C46.003 21.4605 45.8939 21.4148 45.806 21.3233C45.718 21.2353 45.6723 21.1192 45.6723 20.982V20.3416C45.6723 20.2326 45.6899 20.1516 45.7251 20.1059C45.7567 20.0566 45.7849 20.025 45.806 20.0179C45.9256 19.9194 46.0628 19.8244 46.2212 19.7329C46.3584 19.652 46.5273 19.5851 46.7208 19.5253C46.9143 19.4655 47.1395 19.4339 47.3964 19.4339C47.6039 19.4339 47.7834 19.4655 47.9347 19.5324C48.086 19.5992 48.2126 19.6801 48.3217 19.7787C48.4308 19.7189 48.5504 19.6661 48.6771 19.6239C48.8073 19.5781 48.9304 19.5464 49.0501 19.5253L49.0465 19.5218ZM53.6593 31.3159C53.4306 31.3159 53.2547 31.3089 53.1315 31.2983C53.0049 31.2877 52.9134 31.2526 52.8465 31.1927C52.7832 31.1329 52.7445 31.0414 52.7269 30.9183C52.7128 30.7951 52.7058 30.6157 52.7058 30.387V21.4816H52.361C52.2238 21.4816 52.1076 21.4394 52.0267 21.355C51.9423 21.2705 51.9001 21.1614 51.9001 21.0207V20.3803C51.9001 20.3311 51.9141 20.2677 51.9458 20.1868C51.9739 20.1059 51.9986 20.0566 52.0197 20.0355C52.1393 19.937 52.2765 19.842 52.4384 19.754C52.5791 19.6766 52.7445 19.6063 52.938 19.5464C53.1315 19.4866 53.3602 19.4585 53.6171 19.4585C53.8247 19.4585 54.0147 19.4972 54.1836 19.5781C54.3525 19.659 54.4932 19.754 54.6023 19.8596L54.9893 19.6977C55.4045 19.5289 55.8936 19.4444 56.4495 19.4444H56.4636C56.7204 19.4444 56.9738 19.4726 57.2165 19.5253C57.4558 19.5816 57.6493 19.6379 57.7901 19.6977C58.4234 19.9933 58.9089 20.4577 59.2432 21.0805C59.5775 21.7068 59.7428 22.4563 59.7428 23.3289C59.7428 23.8848 59.6549 24.4055 59.4825 24.8946C59.3101 25.3801 59.0884 25.7989 58.821 26.1437C58.5395 26.499 58.2404 26.7559 57.9132 26.9107C57.5825 27.0655 57.301 27.1746 57.0652 27.2309C56.8752 27.2801 56.6888 27.3118 56.5058 27.3259C56.3228 27.34 56.1258 27.347 55.9182 27.347H55.4115C55.2638 27.347 55.1336 27.3364 55.0245 27.3153C55.0034 27.3153 54.9858 27.3118 54.9647 27.3013C54.9471 27.2907 54.926 27.2801 54.9084 27.2731V30.3835C54.9084 30.6122 54.8943 30.7881 54.8697 30.9148C54.8451 31.0379 54.7923 31.1294 54.7184 31.1892C54.6445 31.249 54.5354 31.2842 54.3912 31.2948C54.2469 31.3053 54.0639 31.3124 53.8317 31.3124H53.6664L53.6593 31.3159ZM56.4776 21.3972C56.3686 21.3761 56.2138 21.3726 56.0167 21.3796C55.8162 21.3901 55.598 21.45 55.3623 21.559C55.1723 21.64 55.0175 21.7244 54.9014 21.8124V25.3555C55.028 25.3766 55.1828 25.3907 55.3623 25.4013C55.5417 25.4118 55.7282 25.4189 55.9288 25.4189C56.2947 25.4189 56.5339 25.3766 56.643 25.2992C56.833 25.2113 56.9808 25.0811 57.0899 24.9122C57.1989 24.7433 57.2834 24.5568 57.3432 24.3457C57.403 24.1381 57.4417 23.92 57.4628 23.6913C57.4839 23.4626 57.4875 23.2409 57.4804 23.0227C57.4699 22.8363 57.4523 22.6498 57.4277 22.4633C57.403 22.2803 57.3538 22.1114 57.2869 21.9637C57.2201 21.8159 57.118 21.6892 56.9914 21.5907C56.8612 21.4922 56.6923 21.4289 56.4847 21.3972H56.4776ZM62.7617 25.7003H63.0749C63.2121 25.7003 63.3282 25.7461 63.4197 25.834C63.5112 25.922 63.5534 26.0311 63.5534 26.1613V26.7735C63.5534 26.8439 63.5041 26.9283 63.4021 27.0268C63.3036 27.1253 63.2051 27.1992 63.103 27.252C63.0538 27.2731 62.9095 27.3048 62.6702 27.3576C62.431 27.4068 62.1214 27.4103 61.7308 27.3716C61.4528 27.3435 61.2347 27.2696 61.0764 27.157C60.918 27.0409 60.8019 26.9142 60.7245 26.77C60.6506 26.6257 60.6049 26.4885 60.5838 26.3618C60.5627 26.2316 60.5556 26.1366 60.5556 26.0768V18.139C60.5556 17.9103 60.5697 17.7344 60.5943 17.6113C60.6189 17.4881 60.6682 17.3966 60.7421 17.3368C60.816 17.277 60.9215 17.2418 61.0623 17.2348C61.203 17.2242 61.386 17.2207 61.6112 17.2207H61.7765C62.0052 17.2207 62.1847 17.2242 62.3149 17.2348C62.4451 17.2453 62.5436 17.2805 62.6104 17.3368C62.6808 17.3966 62.723 17.4881 62.7371 17.6113C62.7547 17.7344 62.7617 17.9103 62.7617 18.139V25.7039V25.7003ZM66.7236 27.3998C66.523 27.3787 66.3471 27.347 66.1958 27.3013C66.041 27.259 65.9002 27.2098 65.7701 27.1605C65.1438 26.872 64.6617 26.4146 64.3275 25.7777C63.9897 25.1409 63.8208 24.3914 63.8208 23.5294C63.8208 23.0614 63.8877 22.6146 64.0143 22.1889C64.141 21.7596 64.3239 21.3761 64.5562 21.0348C64.7884 20.6935 65.0734 20.3979 65.4041 20.1551C65.7349 19.9124 66.1043 19.7364 66.5125 19.6274C66.8714 19.5359 67.2514 19.4937 67.6595 19.4937C67.9375 19.4937 68.1556 19.4972 68.3139 19.5077C68.4723 19.5183 68.6588 19.5464 68.8664 19.5992C68.9438 19.5394 69.0352 19.5042 69.1408 19.4937C69.2428 19.4831 69.3801 19.4796 69.5489 19.4796H69.7425C69.9993 19.4796 70.2034 19.4796 70.3512 19.4866C70.4989 19.4901 70.6151 19.5218 70.696 19.5746C70.7734 19.6274 70.8262 19.7224 70.8438 19.849C70.8649 19.9792 70.8719 20.1657 70.8719 20.4155V25.7179H71.1851C71.3258 25.7179 71.4349 25.7601 71.5193 25.8516C71.6038 25.9396 71.646 26.0487 71.646 26.1789V26.7876C71.646 26.8966 71.6249 26.9846 71.5897 27.0479C71.551 27.1148 71.4595 27.1711 71.3188 27.2203H71.3328C71.3047 27.2309 71.2449 27.2485 71.1534 27.2731C71.0619 27.2977 70.9564 27.3189 70.8262 27.34C70.696 27.3576 70.5482 27.3751 70.3864 27.3822C70.221 27.3927 70.0556 27.3927 69.8867 27.3822C69.4715 27.354 69.1619 27.2239 68.9649 26.9951C68.796 27.0761 68.6658 27.1289 68.5778 27.1605C68.1627 27.3294 67.6771 27.4139 67.1352 27.4139H66.9101C66.8397 27.4139 66.7799 27.4068 66.7306 27.3998H66.7165H66.7236ZM67.093 25.447C67.1915 25.4681 67.3393 25.4681 67.5328 25.447C67.7264 25.4259 67.9586 25.3766 68.226 25.2957C68.3632 25.2464 68.4617 25.2077 68.518 25.1831C68.5708 25.1585 68.6236 25.1374 68.6728 25.1163V21.5133C68.5356 21.4922 68.3738 21.4746 68.1978 21.4605C68.0184 21.4464 67.8319 21.4359 67.6314 21.4359C67.3041 21.4359 67.0367 21.5063 66.8326 21.6435C66.6286 21.7842 66.4702 21.9672 66.3541 22.1959C66.2415 22.4246 66.1641 22.685 66.1254 22.97C66.0867 23.2585 66.0727 23.5505 66.0938 23.8496C66.1043 24.0396 66.1219 24.2226 66.1465 24.3985C66.1712 24.5779 66.2204 24.7363 66.2943 24.8805C66.3682 25.0248 66.4667 25.1479 66.5899 25.2464C66.713 25.345 66.8784 25.4118 67.0895 25.44L67.093 25.447ZM75.2841 21.4289C74.9077 21.4007 74.6402 21.4359 74.4819 21.5344C74.3201 21.6329 74.2532 21.7666 74.2708 21.9355C74.2919 22.0551 74.3799 22.129 74.5382 22.1572C74.6789 22.1994 74.8197 22.2311 74.9675 22.2557C75.1188 22.2803 75.2771 22.3085 75.446 22.3366C75.8225 22.3964 76.1954 22.4739 76.5684 22.5689C76.9414 22.6639 77.2439 22.78 77.4832 22.9207C77.8104 23.1107 78.0602 23.3429 78.2362 23.6209C78.4086 23.8989 78.4965 24.2964 78.4965 24.8137C78.4965 25.2922 78.4543 25.6651 78.3628 25.9466C78.2538 26.2563 78.0708 26.5342 77.8139 26.7876C77.5536 27.0409 77.2264 27.2309 76.8323 27.3611C76.5332 27.4526 76.1286 27.4948 75.6078 27.4948C75.2208 27.4948 74.8091 27.4666 74.3728 27.4139C73.933 27.3576 73.5073 27.2731 73.0921 27.15C72.7719 27.0514 72.5362 26.96 72.3849 26.8755C72.2301 26.7911 72.1527 26.6503 72.1527 26.4533C72.1527 26.3231 72.1949 26.1507 72.2723 25.9326C72.4025 25.6159 72.5115 25.3977 72.5995 25.2781C72.6875 25.1585 72.8212 25.0987 73.0006 25.0987C73.078 25.0987 73.1695 25.1057 73.268 25.1268C73.3665 25.1444 73.4756 25.1726 73.5952 25.2007C73.9717 25.2816 74.3306 25.345 74.6719 25.3942C75.0167 25.4435 75.3158 25.4681 75.5762 25.4681C75.7556 25.4681 75.8964 25.4646 76.0019 25.454C76.1039 25.4435 76.1849 25.4224 76.2377 25.3872C76.2939 25.352 76.3291 25.2922 76.3432 25.2077C76.3608 25.1233 76.3678 25.0072 76.3678 24.8559C76.3678 24.7855 76.3502 24.7292 76.308 24.687C76.2693 24.6413 76.1849 24.5955 76.0547 24.5533C75.928 24.5076 75.7415 24.4653 75.4988 24.4196C75.256 24.3739 74.9358 24.314 74.5382 24.2331C73.9401 24.124 73.4475 23.9094 73.0569 23.5857C72.6664 23.262 72.413 22.8785 72.3039 22.4316C72.2828 22.3613 72.2723 22.2803 72.2688 22.1853C72.2652 22.0939 72.2617 21.9953 72.2617 21.8968C72.2617 21.2318 72.4658 20.6794 72.8704 20.2431C73.3665 19.6977 74.0843 19.4339 75.0167 19.455C75.8506 19.455 76.6634 19.55 77.4586 19.74L77.6521 19.7822C77.8702 19.835 78.018 19.9194 78.0919 20.0426C78.1658 20.1657 78.2045 20.3135 78.2045 20.4824C78.2045 20.5844 78.1939 20.6829 78.1728 20.7814C78.1517 20.88 78.1236 20.9926 78.0849 21.1227C78.018 21.3409 77.9547 21.4992 77.9054 21.6013C77.8562 21.6998 77.733 21.749 77.5325 21.749C77.3952 21.749 77.2439 21.7314 77.0856 21.6892C76.7971 21.6294 76.5051 21.5766 76.206 21.5344C75.9104 21.4887 75.6008 21.457 75.2806 21.4394L75.2841 21.4289ZM81.4204 23.7792C81.4204 24.0396 81.4239 24.2929 81.4345 24.5463C81.4451 24.7996 81.4908 24.9931 81.5682 25.1198C81.6491 25.2605 81.7793 25.3344 81.9623 25.3485C82.1452 25.3626 82.3317 25.3661 82.5217 25.3555L82.8349 25.3379C82.9721 25.3274 83.0882 25.3379 83.1762 25.3626C83.2641 25.3872 83.3415 25.4294 83.3978 25.4892C83.4576 25.549 83.5104 25.63 83.5527 25.7355C83.5984 25.8376 83.6512 25.9642 83.711 26.1155L83.7849 26.3231C83.8236 26.4322 83.8447 26.5729 83.8447 26.7418C83.8447 26.9001 83.7919 27.0198 83.6864 27.0972C83.5808 27.1781 83.4049 27.2414 83.1586 27.2907C83.0073 27.3329 82.856 27.3576 82.6976 27.3681C82.5358 27.3787 82.3775 27.3822 82.2191 27.3822C81.7125 27.3822 81.2269 27.2907 80.7589 27.1148C80.291 26.9353 79.9356 26.6433 79.6858 26.2387C79.4993 25.929 79.3762 25.5666 79.3234 25.1444C79.2671 24.7222 79.2425 24.2683 79.2425 23.7827L79.2284 18.1531C79.2284 17.9174 79.2354 17.7344 79.253 17.6113C79.2671 17.4881 79.3093 17.3966 79.3797 17.3368C79.4501 17.277 79.5451 17.2418 79.6717 17.2348C79.7949 17.2242 79.9708 17.2207 80.1995 17.2207H80.3649C80.6006 17.2207 80.7906 17.2242 80.9278 17.2348C81.0686 17.2453 81.1706 17.2805 81.241 17.3368C81.3114 17.3966 81.3571 17.4881 81.3782 17.6113C81.3993 17.7344 81.4064 17.9174 81.4064 18.1531V19.5394H82.8806C83.0882 19.5394 83.2536 19.5429 83.3697 19.557C83.4893 19.5676 83.5738 19.5957 83.623 19.645C83.6723 19.6942 83.7039 19.7751 83.7145 19.8913C83.7215 20.0074 83.7286 20.1692 83.7286 20.3768V20.4683C83.7286 20.6477 83.7251 20.8026 83.7145 20.9363C83.7039 21.07 83.6688 21.1826 83.6089 21.2705C83.5491 21.3585 83.4577 21.4253 83.3345 21.4711C83.2114 21.5133 83.0284 21.5379 82.7891 21.5379H81.4028L81.4169 23.7863L81.4204 23.7792ZM86.1528 27.3892C85.2275 27.3892 84.4745 26.6363 84.4745 25.7109C84.4745 24.7855 85.2275 24.0326 86.1528 24.0326C87.0782 24.0326 87.8312 24.7855 87.8312 25.7109C87.8312 26.6363 87.0782 27.3892 86.1528 27.3892ZM86.1528 24.2261C85.333 24.2261 84.668 24.8911 84.668 25.7109C84.668 26.5307 85.333 27.1957 86.1528 27.1957C86.9727 27.1957 87.6377 26.5307 87.6377 25.7109C87.6377 24.8911 86.9727 24.2261 86.1528 24.2261ZM86.7932 25.5983C86.7017 25.7109 86.5856 25.7777 86.4484 25.8059L86.9304 26.7629H86.6771L86.2126 25.8411H85.7165V26.7629H85.4949V24.592H86.1915C86.4449 24.592 86.6349 24.6518 86.751 24.7679C86.8706 24.884 86.9304 25.0353 86.9304 25.2148C86.9304 25.3626 86.8847 25.4892 86.7897 25.5983H86.7932ZM86.1951 25.644C86.5082 25.644 86.6982 25.4857 86.6982 25.2148C86.6982 24.9263 86.5293 24.782 86.1951 24.782H85.7201V25.644H86.1951Z" fill="#005CB9"/>
</g>
<path d="M50.5 54L41.4067 39H59.5933L50.5 54Z" fill="#005CB9"/>
<defs>
<clipPath id="clip0_1383_24">
<rect width="76" height="25.3333" fill="white" transform="translate(12 7.3335)"/>
</clipPath>
</defs>
</svg>
