<svg width="37" height="37" viewBox="0 0 37 37" fill="none" xmlns="http://www.w3.org/2000/svg">
<g clip-path="url(#clip0_1234_1804)">
<path d="M35.78 6.17001H32.63C32.63 6.17001 32.6 6.17001 32.585 6.17001C32.525 6.17001 32.48 6.18501 32.435 6.20001C32.39 6.20001 32.36 6.23001 32.315 6.24501C32.27 6.26001 32.24 6.29001 32.195 6.32001C32.165 6.35001 32.12 6.38001 32.105 6.41001C32.075 6.44001 32.06 6.48501 32.03 6.51501C32 6.56001 31.985 6.60501 31.97 6.65001C31.97 6.66501 31.955 6.68001 31.94 6.69501L30.635 11.75L24.83 34.325H12.185L11.375 31.205H15.98C16.385 31.205 16.7 30.89 16.7 30.485C16.7 30.08 16.385 29.765 15.98 29.765H11L10.145 26.435H14.75C15.155 26.435 15.47 26.12 15.47 25.715C15.47 25.31 15.155 24.995 14.75 24.995H9.77L8.915 21.665H13.52C13.925 21.665 14.24 21.35 14.24 20.945C14.24 20.54 13.925 20.225 13.52 20.225H8.54L5.075 6.71001C5 6.39501 4.7 6.17001 4.37 6.17001H1.22C0.815 6.17001 0.5 6.48501 0.5 6.89001C0.5 7.29501 0.815 7.61001 1.22 7.61001H3.815L10.925 35.255C11 35.57 11.3 35.795 11.63 35.795H25.385C25.715 35.795 26 35.57 26.09 35.255L32.045 12.14L33.215 7.62501H35.81C36.215 7.62501 36.53 7.31001 36.53 6.90501C36.53 6.50001 36.215 6.18501 35.81 6.18501L35.78 6.17001Z" fill="#010101"/>
<path d="M9.10973 16.265C10.5347 16.94 11.9297 17.285 13.2647 17.285C13.5947 17.285 13.9097 17.27 14.2247 17.225C15.2747 17.09 15.9347 16.79 16.5197 16.535C17.1197 16.265 17.5997 16.04 18.4547 16.04C19.3247 16.01 19.8197 16.25 20.4347 16.535C21.0347 16.805 21.7097 17.105 22.7747 17.24C24.3947 17.435 26.1197 17.12 27.8897 16.28C28.2497 16.115 28.3997 15.68 28.2347 15.32C28.0697 14.96 27.6347 14.81 27.2747 14.975C25.7597 15.695 24.2897 15.965 22.9547 15.815C22.0997 15.71 21.5897 15.47 21.0347 15.23C20.3447 14.93 19.5947 14.615 18.4547 14.615C17.2997 14.615 16.5947 14.93 15.9347 15.245C15.3947 15.485 14.8847 15.725 14.0597 15.83C12.7097 15.995 11.2547 15.725 9.73973 14.99C9.37973 14.825 8.94473 14.975 8.77973 15.335C8.61473 15.695 8.76473 16.13 9.12473 16.295L9.10973 16.265Z" fill="#010101"/>
<path d="M14.0756 4.79003L14.9455 3.81503V12.29C14.9455 12.695 15.2605 13.01 15.6655 13.01C16.0705 13.01 16.3855 12.695 16.3855 12.29V3.87503L17.1505 4.77503C17.2856 4.94003 17.4956 5.03003 17.7056 5.03003C17.8706 5.03003 18.0355 4.97003 18.1705 4.86503C18.4705 4.61003 18.5155 4.16003 18.2605 3.84503L16.2205 1.44503C16.1455 1.35503 16.0555 1.29503 15.9505 1.25003C15.9505 1.25003 15.9505 1.25003 15.9355 1.23503C15.9205 1.23503 15.9056 1.23503 15.8905 1.23503C15.7855 1.20503 15.6655 1.19003 15.5605 1.22003C15.5455 1.22003 15.5155 1.22003 15.5005 1.22003C15.3955 1.25003 15.3055 1.29503 15.2305 1.35503C15.2155 1.35503 15.2005 1.38503 15.1855 1.40003C15.1855 1.40003 15.1556 1.40003 15.1556 1.41503L13.0405 3.81503C12.7705 4.11503 12.8005 4.56503 13.1005 4.83503C13.4005 5.09003 13.8505 5.07503 14.1205 4.77503L14.0756 4.79003Z" fill="#010101"/>
<path d="M20.7954 12.77C20.8704 12.86 20.9754 12.92 21.0804 12.965C21.1704 12.995 21.2454 13.01 21.3354 13.01C21.4254 13.01 21.5154 12.995 21.6054 12.95C21.6354 12.95 21.6654 12.92 21.6954 12.905C21.7404 12.89 21.7704 12.875 21.8154 12.845C21.8154 12.845 21.8304 12.815 21.8454 12.8C21.8454 12.8 21.8754 12.785 21.8904 12.77L24.0054 10.37C24.2754 10.07 24.2454 9.61999 23.9454 9.34999C23.6454 9.09499 23.1954 9.10999 22.9254 9.40999L22.0554 10.385V1.92499C22.0554 1.51999 21.7404 1.20499 21.3354 1.20499C20.9304 1.20499 20.6154 1.51999 20.6154 1.92499V10.34L19.8504 9.43999C19.5954 9.13999 19.1454 9.09499 18.8304 9.36499C18.5304 9.61999 18.4854 10.07 18.7404 10.385L20.7804 12.785L20.7954 12.77Z" fill="#010101"/>
</g>
<defs>
<clipPath id="clip0_1234_1804">
<rect width="36" height="36" fill="white" transform="translate(0.5 0.5)"/>
</clipPath>
</defs>
</svg>
