<?xml version="1.0" encoding="UTF-8"?>
<svg id="Capa_1" data-name="Capa 1" xmlns="http://www.w3.org/2000/svg" viewBox="0 0 24 24">
  <defs>
    <style>
      .cls-1 {
        fill: #010101;
      }
    </style>
  </defs>
  <path class="cls-1" d="M16.18,8.37h-1.18v-.1c0-.55-.5-.97-1.14-.97h-3.73c-.64,0-1.14.43-1.14.97v.1h-1.18c-1.06,0-1.92.7-1.92,1.56v12.51c0,.86.86,1.56,1.92,1.56h8.35c1.06,0,1.92-.7,1.92-1.56v-12.51c0-.86-.86-1.56-1.92-1.56ZM17.13,22.44c0,.28-.39.6-.96.6H7.82c-.56,0-.96-.32-.96-.6v-12.51c0-.28.39-.6.96-.6h1.66c.27,0,.48-.21.48-.48v-.53s.06-.06.18-.06h3.73c.11,0,.17.04.18.02v.57c0,.27.21.48.48.48h1.66c.56,0,.96.32.96.6v12.51Z"/>
  <path class="cls-1" d="M21.63,6.91L14.06.8C13.37.24,12.56-.05,11.72,0c-.59.05-1.18.3-1.74.76L2.37,6.91c-.85.69-1.34,1.7-1.34,2.79v11.3c0,1.65,1.35,3,3,3,.27,0,.48-.21.48-.48s-.21-.48-.48-.48c-1.12,0-2.04-.91-2.04-2.04v-11.3c0-.8.36-1.55.98-2.05L10.58,1.51c.41-.33.82-.52,1.25-.55.55-.03,1.11.18,1.62.59l7.57,6.11c.62.5.98,1.25.98,2.05v11.3c0,1.12-.92,2.04-2.04,2.04-.27,0-.48.21-.48.48s.21.48.48.48c1.65,0,3-1.35,3-3v-11.3c0-1.09-.49-2.11-1.34-2.79Z"/>
</svg>