<?xml version="1.0" encoding="UTF-8"?>
<svg id="Capa_1" data-name="Capa 1" xmlns="http://www.w3.org/2000/svg" viewBox="0 0 24 24">
  <defs>
    <style>
      .cls-1 {
        fill: #010101;
      }
    </style>
  </defs>
  <path class="cls-1" d="M18.62,10.2c.37-.85.58-1.78.58-2.76,0-3.83-3.12-6.95-6.95-6.95s-6.95,3.12-6.95,6.95c0,.8.14,1.57.4,2.29C2.55,10.3.23,12.91.02,16.1c-.01.06-.02.12,0,.18,0,.09-.01.19-.01.28C0,20.4,3.12,23.52,6.95,23.52c.12,0,.24-.01.36-.02.03,0,.06.02.09.02.05,0,.11-.01.16-.03,2.04-.18,3.83-1.25,4.98-2.81,1.19,1.44,2.98,2.35,4.99,2.35,3.57,0,6.46-2.89,6.46-6.46,0-3.2-2.33-5.85-5.38-6.36ZM12.25,1.46c3.29,0,5.97,2.68,5.97,5.97,0,.96-.23,1.86-.64,2.67-.01,0-.03,0-.04,0-2.42,0-4.52,1.33-5.63,3.29-3.14-.18-5.64-2.78-5.64-5.96S8.95,1.46,12.25,1.46ZM6.95,22.54c-.19,0-.39-.01-.58-.03l4.8-4.82c.04.24.09.47.16.7l-4.12,4.13c-.09,0-.18.01-.27.01ZM4.48,22l6.73-6.75c-.08.37-.12.76-.13,1.15l-5.86,5.88c-.25-.08-.5-.17-.74-.28ZM3.11,21.13l7.04-7.06c.22.07.45.13.68.18l-7.23,7.26c-.17-.12-.33-.24-.49-.37ZM.98,16.56c0-.05.01-.11.01-.16l5.33-5.34c.11.17.22.34.34.5l-5.65,5.62c-.02-.2-.03-.41-.03-.62ZM1.25,18.33l6.05-6.02c.13.13.27.26.42.38l-6.23,6.25c-.09-.2-.17-.41-.23-.62ZM5.1,10.9l-3.81,3.82c.58-1.81,1.98-3.24,3.81-3.82ZM1.97,19.85l6.54-6.56c.21.14.43.26.66.37l-6.75,6.77c-.16-.19-.31-.38-.44-.58ZM8.93,22.19l2.8-2.81c.07.15.15.29.23.43-.71,1.09-1.77,1.94-3.02,2.38Z"/>
</svg>