<svg width="37" height="37" viewBox="0 0 37 37" fill="none" xmlns="http://www.w3.org/2000/svg">
<g clip-path="url(#clip0_1234_1799)">
<path d="M29.9901 23.465V8.60003C29.9901 8.60003 29.9601 8.51003 29.9601 8.48003C29.9601 8.43503 29.9451 8.39003 29.9301 8.34503C29.9001 8.28503 29.8851 8.22503 29.8401 8.16503C29.8101 8.12003 29.7501 8.07503 29.7051 8.03003C29.6751 8.00003 29.6451 7.95503 29.6151 7.94003C29.6151 7.94003 29.6001 7.94003 29.5851 7.94003L16.9101 0.605034C16.6701 0.470034 16.3851 0.470034 16.1601 0.605034L3.47008 7.95503C3.36508 8.01503 3.29008 8.10503 3.21508 8.21003C3.20008 8.24003 3.18508 8.27003 3.17008 8.30003C3.12508 8.37503 3.11008 8.46503 3.09508 8.55503C3.09508 8.57003 3.08008 8.60003 3.08008 8.61503V23.48C3.08008 23.75 3.23008 24.005 3.47008 24.14L16.1601 31.325C16.2801 31.385 16.4001 31.415 16.5351 31.415C16.6701 31.415 16.7901 31.385 16.9101 31.325L29.6001 24.14C29.8401 24.005 29.9901 23.75 29.9901 23.48V23.465ZM28.4901 23.03L17.3001 29.36V16.46L21.4251 14.045C21.7851 13.835 21.9051 13.37 21.6951 13.01C21.4851 12.65 21.0201 12.53 20.6601 12.74L16.5351 15.155L12.4101 12.74C12.0501 12.53 11.5851 12.65 11.3751 13.01C11.1651 13.37 11.2851 13.835 11.6451 14.045L15.7701 16.46V29.36L4.58008 23.03V9.92003L8.04508 11.96C8.40508 12.17 8.87008 12.05 9.08008 11.69C9.29008 11.33 9.17008 10.865 8.81008 10.655L5.31508 8.61503L16.5351 2.12003L27.7401 8.60003L24.2601 10.64C23.9001 10.85 23.7801 11.315 23.9901 11.675C24.2001 12.035 24.6651 12.155 25.0251 11.945L28.4901 9.90503V23.015V23.03Z" fill="#010101"/>
<path d="M14.72 34.91V34.88L14.525 32.84C14.48 32.42 14.09 32.135 13.7 32.165C13.28 32.21 12.98 32.57 13.025 32.99L13.085 33.59L3.02004 27.89L3.54504 27.68C3.93504 27.53 4.13004 27.095 3.96504 26.705C3.81504 26.315 3.36504 26.135 2.99004 26.285L0.980039 27.08C0.980039 27.08 0.920039 27.125 0.890039 27.14C0.875039 27.14 0.845039 27.14 0.830039 27.155C0.830039 27.155 0.815039 27.185 0.800039 27.2C0.710039 27.275 0.620039 27.365 0.575039 27.47C0.575039 27.47 0.575039 27.47 0.575039 27.485C0.530039 27.605 0.515039 27.725 0.530039 27.845C0.530039 27.86 0.530039 27.875 0.530039 27.89L0.845039 30.125C0.905039 30.545 1.28004 30.815 1.70004 30.77C2.10504 30.71 2.40504 30.335 2.34504 29.915L2.24004 29.195L12.23 34.85L11.66 35.075C11.27 35.225 11.075 35.66 11.225 36.05C11.345 36.35 11.63 36.53 11.93 36.53C12.02 36.53 12.11 36.515 12.2 36.485L14.255 35.69C14.255 35.69 14.315 35.645 14.345 35.63C14.36 35.63 14.375 35.63 14.39 35.615C14.405 35.615 14.405 35.585 14.42 35.57C14.51 35.51 14.57 35.435 14.63 35.345C14.63 35.33 14.66 35.315 14.66 35.3C14.705 35.195 14.735 35.075 14.72 34.955V34.91Z" fill="#010101"/>
<path d="M32.465 27.455C32.465 27.455 32.435 27.425 32.435 27.41C32.39 27.32 32.315 27.245 32.24 27.185C32.225 27.185 32.225 27.155 32.195 27.14C32.18 27.14 32.15 27.14 32.135 27.125C32.105 27.11 32.09 27.08 32.06 27.08L30.005 26.285C29.615 26.135 29.18 26.33 29.03 26.72C28.88 27.11 29.075 27.545 29.465 27.695L30.035 27.92L20.045 33.575L20.15 32.855C20.21 32.45 19.925 32.06 19.505 32C19.1 31.955 18.71 32.225 18.65 32.645L18.335 34.88C18.335 34.88 18.335 34.91 18.335 34.925C18.335 35.045 18.335 35.18 18.38 35.285C18.425 35.39 18.515 35.48 18.605 35.555C18.605 35.555 18.62 35.585 18.635 35.6C18.65 35.6 18.665 35.6 18.695 35.615C18.725 35.63 18.755 35.66 18.785 35.675L20.795 36.47C20.885 36.5 20.975 36.53 21.065 36.53C21.365 36.53 21.65 36.35 21.77 36.05C21.92 35.66 21.74 35.225 21.35 35.075L20.81 34.865L30.875 29.165L30.815 29.765C30.77 30.185 31.085 30.545 31.49 30.59C31.88 30.62 32.27 30.32 32.315 29.915L32.51 27.875V27.845C32.51 27.725 32.51 27.605 32.45 27.5L32.465 27.455Z" fill="#010101"/>
<path d="M35.1492 21.41L34.6692 21.8V10.325L35.2542 10.775C35.5842 11.03 36.0642 10.97 36.3042 10.64C36.5592 10.31 36.4992 9.83001 36.1692 9.59001L34.3842 8.22501C34.3842 8.22501 34.3542 8.22501 34.3392 8.21001C34.2342 8.13501 34.1292 8.09001 33.9942 8.07501C33.9942 8.07501 33.9942 8.07501 33.9792 8.07501C33.8592 8.07501 33.7392 8.09001 33.6342 8.13501C33.6192 8.13501 33.6042 8.13501 33.5892 8.13501C33.5742 8.13501 33.5592 8.16501 33.5442 8.18001C33.5142 8.19501 33.4842 8.21001 33.4542 8.22501L31.7742 9.57501C31.4442 9.83001 31.3992 10.31 31.6692 10.64C31.8192 10.82 32.0292 10.925 32.2542 10.925C32.4192 10.925 32.5842 10.865 32.7342 10.76L33.1842 10.4V21.965L32.6892 21.62C32.3442 21.38 31.8792 21.47 31.6392 21.8C31.3992 22.145 31.4892 22.61 31.8192 22.85L33.4992 24.02C33.4992 24.02 33.5292 24.02 33.5442 24.035C33.6642 24.11 33.7842 24.155 33.9192 24.155C34.0242 24.155 34.1292 24.125 34.2192 24.08C34.2192 24.08 34.2492 24.08 34.2642 24.08C34.2642 24.08 34.2792 24.05 34.2942 24.05C34.3242 24.035 34.3542 24.02 34.3842 24.005L36.0942 22.61C36.4242 22.34 36.4692 21.875 36.1992 21.545C35.9292 21.215 35.4642 21.17 35.1342 21.44L35.1492 21.41Z" fill="#010101"/>
</g>
<defs>
<clipPath id="clip0_1234_1799">
<rect width="36" height="36" fill="white" transform="translate(0.5 0.5)"/>
</clipPath>
</defs>
</svg>
