<?xml version="1.0" encoding="UTF-8"?>
<svg id="Capa_1" data-name="Capa 1" xmlns="http://www.w3.org/2000/svg" viewBox="0 0 24 24">
  <defs>
    <style>
      .cls-1 {
        fill: #010101;
      }
    </style>
  </defs>
  <path class="cls-1" d="M9.69,14.19c0-.27-.21-.48-.48-.48-2.61,0-4.72-2.12-4.72-4.72s2.12-4.72,4.72-4.72,4.72,2.12,4.72,4.72c0,.42-.06.84-.16,1.24-.07.26.08.52.34.59.26.07.52-.08.59-.34.13-.48.2-.98.2-1.49,0-3.13-2.55-5.68-5.68-5.68s-5.68,2.55-5.68,5.68,2.55,5.68,5.68,5.68c.27,0,.48-.21.48-.48Z"/>
  <path class="cls-1" d="M9.21,2.51c.27,0,.48-.21.48-.48V.48c0-.27-.21-.48-.48-.48s-.48.21-.48.48v1.55c0,.27.21.48.48.48Z"/>
  <path class="cls-1" d="M9.21,17.91c.27,0,.48-.21.48-.48v-1.55c0-.27-.21-.48-.48-.48s-.48.21-.48.48v1.55c0,.27.21.48.48.48Z"/>
  <path class="cls-1" d="M16.14,9.44h1.55c.27,0,.48-.21.48-.48s-.21-.48-.48-.48h-1.55c-.27,0-.48.21-.48.48s.21.48.48.48Z"/>
  <path class="cls-1" d="M2.28,8.48H.73c-.27,0-.48.21-.48.48s.21.48.48.48h1.55c.27,0,.48-.21.48-.48s-.21-.48-.48-.48Z"/>
  <path class="cls-1" d="M3.97,4.4c.09.09.22.14.34.14s.25-.05.34-.14c.19-.19.19-.49,0-.68l-1.09-1.1c-.19-.19-.49-.19-.68,0s-.19.49,0,.68l1.1,1.1Z"/>
  <path class="cls-1" d="M3.97,13.52l-1.1,1.09c-.19.19-.19.49,0,.68.09.09.22.14.34.14s.25-.05.34-.14l1.09-1.09c.19-.19.19-.49,0-.68s-.49-.19-.68,0Z"/>
  <path class="cls-1" d="M14.11,4.54c.12,0,.25-.05.34-.14l1.1-1.1c.19-.19.19-.49,0-.68s-.49-.19-.68,0l-1.1,1.1c-.19.19-.19.49,0,.68.09.09.22.14.34.14Z"/>
  <path class="cls-1" d="M10.92,21.25l-1.93,1.93c-.19.19-.19.49,0,.68.09.09.22.14.34.14s.25-.05.34-.14l1.93-1.93c.19-.19.19-.49,0-.68s-.49-.19-.68,0Z"/>
  <path class="cls-1" d="M16.18,21.25l-1.93,1.93c-.19.19-.19.49,0,.68.09.09.22.14.34.14s.25-.05.34-.14l1.93-1.93c.19-.19.19-.49,0-.68s-.49-.19-.68,0Z"/>
  <path class="cls-1" d="M21.44,21.25l-1.93,1.93c-.19.19-.19.49,0,.68.09.09.22.14.34.14s.25-.05.34-.14l1.93-1.93c.19-.19.19-.49,0-.68s-.49-.19-.68,0Z"/>
  <path class="cls-1" d="M20.6,18.54c-.19-.19-.49-.19-.68,0l-1.93,1.93c-.19.19-.19.49,0,.68.09.09.22.14.34.14s.25-.05.34-.14l1.93-1.93c.19-.19.19-.49,0-.68Z"/>
  <path class="cls-1" d="M15.96,18.54c-.19-.19-.49-.19-.68,0l-1.93,1.93c-.19.19-.19.49,0,.68.09.09.22.14.34.14s.25-.05.34-.14l1.93-1.93c.19-.19.19-.49,0-.68Z"/>
  <path class="cls-1" d="M21.08,12.25c-.24,0-.47.03-.71.1-.62-1.05-1.74-1.71-2.98-1.71-1.07,0-2.05.49-2.71,1.32-.37-.16-.77-.25-1.17-.25-1.62,0-2.93,1.32-2.93,2.93s1.32,2.93,2.93,2.93h7.86c.08,0,.15-.02.22-.06,1.24-.24,2.16-1.34,2.16-2.61,0-1.47-1.2-2.67-2.67-2.67ZM21.31,16.6s-.06.01-.1.02h-7.7c-1.09,0-1.97-.88-1.97-1.97s.88-1.97,1.97-1.97c.37,0,.74.11,1.06.32.11.07.24.09.37.06.13-.03.24-.11.3-.22.46-.77,1.26-1.23,2.14-1.23,1.01,0,1.91.6,2.31,1.53.05.12.15.22.27.26.12.05.26.04.38-.02,1.15-.56,2.44.35,2.44,1.53,0,.84-.64,1.57-1.48,1.68Z"/>
  <path class="cls-1" d="M5.45,9.06c0,.27.21.48.48.48s.48-.21.48-.48c0-1.55,1.26-2.8,2.8-2.8.27,0,.48-.21.48-.48s-.21-.48-.48-.48c-2.07,0-3.76,1.69-3.76,3.76Z"/>
</svg>