<?xml version="1.0" encoding="UTF-8"?>
<svg id="Capa_1" data-name="Capa 1" xmlns="http://www.w3.org/2000/svg" viewBox="0 0 24 24">
  <defs>
    <style>
      .cls-1 {
        fill: #010101;
      }
    </style>
  </defs>
  <path class="cls-1" d="M21.38,4.54h-1.26c-.06-.74-.69-1.33-1.45-1.33h-5.55c-.77,0-1.4.59-1.45,1.33H2.62c-1.45,0-2.62,1.16-2.62,2.59v9.22c0,1.27.93,2.32,2.14,2.55v1.41c0,.27.21.48.48.48h1.73c.17,0,.33-.09.41-.24l.94-1.61h.9c.27,0,.48-.21.48-.48s-.21-.48-.48-.48h-3.98c-.92,0-1.66-.73-1.66-1.63V7.13c0-.9.75-1.63,1.66-1.63h9.51c.27,0,.48-.21.48-.48v-.37c0-.27.22-.48.5-.48h5.55c.27,0,.5.22.5.48v.37c0,.27.21.48.48.48h1.74c.92,0,1.66.73,1.66,1.63v9.22c0,.9-.75,1.63-1.66,1.63h-3.98c-.27,0-.48.21-.48.48s.21.48.48.48h.9l.94,1.61c.09.15.24.24.41.24h1.73c.27,0,.48-.21.48-.48v-1.41c1.22-.22,2.14-1.28,2.14-2.55V7.13c0-1.43-1.18-2.59-2.62-2.59ZM4.08,19.83h-.98v-.88h1.5l-.52.88ZM19.92,19.83l-.52-.88h1.49v.88h-.98Z"/>
  <path class="cls-1" d="M19.27,12.23c.06-.05.1-.11.13-.18,0,0,0,0,.01-.01,0-.01,0-.02,0-.03.02-.07.03-.15.01-.22,0-.01,0-.03,0-.04-.02-.07-.05-.13-.09-.19,0-.01-.02-.02-.03-.03,0,0,0-.02-.01-.02l-2.28-2.02c-.2-.18-.5-.16-.68.04-.18.2-.16.5.04.68l1.34,1.18H6.3l1.34-1.18c.2-.18.22-.48.04-.68-.18-.2-.48-.22-.68-.04l-2.28,2.02s0,.02-.01.02c-.01.01-.02.02-.03.03-.05.06-.08.12-.09.19,0,.01,0,.03,0,.04-.01.07,0,.15.01.22,0,.01,0,.02,0,.04,0,0,0,0,.01.02.03.07.07.13.13.18l2.28,1.94c.09.08.2.11.31.11.14,0,.27-.06.37-.17.17-.2.15-.5-.06-.68l-1.29-1.09h5.23v5.65h-1.04s0,0,0,0h-1.31c-.27,0-.48.21-.48.48s.21.48.48.48h1.02l.73,1.57c.08.17.25.28.43.28h1.24c.19,0,.37-.12.44-.29l.66-1.55h1.12c.27,0,.48-.21.48-.48s-.21-.48-.48-.48h-2.35v-5.65h5.12l-1.29,1.09c-.2.17-.23.47-.05.68.09.11.23.17.37.17.11,0,.22-.04.31-.11l2.28-1.94ZM12.34,19.83h-.62l-.41-.88h1.41l-.38.88Z"/>
</svg>