<?xml version="1.0" encoding="UTF-8"?>
<svg id="Capa_1" data-name="Capa 1" xmlns="http://www.w3.org/2000/svg" viewBox="0 0 24 24">
  <defs>
    <style>
      .cls-1 {
        fill: #010101;
      }
    </style>
  </defs>
  <path class="cls-1" d="M11.63,3c.09.11.23.17.37.17s.27-.06.37-.17l1.93-2.19c.13-.14.16-.35.08-.52-.08-.18-.25-.29-.45-.29h-3.86c-.19,0-.37.11-.45.29-.08.17-.05.38.08.52l1.93,2.19ZM12.85.98l-.85.96-.85-.96h1.69Z"/>
  <path class="cls-1" d="M13.78,9.51c0-.22-.24-.4-.53-.4h-2.51c-.29,0-.53.18-.53.4v.46h-1.33c-.63,0-1.15.39-1.15.87v8.33c0,.48.52.87,1.15.87h6.23c.63,0,1.15-.39,1.15-.87v-8.33c0-.48-.52-.87-1.15-.87h-1.33v-.46Z"/>
  <path class="cls-1" d="M18.75,4.1H5.25c-1.35,0-2.45,1.1-2.45,2.45v15c0,1.35,1.1,2.45,2.45,2.45h13.51c1.35,0,2.45-1.1,2.45-2.45V6.55c0-1.35-1.1-2.45-2.45-2.45ZM20.22,21.55c0,.81-.66,1.47-1.47,1.47H5.25c-.81,0-1.47-.66-1.47-1.47V6.55c0-.81.66-1.47,1.47-1.47h6.26v2.01h-1.36c-.64,0-1.14.43-1.14.98v.08h-1.16c-1.06,0-1.92.7-1.92,1.56v10.33c0,.86.86,1.56,1.92,1.56h8.31c1.06,0,1.92-.7,1.92-1.56v-10.33c0-.86-.86-1.56-1.92-1.56h-1.16v-.08c0-.55-.5-.98-1.14-.98h-1.36v-2.01h6.27c.81,0,1.47.66,1.47,1.47v15ZM14.51,9.13h1.65c.55,0,.94.31.94.59v10.33c0,.28-.4.59-.94.59H7.85c-.55,0-.94-.31-.94-.59v-10.33c0-.28.39-.59.94-.59h1.65c.27,0,.49-.22.49-.49v-.52s.06-.05.16-.05h3.71c.1,0,.16.04.16,0v.57c0,.27.22.49.49.49Z"/>
</svg>