<?xml version="1.0" encoding="UTF-8"?>
<svg id="Capa_1" data-name="Capa 1" xmlns="http://www.w3.org/2000/svg" viewBox="0 0 24 24">
  <defs>
    <style>
      .cls-1 {
        fill: #010101;
      }
    </style>
  </defs>
  <path class="cls-1" d="M10.72,16.67c3.98,0,7.23-3.24,7.23-7.23s-3.24-7.23-7.23-7.23-7.23,3.24-7.23,7.23,3.24,7.23,7.23,7.23ZM10.72,3.18c3.45,0,6.27,2.81,6.27,6.27s-2.81,6.27-6.27,6.27-6.27-2.81-6.27-6.27,2.81-6.27,6.27-6.27Z"/>
  <path class="cls-1" d="M.99,11.38h.89c.69,3.16,2.97,5.62,5.91,6.63v2.19h-2.48c-.27,0-.48.21-.48.48s.21.48.48.48h10.82c.27,0,.48-.21.48-.48s-.21-.48-.48-.48h-2.48v-2.19c2.94-1,5.22-3.47,5.91-6.63h.89c.27,0,.48-.21.48-.48v-2.92c0-.27-.21-.48-.48-.48h-.89C18.65,3.36,14.99.39,10.71.39S2.78,3.36,1.88,7.5h-.89c-.27,0-.48.21-.48.48v2.92c0,.27.21.48.48.48ZM12.68,20.2h-3.93v-1.93c.64.14,1.29.22,1.97.22s1.33-.08,1.97-.22v1.93ZM1.47,8.46h.81c.23,0,.43-.17.47-.4.67-3.89,4.02-6.71,7.96-6.71s7.3,2.82,7.96,6.71c.04.23.24.4.47.4h.81v1.96h-.81c-.23,0-.43.17-.47.4-.67,3.89-4.02,6.71-7.96,6.71s-7.3-2.82-7.96-6.71c-.04-.23-.24-.4-.47-.4h-.81v-1.96Z"/>
  <path class="cls-1" d="M21.98,3.12c-.51,0-.93.41-1.27,1.21l-.09-.29c-.08-.25-.35-.39-.6-.31-.25.08-.39.35-.31.6l.49,1.53s.01.01.02.02c.03.09.08.16.15.21,0,0,.02.01.03.02.08.05.16.08.26.08,0,0,0,0,0,0,0,0,0,0,0,0,0,0,0,0,0,0,.03,0,.05,0,.08,0l.99-.17c.26-.04.44-.29.39-.55-.04-.26-.3-.44-.55-.39l-.1.02c.24-.74.46-.98.51-1,.38.13,1.07,2.09,1.07,5.36s-.7,5.23-1.04,5.36c-.11-.04-.58-.58-.87-2.51-.04-.26-.29-.44-.55-.4-.26.04-.44.28-.4.55.23,1.52.73,3.33,1.81,3.33,1.59,0,2.02-3.97,2.02-6.32s-.42-6.32-2.02-6.32Z"/>
  <path class="cls-1" d="M18.04,18.13l.42-.26c.23-.14.3-.43.16-.66-.14-.23-.44-.3-.66-.16l-1.41.87s0,0,0,0c-.04.02-.07.06-.1.09-.01.01-.03.02-.04.04-.02.02-.02.05-.04.08-.01.03-.03.06-.04.09,0,0,0,0,0,0,0,.03,0,.05,0,.08,0,.03,0,.07,0,.1,0,.04.02.08.04.11,0,.02,0,.04.02.06h0s0,.01,0,.01l.86,1.4c.09.15.25.23.41.23.09,0,.17-.02.25-.07.23-.14.3-.43.16-.66l-.26-.42c1.78.49,2.47,1.07,2.47,1.38,0,.77-3.32,2.19-9.67,2.19S.96,21.22.96,20.45c0-.39,1.01-1.16,3.78-1.69.26-.05.43-.3.38-.56s-.3-.43-.56-.38c-2.08.4-4.56,1.18-4.56,2.63,0,2.07,5.35,3.15,10.63,3.15s10.63-1.08,10.63-3.15c0-1.15-1.56-1.88-3.21-2.32Z"/>
</svg>