<?xml version="1.0" encoding="UTF-8"?>
<svg id="Capa_1" data-name="Capa 1" xmlns="http://www.w3.org/2000/svg" viewBox="0 0 24 24">
  <defs>
    <style>
      .cls-1 {
        fill: #010101;
      }
    </style>
  </defs>
  <path class="cls-1" d="M12.81,2.95h-1.61v-.25c0-.62-.57-1.1-1.31-1.1h-4.69c-.73,0-1.31.48-1.31,1.1v.25h-1.61C1.03,2.95,0,3.78,0,4.79v15.76C0,21.57,1.03,22.39,2.29,22.39h10.52c1.26,0,2.29-.83,2.29-1.84V4.79c0-1.02-1.03-1.84-2.29-1.84ZM14.15,20.55c0,.47-.62.88-1.33.88H2.29c-.71,0-1.33-.41-1.33-.88V4.79c0-.48.61-.88,1.33-.88h2.09c.26,0,.48-.21.48-.48v-.72s.13-.14.35-.14h4.69c.22,0,.34.11.35.14v.73c0,.26.21.48.48.48h2.09c.72,0,1.33.4,1.33.88v15.76Z"/>
  <path class="cls-1" d="M23.87,10.4l-.09-.18c-.31-.65-1.1-.92-1.75-.6l-3.51,1.71c-.31.15-.55.42-.66.75-.07.21-.07.42-.04.63l-1.78.87c-.24.12-.34.4-.22.64.08.17.25.27.43.27.07,0,.14-.02.21-.05l1.78-.87c.14.15.31.29.52.36.14.05.29.07.43.07.2,0,.39-.04.57-.13l3.51-1.71c.31-.15.55-.42.66-.75.12-.33.09-.69-.06-1ZM22.84,11.29l-3.51,1.71c-.08.04-.18.05-.27.02-.09-.03-.16-.09-.2-.18,0,0,0,0,0,0l-.09-.18c-.04-.08-.05-.18-.02-.27.03-.09.09-.16.18-.2l3.51-1.71s.1-.04.15-.04c.13,0,.26.07.32.2l.09.18c.04.08.05.18.01.27-.03.09-.09.16-.18.2Z"/>
  <path class="cls-1" d="M16.06,12.44c.06.02.12.04.18.04.19,0,.37-.11.44-.3l1.38-3.38c.1-.25-.02-.52-.26-.62-.24-.1-.52.02-.62.26l-1.38,3.38c-.1.25.02.52.26.62Z"/>
  <path class="cls-1" d="M21.53,15.88l-4.7-.88c-.26-.05-.51.12-.56.38-.05.26.12.51.38.56l4.7.88s.06,0,.09,0c.23,0,.43-.16.47-.39.05-.26-.12-.51-.38-.56Z"/>
  <path class="cls-1" d="M16.64,16.53c-.14-.22-.44-.29-.66-.15-.22.14-.29.44-.15.66l1.58,2.51c.09.15.25.22.41.22.09,0,.18-.02.25-.07.22-.14.29-.44.15-.66l-1.58-2.51Z"/>
</svg>