<?xml version="1.0" encoding="UTF-8"?>
<svg id="Capa_1" data-name="Capa 1" xmlns="http://www.w3.org/2000/svg" viewBox="0 0 24 24">
  <defs>
    <style>
      .cls-1 {
        fill: #010101;
      }
    </style>
  </defs>
  <path class="cls-1" d="M21.67,2.05h-7.29c-.27,0-.48.21-.48.48v2.95s0,.03,0,.05v1.67c0,.27.21.48.48.48h1.57c.51,0,.88.29.88.54v9.84c0,.26-.38.54-.88.54h-7.92c-.51,0-.88-.29-.88-.54v-9.84c0-.26.38-.54.88-.54h1.57c.27,0,.48-.21.48-.48v-1.68s0-.03,0-.04v-2.95c0-.27-.21-.48-.48-.48H2.33c-.27,0-.48.21-.48.48v20.99c0,.27.21.48.48.48h19.33c.27,0,.48-.21.48-.48V2.53c0-.27-.21-.48-.48-.48ZM8.04,6.72c-1.02,0-1.84.67-1.84,1.5v9.84c0,.83.83,1.5,1.84,1.5h7.92c1.02,0,1.84-.67,1.84-1.5v-9.84c0-.83-.83-1.5-1.84-1.5h-1.09v-.76h2.81c.46,0,.81.26.81.49v13.51c0,.23-.35.49-.81.49H6.22c-.46,0-.81-.26-.81-.49V6.45c0-.23.35-.49.81-.49h2.92v.76h-1.09ZM21.19,23.04H2.81V3.01h6.32v1.99h-2.92c-.97,0-1.77.65-1.77,1.45v13.51c0,.8.79,1.45,1.77,1.45h11.46c.97,0,1.77-.65,1.77-1.45V6.45c0-.8-.79-1.45-1.77-1.45h-2.81v-1.99h6.32v20.03Z"/>
  <path class="cls-1" d="M9.04,11.8v-.61c0-.27-.21-.48-.48-.48s-.48.21-.48.48v1.65s0,0,0,0c0,.01,0,.03,0,.04,0,.26.21.48.48.48h1.78c.27,0,.48-.21.48-.48s-.21-.48-.48-.48h-.52s1.71-1.45,1.71-1.45v4.66l-.54-.64c-.17-.2-.47-.23-.68-.06-.2.17-.23.47-.06.68l1.36,1.6s.02.01.02.02c0,0,.01.02.02.03.03.02.06.03.08.05.02.01.03.02.05.03.06.02.12.04.18.04,0,0,.01,0,.02,0,0,0,0,0,.01,0,.19,0,.35-.11.43-.27l1.32-1.49c.18-.2.16-.5-.04-.68-.2-.18-.5-.16-.68.04l-.55.62v-4.62l1.7,1.44h-.47c-.27,0-.48.22-.48.48s.21.48.48.48h1.73c.27,0,.48-.22.48-.48,0-.02,0-.03,0-.05,0,0,0,0,0,0v-1.45c0-.27-.21-.48-.48-.48s-.48.21-.48.48v.42l-2.48-2.09V.48c0-.27-.21-.48-.48-.48s-.48.21-.48.48v9.22l-2.47,2.1Z"/>
</svg>