<?xml version="1.0" encoding="UTF-8"?>
<svg id="Capa_1" data-name="Capa 1" xmlns="http://www.w3.org/2000/svg" viewBox="0 0 24 24">
  <defs>
    <style>
      .cls-1 {
        fill: #010101;
      }
    </style>
  </defs>
  <path class="cls-1" d="M18.27,1.02h-2.02c-.11-.59-.71-1.02-1.45-1.02h-5.59c-.74,0-1.34.44-1.45,1.02h-2.02c-1.45,0-2.64.94-2.64,2.1v18.77c0,1.16,1.18,2.1,2.64,2.1.27,0,.48-.21.48-.48s-.21-.48-.48-.48c-.91,0-1.68-.52-1.68-1.14V3.13c0-.62.77-1.14,1.68-1.14h2.49c.27,0,.48-.21.48-.48v-.28c0-.09.19-.26.51-.26h5.59c.31,0,.51.17.51.26v.28c0,.27.21.48.48.48h2.49c.91,0,1.68.52,1.68,1.14v18.77c0,.62-.77,1.14-1.68,1.14-.27,0-.48.21-.48.48s.21.48.48.48c1.45,0,2.64-.94,2.64-2.1V3.13c0-1.16-1.18-2.1-2.64-2.1Z"/>
  <path class="cls-1" d="M15.78,23.04h-3.25v-13.95l1.74,2.05c.09.11.23.17.37.17.11,0,.22-.04.31-.11.2-.17.23-.47.06-.68l-2.59-3.05c-.05-.06-.11-.1-.18-.13,0,0,0,0-.01-.01-.01,0-.02,0-.03,0-.07-.02-.15-.03-.23-.01-.01,0-.02,0-.03,0-.07.02-.13.05-.19.09-.01,0-.02.02-.03.03,0,0-.02,0-.02.01l-2.7,3.05c-.18.2-.16.5.04.68s.5.16.68-.04l1.86-2.1v13.99h-3.36c-.27,0-.48.21-.48.48s.21.48.48.48h7.56c.27,0,.48-.21.48-.48s-.21-.48-.48-.48Z"/>
</svg>