<svg width="24" height="24" viewBox="0 0 24 24" fill="none" xmlns="http://www.w3.org/2000/svg">
<g clip-path="url(#clip0_858_71)">
<path d="M12.77 18.6904C12.63 18.4404 12.32 18.3604 12.07 18.5004L9.95 19.7004V10.9004L17.59 6.43043V8.61043C17.59 8.89043 17.82 9.12043 18.1 9.12043C18.38 9.12043 18.61 8.89043 18.61 8.61043V5.53043C18.61 5.53043 18.61 5.50043 18.6 5.49043C18.6 5.43043 18.58 5.37043 18.55 5.32043C18.55 5.30043 18.53 5.28043 18.52 5.26043C18.48 5.19043 18.42 5.13043 18.35 5.09043L15.23 3.28043L12.81 1.88043L9.69 0.0704297C9.53 -0.0195703 9.34 -0.0195703 9.18 0.0704297L0.51 5.09043C0.44 5.13043 0.38 5.19043 0.34 5.26043C0.33 5.28043 0.32 5.30043 0.31 5.32043C0.28 5.38043 0.27 5.43043 0.26 5.49043C0.26 5.50043 0.25 5.52043 0.25 5.53043V15.6804C0.25 15.8704 0.35 16.0404 0.51 16.1304L9.17 21.0304C9.25 21.0704 9.34 21.1004 9.42 21.1004C9.5 21.1004 9.59 21.0804 9.67 21.0304L12.56 19.4004C12.81 19.2604 12.89 18.9504 12.75 18.7004L12.77 18.6904ZM7.38 8.80043L14.98 4.31043L17.08 5.53043L9.44 10.0104L7.38 8.81043V8.80043ZM13.03 3.19043L13.95 3.72043L6.1 8.36043C6.1 8.36043 6.1 8.37043 6.08 8.38043C6.02 8.42043 5.96 8.47043 5.92 8.54043C5.88 8.61043 5.86 8.69043 5.86 8.76043C5.86 8.76043 5.86 8.77043 5.86 8.78043L5.78 11.7604L4.44 11.0304V7.66043L12.56 2.91043L13.04 3.19043H13.03ZM9.43 1.11043L11.53 2.33043L3.91 6.78043L1.79 5.54043L9.43 1.11043ZM1.28 6.42043L3.4 7.66043V11.3404C3.4 11.5304 3.5 11.7004 3.67 11.7904L6.02 13.0704C6.1 13.1104 6.18 13.1304 6.27 13.1304C6.36 13.1304 6.45 13.1104 6.53 13.0604C6.68 12.9704 6.78 12.8104 6.79 12.6304L6.87 9.68043L8.94 10.8904V19.6904L1.28 15.3804V6.42043Z" fill="white"/>
<path d="M22.05 19.42C22.05 19.42 22.1 19.39 22.13 19.36C22.66 18.83 22.78 18.01 22.42 17.35C22.4 17.31 22.39 17.27 22.4 17.25L22.53 17.1C23.24 16.88 23.74 16.21 23.74 15.47C23.74 14.73 23.24 14.06 22.44 13.79L22.4 13.69C22.4 13.69 22.4 13.62 22.42 13.58C22.78 12.92 22.66 12.1 22.13 11.57C21.6 11.04 20.78 10.93 20.12 11.28C20.08 11.3 20.04 11.31 20.02 11.29L19.87 11.17C19.65 10.45 18.99 9.95996 18.25 9.95996C17.51 9.95996 16.84 10.46 16.58 11.25L16.47 11.29C16.47 11.29 16.41 11.29 16.37 11.27C15.71 10.91 14.89 11.03 14.36 11.56C13.83 12.09 13.72 12.91 14.07 13.57C14.09 13.61 14.1 13.65 14.09 13.67L13.96 13.82C13.25 14.04 12.75 14.71 12.75 15.45C12.75 16.19 13.25 16.86 13.96 17.07C13.96 17.07 14.05 17.1 14.08 17.18C14.11 17.25 14.08 17.32 14.08 17.33C13.76 17.93 13.84 18.66 14.26 19.19L12.82 22.27C12.74 22.45 12.76 22.66 12.89 22.81C13.01 22.96 13.22 23.03 13.41 22.98L14.8 22.64L15.47 23.73C15.56 23.88 15.73 23.97 15.91 23.97C15.91 23.97 15.93 23.97 15.94 23.97C16.13 23.96 16.3 23.85 16.38 23.68L17.71 20.85C17.88 20.91 18.07 20.94 18.27 20.94C18.37 20.94 18.46 20.91 18.56 20.89L19.87 23.67C19.95 23.84 20.12 23.95 20.31 23.96C20.31 23.96 20.33 23.96 20.34 23.96C20.52 23.96 20.68 23.87 20.78 23.72L21.45 22.63L22.84 22.97C23.03 23.01 23.23 22.95 23.36 22.8C23.49 22.65 23.51 22.44 23.43 22.26L22.09 19.39L22.05 19.42ZM15.83 22.41L15.46 21.81C15.34 21.62 15.12 21.53 14.9 21.58L14.18 21.76L15.1 19.78C15.51 19.89 15.96 19.87 16.36 19.65C16.37 19.65 16.43 19.62 16.47 19.64L16.61 19.76C16.66 19.94 16.74 20.1 16.85 20.25L15.83 22.42V22.41ZM17.6 19.46C17.5 19.11 17.26 18.84 16.87 18.69C16.73 18.63 16.59 18.6 16.44 18.6C16.25 18.6 16.06 18.65 15.88 18.75C15.62 18.89 15.29 18.85 15.08 18.64C14.87 18.43 14.83 18.1 14.97 17.84C15.14 17.52 15.16 17.16 15 16.77C14.88 16.46 14.61 16.22 14.26 16.12C13.98 16.03 13.78 15.77 13.78 15.48C13.78 15.19 13.98 14.92 14.26 14.84C14.61 14.73 14.88 14.49 15.03 14.1C15.16 13.78 15.14 13.42 14.97 13.11C14.83 12.85 14.87 12.52 15.08 12.31C15.29 12.1 15.62 12.06 15.88 12.2C16.19 12.37 16.56 12.39 16.95 12.22C17.26 12.1 17.5 11.83 17.6 11.48C17.69 11.2 17.95 11 18.24 11C18.53 11 18.8 11.2 18.88 11.48C18.99 11.83 19.22 12.1 19.62 12.25C19.94 12.38 20.3 12.36 20.61 12.19C20.87 12.05 21.2 12.09 21.41 12.3C21.62 12.51 21.66 12.84 21.52 13.1C21.35 13.41 21.33 13.78 21.49 14.17C21.61 14.48 21.88 14.72 22.23 14.82C22.51 14.91 22.71 15.17 22.71 15.46C22.71 15.75 22.51 16.02 22.23 16.1C21.88 16.21 21.61 16.44 21.46 16.83C21.33 17.15 21.35 17.51 21.52 17.82C21.66 18.08 21.62 18.41 21.41 18.62C21.2 18.83 20.87 18.87 20.61 18.73C20.29 18.56 19.93 18.54 19.54 18.7C19.23 18.82 18.99 19.09 18.88 19.44C18.79 19.72 18.53 19.92 18.24 19.92C17.95 19.92 17.68 19.73 17.6 19.44V19.46ZM21.29 21.58C21.07 21.53 20.85 21.62 20.73 21.81L20.36 22.41L19.43 20.43C19.63 20.22 19.81 19.98 19.91 19.67L20.01 19.63C20.01 19.63 20.08 19.63 20.11 19.65C20.42 19.82 20.77 19.87 21.11 19.84L22 21.76L21.28 21.58H21.29Z" fill="white"/>
<path d="M21.3396 15.4701C21.3396 13.7601 19.9496 12.3701 18.2396 12.3701C16.5296 12.3701 15.1396 13.7601 15.1396 15.4701C15.1396 17.1801 16.5296 18.5701 18.2396 18.5701C19.9496 18.5701 21.3396 17.1801 21.3396 15.4701ZM18.2396 17.5401C17.0896 17.5401 16.1596 16.6101 16.1596 15.4601C16.1596 14.3101 17.0896 13.3801 18.2396 13.3801C19.3896 13.3801 20.3196 14.3101 20.3196 15.4601C20.3196 16.6101 19.3896 17.5401 18.2396 17.5401Z" fill="white"/>
<path d="M18.9905 14.4099L17.7905 15.4499L17.5105 15.1899C17.3005 14.9899 16.9805 14.9999 16.7905 15.2099C16.6005 15.4199 16.6005 15.7399 16.8105 15.9299L17.4305 16.5099C17.5305 16.5999 17.6605 16.6499 17.7805 16.6499C17.9005 16.6499 18.0205 16.6099 18.1205 16.5199L19.6705 15.1699C19.8805 14.9799 19.9105 14.6599 19.7205 14.4499C19.5305 14.2399 19.2105 14.2099 19.0005 14.3999L18.9905 14.4099Z" fill="white"/>
</g>
<defs>
<clipPath id="clip0_858_71">
<rect width="24" height="24" fill="white"/>
</clipPath>
</defs>
</svg>
