<svg width="24" height="24" viewBox="0 0 24 24" fill="none" xmlns="http://www.w3.org/2000/svg">
<g clip-path="url(#clip0_858_79)">
<path d="M20.6105 10.62C20.7305 10.04 20.7905 9.45004 20.7905 8.83004C20.7905 8.43004 20.7505 8.05004 20.7005 7.67004C22.9705 5.64004 23.9105 3.82004 23.3105 2.52004C22.9905 1.81004 22.0905 0.960039 19.5105 0.990039C19.2305 0.990039 19.0105 1.22004 19.0205 1.49004C19.0205 1.76004 19.2505 1.98004 19.5205 1.98004C21.0405 1.94004 22.1205 2.31004 22.4105 2.92004C22.7605 3.68004 22.0205 5.03004 20.4705 6.51004C19.4605 2.80004 16.0505 0.0400391 12.0005 0.0400391C7.95046 0.0400391 4.69046 2.68004 3.59046 6.28004C1.84046 4.63004 1.27046 3.33004 1.59046 2.64004C1.86046 2.06004 2.80046 1.72004 4.23046 1.71004C4.51046 1.71004 4.73046 1.48004 4.72046 1.21004C4.72046 0.940039 4.49046 0.720039 4.22046 0.720039C1.86046 0.750039 0.99046 1.56004 0.68046 2.23004C0.0804596 3.54004 1.06046 5.39004 3.34046 7.40004C3.26046 7.87004 3.21046 8.35004 3.21046 8.84004C3.21046 9.36004 3.26046 9.86004 3.35046 10.36C1.04046 12.4 0.0804596 14.24 0.68046 15.54C1.00046 16.24 1.90046 17.07 4.36046 17.07C4.40046 17.07 4.44046 17.07 4.48046 17.07C4.76046 17.07 4.98046 16.84 4.97046 16.57C4.97046 16.3 4.74046 16.08 4.47046 16.08C2.92046 16.09 1.87046 15.75 1.58046 15.14C1.22046 14.36 1.99046 12.99 3.60046 11.47C4.03046 12.83 4.77046 14.05 5.75046 15.03L6.44046 18.25C6.46046 18.36 6.53046 18.46 6.61046 18.53L8.61046 20.15V22.84C8.61046 22.97 8.66046 23.1 8.76046 23.19L9.47046 23.9C9.56046 23.99 9.69046 24.05 9.82046 24.05H14.1505C14.2805 24.05 14.4105 24 14.5005 23.9L15.2105 23.19C15.3005 23.1 15.3605 22.97 15.3605 22.84V20.14L17.3405 18.54C17.4305 18.47 17.4905 18.37 17.5105 18.26L18.2105 15.03C19.1305 14.1 19.8505 12.96 20.2805 11.69C22.1105 13.38 22.7105 14.72 22.3905 15.42C22.1205 16.01 21.1805 16.34 19.7505 16.35C19.4705 16.35 19.2505 16.58 19.2605 16.85C19.2605 17.12 19.4905 17.34 19.7605 17.34C22.1205 17.32 22.9905 16.5 23.3005 15.83C23.9005 14.51 22.9005 12.64 20.5905 10.62H20.6105ZM12.0005 1.04004C16.3005 1.04004 19.7905 4.54004 19.7905 8.83004C19.7905 9.19004 19.7605 9.53004 19.7105 9.88004C19.3105 9.56004 18.8705 9.25004 18.4105 8.93004V7.89004C18.4105 7.76004 18.3605 7.63004 18.2605 7.54004L17.3405 6.62004V5.32004C17.3405 5.19004 17.2905 5.06004 17.1905 4.97004L15.8505 3.63004C15.7605 3.54004 15.6305 3.48004 15.5005 3.48004H14.2005L13.2805 2.56004C13.1905 2.47004 13.0605 2.41004 12.9305 2.41004H11.0305C10.9005 2.41004 10.7705 2.46004 10.6805 2.56004L9.76046 3.48004H8.46046C8.33046 3.48004 8.20046 3.53004 8.11046 3.63004L6.77046 4.97004C6.68046 5.06004 6.62046 5.19004 6.62046 5.32004V6.62004L5.70046 7.54004C5.61046 7.63004 5.55046 7.76004 5.55046 7.89004V7.91004C5.14046 7.61004 4.76046 7.31004 4.41046 7.03004C5.23046 3.60004 8.31046 1.05004 11.9805 1.05004L12.0005 1.04004ZM16.5805 10.42C16.5805 10.42 16.4905 10.53 16.4705 10.59L16.4005 10.76C16.3805 10.82 16.3605 10.88 16.3605 10.95V12.14L15.3105 13.19H14.1205C14.0505 13.19 13.9305 13.23 13.8705 13.25L13.7505 13.3C13.6905 13.32 13.6305 13.36 13.5905 13.41L12.7505 14.25H11.2705L10.4305 13.41C10.4305 13.41 10.3305 13.33 10.2705 13.3L10.0905 13.23C10.0305 13.2 9.96046 13.19 9.90046 13.19H8.71046L7.66046 12.14V10.95C7.66046 10.89 7.65046 10.82 7.62046 10.76L7.54046 10.57C7.51046 10.51 7.48046 10.46 7.43046 10.41L6.59046 9.57004V8.09004L7.43046 7.25004C7.43046 7.25004 7.52046 7.14004 7.54046 7.08004L7.61046 6.91004C7.63046 6.85004 7.65046 6.79004 7.65046 6.72004V5.53004L8.70046 4.48004H9.89046C9.96046 4.48004 10.1105 4.43004 10.1705 4.41004L10.2705 4.37004C10.3305 4.34004 10.3805 4.31004 10.4305 4.26004L11.2705 3.42004H12.7505L13.5905 4.26004C13.5905 4.26004 13.6905 4.34004 13.7505 4.37004L13.9405 4.45004C14.0005 4.47004 14.0605 4.49004 14.1305 4.49004H15.3205L16.3705 5.54004V6.73004C16.3705 6.79004 16.3805 6.86004 16.4105 6.92004L16.4905 7.11004C16.5205 7.17004 16.5505 7.22004 16.6005 7.27004L17.4405 8.11004V9.59004L16.6005 10.43L16.5805 10.42ZM14.3805 21.55H9.63046V20.41H14.3805V21.55ZM14.3805 22.63L13.9605 23.05H10.0405L9.62046 22.63V22.55H14.3705V22.63H14.3805ZM14.6705 19.42H9.32046L7.39046 17.86L7.00046 16.06C8.42046 17.04 10.1405 17.62 11.9905 17.62C13.8405 17.62 15.5605 17.04 16.9805 16.06L16.5905 17.86L14.6705 19.41V19.42ZM12.0005 16.63C7.70046 16.63 4.21046 13.13 4.21046 8.84004C4.21046 8.61004 4.22046 8.38004 4.24046 8.16004C4.65046 8.48004 5.09046 8.81004 5.56046 9.14004V9.80004C5.56046 9.93004 5.61046 10.06 5.71046 10.15L6.63046 11.07V12.37C6.63046 12.5 6.68046 12.63 6.78046 12.72L8.12046 14.06C8.21046 14.15 8.34046 14.21 8.47046 14.21H9.77046L10.6905 15.13C10.7805 15.22 10.9105 15.28 11.0405 15.28H12.9405C13.0705 15.28 13.2005 15.23 13.2905 15.13L14.2105 14.21H15.5105C15.6405 14.21 15.7705 14.16 15.8605 14.06L16.9405 12.98L17.2005 12.72C17.2905 12.63 17.3505 12.5 17.3505 12.37V11.07L18.2705 10.15C18.2705 10.15 18.3005 10.11 18.3105 10.09C18.7405 10.4 19.1305 10.7 19.4905 10.99C18.5605 14.25 15.5605 16.64 12.0005 16.64V16.63Z" fill="white"/>
<path d="M11.9903 5.41992C10.1103 5.41992 8.57031 6.94992 8.57031 8.83992C8.57031 10.7299 10.1003 12.2599 11.9903 12.2599C13.8803 12.2599 15.4103 10.7299 15.4103 8.83992C15.4103 6.94992 13.8803 5.41992 11.9903 5.41992ZM11.9903 11.2599C10.6503 11.2599 9.57031 10.1699 9.57031 8.83992C9.57031 7.50992 10.6603 6.41992 11.9903 6.41992C13.3203 6.41992 14.4103 7.50992 14.4103 8.83992C14.4103 10.1699 13.3203 11.2599 11.9903 11.2599Z" fill="white"/>
</g>
<defs>
<clipPath id="clip0_858_79">
<rect width="24" height="24" fill="white"/>
</clipPath>
</defs>
</svg>
