<svg width="24" height="24" viewBox="0 0 24 24" fill="none" xmlns="http://www.w3.org/2000/svg">
<g clip-path="url(#clip0_858_64)">
<path d="M18.9897 7.85966C19.0198 7.77966 19.0198 7.69966 18.9998 7.61966C18.9998 7.49966 19.0198 7.37966 19.0198 7.25966C19.0198 3.35966 15.8597 0.199662 12.0097 0.199662C11.8797 0.189662 11.4297 0.169662 11.0897 0.509662C10.7497 0.849662 10.7797 1.29966 10.7797 1.37966C10.8197 1.84966 11.1397 2.10966 11.3497 2.27966C11.5197 2.41966 11.5897 2.47966 11.6097 2.57966C11.6297 2.68966 11.5697 2.78966 11.5697 2.79966C11.4797 2.95966 11.1997 3.02966 10.8097 3.10966C10.5497 3.15966 10.3797 3.16966 10.2397 3.17966C10.0097 3.17966 9.76975 3.19966 9.47975 3.38966C9.07975 3.65966 8.80975 4.10966 8.77975 4.56966C8.71975 5.42966 9.48975 5.99966 9.85975 6.26966C10.0197 6.37966 10.4297 6.68966 11.0497 6.81966C11.5797 6.92966 11.9297 6.86966 12.1897 6.82966C12.4097 6.78966 12.4197 6.79966 12.4597 6.82966C12.5297 6.86966 12.5597 6.90966 12.6197 7.02966C12.7197 7.19966 12.8697 7.45966 13.2297 7.65966C13.4997 7.80966 13.7197 7.82966 13.8597 7.83966C13.9597 7.83966 13.9797 7.83966 14.0297 7.87966C14.2497 8.01966 14.3597 8.31966 14.3697 8.54966C14.3697 8.61966 14.3697 8.85966 14.1397 9.20966C13.8597 9.63966 13.5097 9.81966 13.0997 10.0397C12.6597 10.2697 12.1697 10.5297 11.8397 11.1097C11.7397 11.2797 11.6397 11.4997 11.5597 11.6897C11.5097 11.5597 11.4697 11.4097 11.4497 11.2597C11.3997 10.9497 11.4297 10.7697 11.4697 10.5797C11.5197 10.3397 11.5797 10.0497 11.4197 9.63966C11.2197 9.14966 10.8697 8.89966 10.6197 8.71966C10.3697 8.54966 10.2897 8.47966 10.2497 8.30966C10.2297 8.21966 10.2497 8.17966 10.2697 8.06966C10.3097 7.88966 10.3797 7.61966 10.2397 7.20966C10.0897 6.74966 9.78975 6.47966 9.44975 6.17966C9.04975 5.82966 8.59975 5.52966 8.09975 5.29966C7.84975 5.18966 7.55975 5.29966 7.43975 5.53966C7.32975 5.78966 7.43975 6.07966 7.67975 6.19966C8.08975 6.38966 8.45975 6.62966 8.78975 6.91966C9.08975 7.18966 9.22975 7.31966 9.29975 7.51966C9.34975 7.65966 9.33975 7.70966 9.29975 7.83966C9.25975 7.99966 9.20975 8.21966 9.27975 8.52966C9.39975 9.07966 9.76975 9.33966 10.0397 9.52966C10.2697 9.68966 10.4097 9.79966 10.4897 10.0097C10.5397 10.1397 10.5297 10.1997 10.4897 10.3897C10.4397 10.6197 10.3797 10.9297 10.4597 11.4297C10.5797 12.1797 10.9997 12.9697 11.3997 13.2197C11.6197 13.3597 11.8097 13.3297 11.8997 13.2997C12.2597 13.1897 12.2997 12.8397 12.3197 12.6697C12.3297 12.5697 12.3497 12.4297 12.3997 12.2597C12.3997 12.2597 12.4897 11.9497 12.6897 11.5997C12.8797 11.2697 13.1797 11.1097 13.5497 10.9197C13.9897 10.6897 14.5397 10.3997 14.9597 9.75966C15.3197 9.19966 15.3597 8.73966 15.3497 8.51966C15.3297 8.05966 15.1097 7.40966 14.5497 7.05966C14.2897 6.89966 14.0697 6.87966 13.9297 6.86966C13.8297 6.86966 13.7897 6.85966 13.6997 6.80966C13.5797 6.73966 13.5397 6.67966 13.4697 6.54966C13.3797 6.38966 13.2497 6.16966 12.9597 5.99966C12.5997 5.77966 12.2797 5.83966 12.0197 5.87966C11.8097 5.90966 11.5897 5.94966 11.2497 5.87966C10.8297 5.78966 10.5497 5.57966 10.4297 5.49966C10.1697 5.30966 9.72975 4.98966 9.74975 4.65966C9.74975 4.50966 9.86975 4.33966 10.0097 4.23966C10.0597 4.19966 10.0697 4.19966 10.2597 4.18966C10.4397 4.18966 10.6597 4.16966 10.9897 4.09966C11.4797 3.99966 12.0797 3.86966 12.3997 3.30966C12.4697 3.17966 12.6397 2.83966 12.5597 2.41966C12.4797 1.94966 12.1597 1.69966 11.9497 1.52966C11.8497 1.44966 11.7397 1.35966 11.7597 1.22966C11.7797 1.20966 11.8497 1.19966 11.9297 1.20966C13.9697 1.20966 15.7697 2.21966 16.8698 3.75966C16.6897 3.99966 16.5597 4.24966 16.4897 4.52966C16.3797 4.99966 16.4897 5.34966 16.5797 5.65966C16.6097 5.74966 16.6397 5.83966 16.6597 5.94966C16.7897 6.53966 16.6597 7.08966 16.5597 7.45966C16.4797 7.78966 16.3497 8.29966 16.8197 8.48966C16.8897 8.51966 16.9598 8.52966 17.0297 8.52966C17.2698 8.52966 17.4498 8.35966 17.5198 8.28966C17.5898 8.21966 17.6597 8.15966 17.7598 8.12966C17.8097 8.10966 17.8698 8.11966 17.9298 8.11966C17.5298 11.0797 14.9897 13.3697 11.9197 13.3697C8.34975 13.3697 5.89975 10.2197 5.83975 7.28966C5.82975 6.60966 5.94975 5.98966 6.14975 5.43966C6.15975 5.43966 6.17975 5.43966 6.18975 5.43966C6.96975 5.43966 7.76975 4.79966 8.17975 4.26966C8.84975 3.41966 8.89975 2.36966 8.93975 1.51966C8.95975 1.17966 8.93975 0.829662 8.91975 0.489662C8.89975 0.279662 8.75975 0.109662 8.54975 0.0596619C8.34975 0.00966194 8.13975 0.0796619 8.01975 0.259662C7.74975 0.649662 7.43975 0.929662 7.09975 1.08966C6.93975 1.16966 6.78975 1.20966 6.64975 1.24966C6.36975 1.32966 6.05975 1.42966 5.68975 1.70966C5.52975 1.82966 5.19975 2.08966 4.97975 2.51966C4.70975 3.05966 4.65975 3.78966 4.85975 4.38966C4.94975 4.64966 5.07975 4.86966 5.24975 5.03966C5.18975 5.20966 5.13975 5.37966 5.08975 5.55966C5.08975 4.98966 4.77975 4.41966 4.36975 4.09966C4.09975 3.88966 3.86975 3.84966 3.68975 3.80966C3.55975 3.78966 3.44975 3.76966 3.28975 3.67966C3.00975 3.51966 2.86975 3.31966 2.74975 3.13966C2.61975 2.93966 2.38975 2.60966 1.98975 2.67966C1.81975 2.70966 1.56975 2.81966 1.37975 3.18966C1.05975 3.81966 0.999749 4.99966 1.49975 5.91966C1.60975 6.11966 1.86975 6.59966 2.43975 6.86966C2.72975 7.00966 3.05975 7.07966 3.38975 7.07966C3.79975 7.07966 4.18975 6.95966 4.49975 6.72966C4.62975 6.86966 4.73975 7.01966 4.84975 7.17966C4.84975 7.21966 4.84975 7.25966 4.84975 7.30966C4.90975 10.7197 7.75975 14.3597 11.9097 14.3597C15.5997 14.3597 18.6398 11.5097 18.9398 7.89966L18.9897 7.85966ZM17.6798 7.09966C17.7498 6.70966 17.7798 6.21966 17.6597 5.68966C17.6297 5.55966 17.5998 5.44966 17.5597 5.32966C17.4797 5.06966 17.4497 4.92966 17.4897 4.73966C17.8197 5.45966 18.0098 6.24966 18.0298 7.08966C17.9097 7.08966 17.7898 7.06966 17.6798 7.08966V7.09966ZM5.89975 2.91966C6.01975 2.68966 6.21975 2.53966 6.32975 2.44966C6.55975 2.27966 6.72975 2.21966 6.97975 2.14966C7.15975 2.09966 7.35975 2.03966 7.56975 1.92966C7.70975 1.85966 7.84975 1.77966 7.98975 1.68966C7.94975 2.38966 7.87975 3.08966 7.44975 3.61966C7.25975 3.85966 6.98975 4.08966 6.72975 4.23966C6.93975 3.88966 7.14975 3.59966 7.31975 3.37966C7.48975 3.16966 7.45975 2.85966 7.24975 2.68966C7.03975 2.51966 6.72975 2.54966 6.55975 2.75966C6.33975 3.02966 6.06975 3.40966 5.80975 3.86966C5.73975 3.54966 5.76975 3.16966 5.89975 2.90966V2.91966ZM2.90975 5.92966C2.62975 5.79966 2.48975 5.53966 2.40975 5.39966C2.13975 4.90966 2.13975 4.33966 2.19975 3.94966C2.34975 4.12966 2.54975 4.32966 2.84975 4.48966C3.14975 4.65966 3.38975 4.69966 3.54975 4.72966C3.68975 4.75966 3.72975 4.75966 3.79975 4.81966C3.86975 4.87966 3.92975 4.95966 3.98975 5.03966C3.87975 4.98966 3.77975 4.92966 3.65975 4.87966C3.39975 4.77966 3.11975 4.89966 3.01975 5.14966C2.91975 5.39966 3.03975 5.68966 3.28975 5.78966C3.41975 5.83966 3.52975 5.92966 3.65975 5.98966C3.39975 6.03966 3.10975 5.99966 2.90975 5.90966V5.92966Z" fill="white"/>
<path d="M9.85035 20.22C9.87035 19.89 9.89035 18.21 8.56035 17.09C8.00035 16.62 7.39035 16.41 6.92035 16.32C6.51035 15.74 6.03035 15.25 5.48035 14.84C5.31035 14.71 5.12035 14.58 4.93035 14.45V12.82C4.95035 11.35 4.95035 10.95 4.61035 10.51C4.34035 10.16 3.79035 9.76 2.68035 9.74C2.49035 9.38 2.25035 9.15 2.16035 9.07C1.64035 8.64 1.01035 8.58 0.580352 8.6C0.320352 8.61 0.110352 8.83 0.110352 9.09L0.130352 16.95C0.130352 17.07 0.170352 17.18 0.250352 17.27L4.42035 22.22V23.49C4.42035 23.76 4.64035 23.98 4.91035 23.98H9.40035C9.40035 23.98 9.46035 23.97 9.49035 23.96C9.52035 23.96 9.56035 23.96 9.59035 23.94C9.62035 23.92 9.64035 23.91 9.67035 23.89C9.70035 23.87 9.73035 23.86 9.75035 23.84C9.77035 23.82 9.79035 23.78 9.81035 23.76C9.83035 23.74 9.85035 23.71 9.86035 23.69C9.87035 23.66 9.87035 23.62 9.88035 23.59C9.88035 23.56 9.90035 23.53 9.90035 23.5L9.87035 20.22H9.85035ZM3.83035 11.12C3.96035 11.29 3.96035 11.59 3.95035 12.83V14.06C3.74035 14.03 3.52035 14.04 3.30035 14.1C3.26035 14.11 3.22035 14.14 3.18035 14.15C3.20035 12.74 3.14035 11.57 3.00035 10.76C3.54035 10.83 3.76035 11.02 3.84035 11.12H3.83035ZM1.11035 16.78L1.09035 9.63C1.24035 9.67 1.39035 9.73 1.52035 9.84C1.52035 9.84 1.73035 10.02 1.86035 10.32C2.09035 10.85 2.29035 12.58 2.13035 15.72C2.13035 15.85 2.17035 15.99 2.26035 16.08L5.15035 19.15C5.34035 19.35 5.65035 19.36 5.85035 19.17C6.05035 18.98 6.06035 18.67 5.87035 18.47L3.12035 15.55C3.12035 15.47 3.12035 15.39 3.12035 15.31C3.17035 15.29 3.21035 15.26 3.25035 15.22C3.34035 15.13 3.44035 15.06 3.55035 15.03C3.93035 14.92 4.41035 15.28 4.88035 15.63C5.39035 16.01 5.84035 16.49 6.21035 17.04C6.29035 17.16 6.42035 17.24 6.56035 17.26C6.92035 17.31 7.44035 17.45 7.92035 17.84C8.89035 18.65 8.87035 19.92 8.86035 20.19L8.89035 23H5.40035V22.04C5.40035 21.92 5.36035 21.81 5.28035 21.72L1.11035 16.77V16.78Z" fill="white"/>
<path d="M23.4201 8.6003C22.7901 8.5803 22.2501 8.7403 21.8301 9.0803C21.7501 9.1503 21.5101 9.3803 21.3201 9.7403C20.2001 9.7603 19.6501 10.1603 19.3901 10.5103C19.0501 10.9503 19.0501 11.3503 19.0701 12.8203V14.4503C18.8801 14.5803 18.6901 14.7103 18.5201 14.8403C17.9801 15.2503 17.4901 15.7403 17.0801 16.3203C16.6101 16.4103 16.0001 16.6203 15.4401 17.0903C14.1101 18.2103 14.1301 19.8903 14.1501 20.1903L14.1201 23.5003C14.1201 23.5303 14.1301 23.5603 14.1401 23.5903C14.1401 23.6203 14.1401 23.6603 14.1601 23.6903C14.1701 23.7203 14.1901 23.7403 14.2101 23.7603C14.2301 23.7903 14.2401 23.8203 14.2701 23.8403C14.2901 23.8603 14.3201 23.8803 14.3501 23.9003C14.3801 23.9203 14.4001 23.9403 14.4301 23.9503C14.4601 23.9603 14.5001 23.9603 14.5301 23.9703C14.5601 23.9703 14.5901 23.9903 14.6201 23.9903H19.1101C19.3801 23.9903 19.6001 23.7703 19.6001 23.5003V22.2303L23.7701 17.2803C23.8401 17.1903 23.8901 17.0803 23.8901 16.9603L23.9101 9.1003C23.9101 8.8403 23.7001 8.6203 23.4401 8.6103L23.4201 8.6003ZM20.0501 12.8203C20.0401 11.5803 20.0501 11.2803 20.1701 11.1103C20.2501 11.0103 20.4601 10.8103 21.0101 10.7503C20.8701 11.5603 20.8101 12.7303 20.8301 14.1403C20.7901 14.1203 20.7501 14.1003 20.7001 14.0903C20.4801 14.0303 20.2601 14.0203 20.0501 14.0503V12.8203ZM22.8901 16.7803L18.7201 21.7303C18.6501 21.8203 18.6001 21.9303 18.6001 22.0503V23.0103H15.1101L15.1401 20.1703C15.1301 19.9303 15.1101 18.6603 16.0801 17.8503C16.5501 17.4503 17.0801 17.3103 17.4401 17.2703C17.5801 17.2503 17.7101 17.1703 17.7901 17.0503C18.1601 16.4903 18.6101 16.0203 19.1201 15.6403C19.5801 15.2903 20.0601 14.9303 20.4401 15.0403C20.5401 15.0703 20.6401 15.1303 20.7401 15.2303C20.7801 15.2703 20.8201 15.2903 20.8701 15.3203C20.8701 15.4003 20.8701 15.4803 20.8701 15.5603L18.1201 18.4803C17.9301 18.6803 17.9401 18.9903 18.1401 19.1803C18.3401 19.3703 18.6501 19.3603 18.8401 19.1603L21.7301 16.0903C21.8201 15.9903 21.8701 15.8603 21.8601 15.7303C21.7001 12.6003 21.9101 10.8703 22.1301 10.3303C22.2601 10.0403 22.4601 9.8603 22.4601 9.8603C22.5901 9.7503 22.7501 9.6803 22.9001 9.6503L22.8801 16.8003L22.8901 16.7803Z" fill="white"/>
</g>
<defs>
<clipPath id="clip0_858_64">
<rect width="24" height="24" fill="white"/>
</clipPath>
</defs>
</svg>
