<svg width="32" height="32" viewBox="0 0 32 32" fill="none" xmlns="http://www.w3.org/2000/svg">
<path d="M24 0H8C3.55556 0 0 3.54571 0 7.97784V23.9335C0 28.3657 3.55556 31.9114 8 31.9114H24C28.4444 31.9114 32 28.3657 32 23.9335V7.97784C32 3.54571 28.4444 0 24 0ZM24.8 9.13019H22.3111C20.5333 9.13019 20 9.83934 20 11.5235V14.2715H24.8L24.3556 18.7036H20.0889V32H14.4V18.7036H10.5778V14.2715H14.4V11.6122C14.4 7.18006 16.2667 4.87535 21.6 4.87535C26.9333 4.87535 24.0889 4.87535 24.8889 5.05263V9.21884L24.8 9.13019Z" fill="white"/>
</svg>
