<svg width="32" height="32" viewBox="0 0 32 32" fill="none" xmlns="http://www.w3.org/2000/svg">
<g clip-path="url(#clip0_858_356)">
<path d="M16 12C13.7778 12 12 13.7778 12 16C12 18.2222 13.7778 20 16 20C18.2222 20 20 18.2222 20 16C20 13.7778 18.2222 12 16 12Z" fill="white"/>
<path d="M25.3338 8.88837C25.156 8.35503 24.8894 7.91059 24.4449 7.46615C24.0005 7.0217 23.6449 6.75503 23.0227 6.57726C22.5783 6.39948 21.956 6.2217 20.8005 6.13281C19.556 6.13281 19.1116 6.13281 15.9116 6.13281C12.7116 6.13281 12.356 6.13281 11.0227 6.13281C9.86714 6.13281 9.24492 6.39948 8.80048 6.57726C8.26714 6.75503 7.8227 7.0217 7.37826 7.46615C6.93381 7.91059 6.66714 8.26615 6.48937 8.88837C6.31159 9.33281 6.13381 9.95503 6.04492 11.1106C6.04492 12.355 6.04492 12.7995 6.04492 15.9995C6.04492 19.1995 6.04492 19.555 6.04492 20.8884C6.04492 22.0439 6.31159 22.6661 6.48937 23.1106C6.66714 23.6439 6.93381 24.0884 7.37826 24.5328C7.8227 24.9773 8.17825 25.2439 8.80048 25.4217C9.24492 25.5995 9.86714 25.7773 11.0227 25.8661C12.2671 25.8661 12.6227 25.8661 15.9116 25.8661C19.2005 25.8661 19.4671 25.8661 20.8005 25.8661C21.956 25.8661 22.5783 25.5995 23.0227 25.4217C23.556 25.2439 24.0005 24.9773 24.4449 24.5328C24.8894 24.0884 25.156 23.7328 25.3338 23.1106C25.5116 22.6661 25.6894 22.0439 25.7783 20.8884C25.7783 19.6439 25.7783 19.1995 25.7783 15.9995C25.7783 12.7995 25.7783 12.4439 25.7783 11.1106C25.7783 9.95503 25.5116 9.33281 25.3338 8.88837ZM16.0005 22.1328C12.6227 22.1328 9.86714 19.3773 9.86714 15.9995C9.86714 12.6217 12.6227 9.86615 16.0005 9.86615C19.3783 9.86615 22.1338 12.6217 22.1338 15.9995C22.1338 19.3773 19.3783 22.1328 16.0005 22.1328ZM22.4005 11.0217C21.6005 11.0217 20.9783 10.3995 20.9783 9.59948C20.9783 8.79948 21.6005 8.17726 22.4005 8.17726C23.2005 8.17726 23.8227 8.79948 23.8227 9.59948C23.8227 10.3995 23.2005 11.0217 22.4005 11.0217Z" fill="white"/>
<path d="M24 0H8C3.55556 0 0 3.55556 0 8V24C0 28.4444 3.55556 32 8 32H24C28.4444 32 32 28.4444 32 24V8C32 3.55556 28.4444 0 24 0ZM27.9111 20.9778C27.9111 22.2222 27.6444 23.1111 27.3778 23.9111C27.1111 24.7111 26.6667 25.3333 25.9556 26.0444C25.2444 26.7556 24.6222 27.1111 23.8222 27.4667C23.0222 27.7333 22.2222 28 20.8889 28C19.6444 28 19.2 28 15.9111 28C12.6222 28 12.2667 28 10.9333 28C9.68889 28 8.8 27.7333 8 27.4667C7.2 27.2 6.57778 26.7556 5.86667 26.0444C5.15556 25.4222 4.8 24.7111 4.44444 23.9111C4.17778 23.1111 3.91111 22.3111 3.91111 20.9778C3.91111 19.7333 3.91111 19.2889 3.91111 16C3.91111 12.7111 3.91111 12.3556 3.91111 11.0222C3.91111 9.77778 4.17778 8.88889 4.44444 8.08889C4.71111 7.28889 5.15556 6.66667 5.86667 5.95556C6.57778 5.24444 7.2 4.88889 8 4.53333C8.8 4.26667 9.6 4 10.9333 4C12.1778 4 12.6222 4 15.9111 4C19.2 4 19.5556 4 20.8889 4C22.1333 4 23.0222 4.26667 23.8222 4.53333C24.6222 4.8 25.2444 5.24444 25.9556 5.95556C26.6667 6.66667 27.0222 7.28889 27.3778 8.08889C27.6444 8.88889 27.9111 9.68889 27.9111 11.0222C27.9111 12.2667 27.9111 12.7111 27.9111 16C27.9111 19.2889 27.9111 19.6444 27.9111 20.9778Z" fill="white"/>
</g>
<defs>
<clipPath id="clip0_858_356">
<rect width="32" height="32" fill="white"/>
</clipPath>
</defs>
</svg>
