<svg width="32" height="32" viewBox="0 0 32 32" fill="none" xmlns="http://www.w3.org/2000/svg">
<path d="M24 0H8C3.55556 0 0 3.55556 0 8V24C0 28.3556 3.55556 32 8 32H24C28.4444 32 32 28.4444 32 24V8C32 3.55556 28.4444 0 24 0ZM10.9333 25.6H6.66667V12.6222H10.9333V25.6ZM10.5778 10.2222C10.1333 10.6667 9.51111 10.8444 8.8 10.8444C8.08889 10.8444 7.55556 10.6667 7.11111 10.2222C6.66667 9.77778 6.48889 9.24444 6.48889 8.62222C6.48889 8 6.75556 7.46667 7.2 7.02222C7.64444 6.57778 8.26667 6.4 8.97778 6.4C9.68889 6.4 10.2222 6.57778 10.6667 7.02222C11.1111 7.46667 11.3778 8 11.3778 8.71111C11.3778 9.42222 11.2 9.86667 10.7556 10.2222H10.5778ZM26.4 25.6H22.1333V18.6667C22.1333 16.7111 21.4222 15.7333 20 15.7333C18.5778 15.7333 19.0222 15.9111 18.5778 16.1778C18.2222 16.4444 17.9556 16.8889 17.7778 17.3333C17.6889 17.6 17.6 17.9556 17.6 18.4V25.6H13.3333C13.3333 21.6889 13.3333 18.6667 13.3333 16.5333C13.3333 14.4 13.3333 13.0667 13.3333 12.7111H17.6V14.5778C18.4889 13.1556 19.8222 12.4444 21.5111 12.4444C23.2 12.4444 24.1778 12.9778 25.0667 13.9556C25.9556 14.9333 26.4 16.3556 26.4 18.3111V25.7778V25.6Z" fill="white"/>
</svg>
