<svg width="32" height="32" viewBox="0 0 32 32" fill="none" xmlns="http://www.w3.org/2000/svg">
<g clip-path="url(#clip0_858_361)">
<path d="M14.3106 13.0665C14.1329 12.9776 13.9551 13.0665 13.9551 13.3332V18.5776C13.9551 18.8443 14.1329 18.9332 14.3106 18.8443L19.0217 16.2665C19.1995 16.1776 19.2884 15.8221 19.0217 15.7332L14.3106 13.0665Z" fill="white"/>
<path d="M24 0H8C3.55556 0 0 3.55556 0 8V24C0 28.3556 3.55556 32 8 32H24C28.4444 32 32 28.4444 32 24V8C32 3.55556 28.4444 0 24 0ZM26.4 18.6667C26.4 21.1556 24.3556 23.1111 21.8667 23.1111H10.1333C7.64444 23.1111 5.6 21.0667 5.6 18.6667V13.2444C5.6 10.7556 7.64444 8.8 10.1333 8.8H21.8667C24.3556 8.8 26.4 10.8444 26.4 13.2444V18.6667Z" fill="white"/>
</g>
<defs>
<clipPath id="clip0_858_361">
<rect width="32" height="32" fill="white"/>
</clipPath>
</defs>
</svg>
